<?xml version="1.0" encoding="UTF-8"?>
<svg version="1.1" xmlns="http://www.w3.org/2000/svg" width="2000" height="603">
<path d="M0 0 C11.64749633 11.0226346 19.27133143 23.48918326 26.75 37.625 C27.15089844 36.75359375 27.55179688 35.8821875 27.96484375 34.984375 C38.72503285 12.43921688 55.49619769 -4.58186139 79.07421875 -13.16015625 C104.83896612 -21.67539157 131.69736471 -19.66695147 156.125 -8.0625 C162.30830309 -4.80960586 167.58784197 -1.06941719 172.75 3.625 C173.60464844 4.3984375 174.45929688 5.171875 175.33984375 5.96875 C194.15273971 23.84807368 200.15709304 48.44016657 200.80146384 73.63742471 C200.87602955 79.03467595 200.84214728 84.43184242 200.81518555 89.8293457 C200.81010834 91.62790698 200.80557229 93.42646985 200.80153179 95.22503376 C200.79243274 99.05258149 200.78079838 102.88011001 200.76751328 106.70764542 C200.74841004 112.58833596 200.7431529 118.4689825 200.74160767 124.34970093 C200.74100399 126.34861851 200.74039775 128.34753609 200.73978901 130.34645367 C200.73948425 131.34989327 200.73917949 132.35333287 200.73886549 133.38717973 C200.7296671 154.86595357 200.67992196 176.34463503 200.61790943 197.82331371 C200.58301638 210.1165241 200.55785986 222.40961805 200.55444336 234.70288086 C200.55140715 245.54568942 200.53100916 256.38830017 200.48947543 267.23103219 C200.46820314 272.93831908 200.45551912 278.64532473 200.46384621 284.3526516 C200.4713626 289.68602237 200.45566249 295.01881475 200.42193985 300.35207939 C200.41369367 302.30560857 200.41397178 304.25919514 200.42340279 306.21271896 C200.43500123 308.8781489 200.41594755 311.54167335 200.38923645 314.20695496 C200.39990971 314.97861014 200.41058297 315.75026533 200.42157966 316.545304 C200.31303324 322.34613686 198.73849393 324.711608 194.75 328.625 C191.83258393 330.08370804 189.25127093 329.77653581 185.99291992 329.80200195 C185.29840225 329.80857315 184.60388458 329.81514435 183.88832092 329.82191467 C181.58570247 329.84165458 179.28314926 329.85331196 176.98046875 329.86328125 C175.80106437 329.86939454 175.80106437 329.86939454 174.59783363 329.87563133 C170.43591194 329.89649541 166.27402324 329.91079542 162.11206055 329.92016602 C157.81445181 329.93122899 153.51736107 329.96562611 149.21993542 330.00533772 C145.91448508 330.03149152 142.60915837 330.03985674 139.30361366 330.04344749 C137.71958227 330.04831699 136.13555653 330.05994143 134.55162621 330.07848549 C132.33242214 330.10285119 130.11456073 330.10191743 127.89526367 330.0949707 C126.63332687 330.10083694 125.37139008 330.10670319 124.07121277 330.11274719 C120.11566649 329.53184295 118.52774515 328.45656257 115.75 325.625 C113.04182147 321.76586757 113.46701493 317.45334729 113.48498535 312.93083191 C113.48060408 312.04369973 113.47622281 311.15656755 113.47170877 310.24255258 C113.45936637 307.26345738 113.46119847 304.28453777 113.46289062 301.30541992 C113.45686743 299.17155699 113.44994345 297.03769644 113.44218445 294.90383911 C113.42727908 290.30343617 113.41854194 285.70307676 113.41447449 281.1026516 C113.4077619 273.81849711 113.38600509 266.53443541 113.36193848 259.25032043 C113.3129282 243.77106872 113.2806788 228.29179723 113.25 212.8125 C113.21689508 196.13892388 113.18080233 179.46538396 113.12586927 162.79186326 C113.10261456 155.56212278 113.08880264 148.33244613 113.08237457 141.10267198 C113.07640128 136.58520811 113.06227396 132.06779531 113.04603004 127.55035782 C113.04019412 125.46840014 113.03767341 123.38642986 113.03886986 121.30446434 C113.70002136 96.03699527 113.70002136 96.03699527 104.03125 73.46875 C95.96772915 65.66960688 86.27524923 63.99317636 75.45800781 64.08178711 C65.35739551 64.4907833 55.98875074 68.48363156 48.75 75.625 C35.14203104 92.08114851 35.29507364 114.31075874 35.36523438 134.59692383 C35.36111697 136.61952518 35.35564926 138.64212416 35.34895325 140.66471863 C35.33733703 144.97679721 35.33470415 149.28874819 35.33930969 153.60083961 C35.34617868 160.42167703 35.33015488 167.2423493 35.31091309 174.06315613 C35.27005465 189.75252771 35.2584983 205.44189368 35.24738312 221.13130951 C35.23686882 235.55838869 35.22013236 249.98538728 35.17928743 264.41241664 C35.16094549 271.19228423 35.15703255 277.97195947 35.16422272 284.75184596 C35.16574314 288.95968188 35.15497161 293.16742108 35.14084435 297.37523079 C35.13683913 299.32552984 35.13797106 301.27584723 35.14461708 303.22613907 C35.15299201 305.88791947 35.14301663 308.54902967 35.12854004 311.21076965 C35.13888094 312.36741669 35.13888094 312.36741669 35.14943075 313.54743034 C35.08551003 319.57953066 33.68082285 323.61349046 29.50036621 327.96864319 C26.02766912 330.06001032 23.7861706 330.12616519 19.74414062 330.12670898 C19.05893845 330.13211197 18.37373627 330.13751495 17.66777039 330.14308167 C15.41348441 330.15554073 13.16048278 330.13909858 10.90625 330.12109375 C9.3335361 330.12124881 7.76082182 330.12273888 6.18811035 330.12550354 C2.8962306 330.12688626 -0.39521278 330.11435132 -3.68701172 330.09155273 C-7.90044903 330.06316812 -12.11316158 330.06590694 -16.32665253 330.07864285 C-19.57295897 330.08560749 -22.81909875 330.07780185 -26.06538391 330.06538582 C-27.61867127 330.06087893 -29.17197656 330.06052785 -30.7252655 330.06445122 C-32.89859511 330.06737126 -35.07093616 330.05082039 -37.24414062 330.02905273 C-39.09682556 330.02094826 -39.09682556 330.02094826 -40.98693848 330.01268005 C-44.63695724 329.57902612 -46.41676105 328.95461224 -49.25 326.625 C-52.40138402 321.61551299 -52.67767281 317.62261704 -52.62854004 311.90032959 C-52.63307017 311.03402302 -52.6376003 310.16771645 -52.6422677 309.27515817 C-52.65387519 306.37827198 -52.64425092 303.48184903 -52.63476562 300.58496094 C-52.63887181 298.50493065 -52.64433297 296.42490266 -52.65104675 294.34487915 C-52.66277231 289.86617156 -52.6652556 285.3875872 -52.66069031 280.90886688 C-52.65387337 273.81273636 -52.66976442 266.71676735 -52.68908691 259.6206665 C-52.72695569 244.53878641 -52.73972707 229.45692032 -52.75 214.375 C-52.76108564 198.13249926 -52.77662488 181.89007324 -52.82071257 165.6476233 C-52.83896754 158.60934409 -52.84299684 151.5712499 -52.83577728 144.53295279 C-52.83424319 140.12895909 -52.84511684 135.72505581 -52.85915565 131.32108688 C-52.86312075 129.29682382 -52.86209851 127.27254301 -52.85538292 125.2482872 C-52.76568103 101.18871692 -52.76568103 101.18871692 -60.25 78.625 C-60.82814453 77.55378906 -60.82814453 77.55378906 -61.41796875 76.4609375 C-65.74854737 69.67932758 -72.69987723 66.46755088 -80.1796875 63.984375 C-91.17019811 62.07658825 -102.63577805 63.18737307 -112.00390625 69.47265625 C-125.32710662 80.41316803 -128.05984269 96.53113589 -129.83174515 112.80260849 C-130.63826049 121.20937223 -130.52510479 129.6418493 -130.50537109 138.07861328 C-130.50812838 140.0697392 -130.51181272 142.06086402 -130.51634216 144.05198669 C-130.52438607 148.30241513 -130.52664013 152.55279119 -130.52439499 156.80322647 C-130.52153919 163.52754186 -130.53599419 170.25175415 -130.55337524 176.9760437 C-130.60019868 196.08394875 -130.62436226 215.1918447 -130.63085938 234.29980469 C-130.63460891 244.88128847 -130.6526181 255.46265348 -130.68595374 266.04408634 C-130.70614959 272.7267035 -130.7085485 279.40901409 -130.69767356 286.09164929 C-130.6950672 290.24275488 -130.70906463 294.39368148 -130.72775459 298.54474068 C-130.73307666 300.46720159 -130.73157955 302.38969546 -130.72271919 304.31214333 C-130.7115893 306.93883959 -130.72503833 309.56432594 -130.74447632 312.19094849 C-130.73535166 312.94882506 -130.726227 313.70670164 -130.71682584 314.48754418 C-130.7950365 319.92851762 -132.18424988 323.11749668 -135.25 327.625 C-138.54795289 330.19163104 -142.03504558 329.90206525 -146.1105957 329.94726562 C-146.79243927 329.95719543 -147.47428284 329.96712524 -148.17678833 329.97735596 C-150.42649413 330.00650087 -152.67591789 330.02018629 -154.92578125 330.03125 C-156.49513247 330.04276151 -158.06448367 330.05427686 -159.63383484 330.0657959 C-162.9231395 330.08678818 -166.2123468 330.09849135 -169.50170898 330.10546875 C-173.70523358 330.11643023 -177.90745976 330.16447453 -182.11057758 330.22141266 C-185.3526529 330.25876619 -188.59441863 330.2690818 -191.8366909 330.2721405 C-193.38561282 330.27817272 -194.93453063 330.29415994 -196.48324013 330.32051086 C-210.09592743 330.53558589 -210.09592743 330.53558589 -214.69213867 326.77148438 C-218.04989503 323.25635945 -218.37537774 319.97011968 -218.38142776 315.24382305 C-218.38526891 314.11989672 -218.38911005 312.9959704 -218.3930676 311.83798569 C-218.39220112 310.59793159 -218.39133463 309.35787748 -218.39044189 308.08024597 C-218.39341302 306.76701223 -218.39638414 305.45377849 -218.3994453 304.10074979 C-218.4075244 300.44780085 -218.40930537 296.79487154 -218.41004276 293.14191473 C-218.41189173 289.20520523 -218.41943825 285.26850596 -218.42617798 281.33180237 C-218.4397681 272.72028295 -218.44578703 264.10876819 -218.45018864 255.49723983 C-218.45294981 250.12195661 -218.45718692 244.7466752 -218.46169281 239.3713932 C-218.47388617 224.49383628 -218.48418548 209.6162808 -218.4875679 194.73871899 C-218.48778747 193.7862629 -218.48800703 192.83380681 -218.48823325 191.85248842 C-218.48845153 190.89773222 -218.48866981 189.94297602 -218.4888947 188.95928782 C-218.48933817 187.02453498 -218.48978473 185.08978214 -218.49023438 183.1550293 C-218.4904558 182.19532171 -218.49067723 181.23561412 -218.49090537 180.24682448 C-218.49485424 164.69258431 -218.51231067 149.13839096 -218.5355939 133.58416887 C-218.55929603 117.62148788 -218.57176923 101.6588304 -218.57293582 85.69613153 C-218.5738532 76.73098566 -218.5796214 67.7659008 -218.59775543 58.80077171 C-218.61314104 51.167424 -218.61828599 43.53415616 -218.61001733 35.9007959 C-218.6061054 32.00538398 -218.60706678 28.11013297 -218.62107468 24.21474075 C-218.63611647 19.99327871 -218.62796326 15.77218068 -218.61749268 11.55070496 C-218.62554908 10.31734301 -218.63360548 9.08398107 -218.64190602 7.81324452 C-218.58094734 -2.65588979 -218.58094734 -2.65588979 -215.25 -7.375 C-211.06519155 -10.90405299 -208.12311736 -11.87720634 -202.69726562 -11.89257812 C-201.41573608 -11.90518677 -200.13420654 -11.91779541 -198.81384277 -11.93078613 C-197.42797288 -11.92362585 -196.04210804 -11.91542175 -194.65625 -11.90625 C-193.22188047 -11.90894775 -191.78751272 -11.91283252 -190.35314941 -11.91784668 C-187.35390734 -11.92372858 -184.35514332 -11.91522185 -181.35595703 -11.89648438 C-177.5225036 -11.87369466 -173.6901705 -11.88682491 -169.85675812 -11.91077423 C-166.89690802 -11.92526821 -163.93732104 -11.92060996 -160.97746277 -11.91026306 C-159.5645484 -11.90760567 -158.15160969 -11.91083065 -156.73872375 -11.92018127 C-154.76006564 -11.93040428 -152.78132313 -11.91204496 -150.80273438 -11.89257812 C-149.67943726 -11.88939575 -148.55614014 -11.88621338 -147.39880371 -11.88293457 C-142.64501592 -11.11609949 -139.47032535 -8.83166336 -136.40698242 -5.17504883 C-134.79628286 -1.27694517 -134.77145805 2.24411922 -134.73828125 6.42578125 C-134.72033005 7.26215622 -134.70237885 8.09853119 -134.68388367 8.96025085 C-134.62990491 11.61928334 -134.59592539 14.27813761 -134.5625 16.9375 C-134.52931589 18.74546744 -134.49482522 20.5534114 -134.45898438 22.36132812 C-134.37418576 26.78242324 -134.30731559 31.20346664 -134.25 35.625 C-133.8535453 34.84749893 -133.8535453 34.84749893 -133.44908142 34.05429077 C-128.99796043 25.33867383 -124.7255792 17.04303439 -118.25 9.625 C-117.72148437 8.9546875 -117.19296875 8.284375 -116.6484375 7.59375 C-104.11565519 -7.84948887 -84.91949546 -15.44987281 -65.6875 -18.125 C-42.27519869 -19.94991322 -17.84767084 -16.30931747 0 0 Z " fill="#000000" transform="translate(558.25,20.375)"/>
<path d="M0 0 C1.44794449 -0.01566513 1.44794449 -0.01566513 2.92514038 -0.03164673 C20.83202278 -0.18268671 38.70210908 1.67807015 55.6875 7.6875 C56.53731445 7.98011719 57.38712891 8.27273437 58.26269531 8.57421875 C70.51750442 12.96563971 82.01430896 18.94285447 91.875 27.5 C92.73544922 28.14775391 92.73544922 28.14775391 93.61328125 28.80859375 C110.46933181 41.86718924 118.49171189 63.89637722 121.46857166 84.28059959 C122.80567047 94.87202754 123.02124847 105.48387763 123.0168457 116.14599609 C123.01988801 117.55065518 123.02341235 118.9553133 123.02737427 120.35997009 C123.03518038 123.35484292 123.04037631 126.3497043 123.04366493 129.34458542 C123.04965047 134.09683495 123.06625876 138.84901255 123.08500671 143.60122681 C123.09134169 145.2380962 123.09766734 146.87496563 123.10398388 148.5118351 C123.10714969 149.33080875 123.1103155 150.1497824 123.11357725 150.99357343 C123.15541544 162.03281274 123.18862509 173.07201464 123.20092773 184.11132812 C123.20934968 191.59237375 123.23198184 199.07323629 123.2702834 206.55419028 C123.28988598 210.49714177 123.30250149 214.43982067 123.29744911 218.38282394 C123.26879326 246.02143575 126.68631773 264.92507393 143.51928711 287.49755859 C144.06721924 288.23312988 144.61515137 288.96870117 145.1796875 289.7265625 C145.67452637 290.38221191 146.16936523 291.03786133 146.67919922 291.71337891 C148.64773068 294.65452085 149.09651649 297.41571771 149.25 300.875 C149.29898437 301.62523437 149.34796875 302.37546875 149.3984375 303.1484375 C148.61422701 306.67153238 146.52544916 308.12347994 143.875 310.5 C143.04742188 311.27859375 142.21984375 312.0571875 141.3671875 312.859375 C136.81860471 317.01419987 132.23446465 321.07077162 127.4375 324.9375 C123.44274141 328.15944612 119.62961349 331.50670325 115.875 335 C110.40317267 340.08752731 104.74187018 344.86826039 98.875 349.5 C98.20082031 350.05816406 97.52664063 350.61632812 96.83203125 351.19140625 C94.65474569 352.64727583 93.14841744 353.10220342 90.5625 353.4375 C89.84449219 353.54964844 89.12648438 353.66179687 88.38671875 353.77734375 C78.06773988 352.63792307 68.59017712 340.77052924 62.25 333.25 C57.02099322 326.63938409 52.44703559 319.57281498 47.875 312.5 C44.7378666 313.87677688 42.80873318 315.42505507 40.5 317.9375 C15.82078323 343.16514381 -15.38493311 354.97118655 -50.25390625 355.78344727 C-76.53197254 356.05527358 -101.32429017 350.31866701 -120.85546875 331.765625 C-121.60441406 331.01796875 -122.35335937 330.2703125 -123.125 329.5 C-124.17107422 328.47132813 -124.17107422 328.47132813 -125.23828125 327.421875 C-145.31077471 306.37498866 -149.0413731 277.48181128 -148.44140625 249.6953125 C-148.15349335 241.68122083 -147.3785173 234.23366164 -145.125 226.5 C-144.93164062 225.82936523 -144.73828125 225.15873047 -144.5390625 224.46777344 C-135.88270631 195.3060056 -116.96640314 174.58735897 -90.859375 159.62890625 C-55.99253884 141.08007991 -5.50862875 133.95046099 33.875 134.5 C35.06081138 104.4751363 35.06081138 104.4751363 22.875 78.5 C10.41222585 68.51015426 -2.65201049 67.12172301 -18.125 68.5 C-29.53780048 70.5591903 -40.99581794 76.09368362 -48.125 85.5 C-52.22248799 92.30281741 -54.81769322 99.37799007 -57.1875 106.921875 C-58.59428072 110.79052197 -60.40912391 113.64206195 -64.125 115.5 C-72.03045307 116.00886755 -79.91351559 115.17351608 -87.765625 114.328125 C-89.51525543 114.14259064 -89.51525543 114.14259064 -91.30023193 113.95330811 C-93.74770895 113.69090132 -96.19483146 113.42516846 -98.64160156 113.15625 C-102.37676082 112.7498084 -106.11388514 112.3668715 -109.8515625 111.984375 C-112.23974017 111.72540054 -114.62776715 111.4650319 -117.015625 111.203125 C-118.68144623 111.0372287 -118.68144623 111.0372287 -120.38092041 110.86798096 C-126.57175758 110.15818293 -131.08573383 109.26615228 -136.125 105.5 C-138.96398338 101.52024906 -138.55063993 97.19790734 -138.125 92.5 C-137.51040842 89.23600201 -136.61664688 86.10545203 -135.625 82.9375 C-135.35800293 82.0719751 -135.09100586 81.2064502 -134.81591797 80.31469727 C-125.75929292 52.15433456 -106.09033392 29.89020466 -79.9140625 16.35693359 C-69.3625282 11.16678196 -58.5558548 7.22438992 -47.125 4.5 C-46.35269043 4.30390137 -45.58038086 4.10780273 -44.78466797 3.90576172 C-29.98858907 0.29170051 -15.14736618 0.07877587 0 0 Z M-42.4375 207.3125 C-54.3543614 220.08230649 -57.08282586 235.54413475 -56.50390625 252.4609375 C-55.78751984 264.42167105 -52.03922314 274.9737493 -43.17578125 283.33984375 C-35.05571349 289.86461332 -26.46312281 291.67989773 -16.125 291.5 C-2.1471189 289.6958374 9.17764637 282.47370636 17.875 271.5 C32.30312837 251.16537527 34.41446542 228.46972384 34.0625 204.3125 C34.0473941 202.47201642 34.03371635 200.63152055 34.02148438 198.79101562 C33.98901932 194.36036305 33.93757975 189.93032528 33.875 185.5 C7.3545199 185.34544464 -22.21698547 188.2814275 -42.4375 207.3125 Z " fill="#000000" transform="translate(959.125,-0.5)"/>
<path d="M0 0 C0.98113266 -0.00807175 1.96226532 -0.01614349 2.97312927 -0.02445984 C5.0516486 -0.0382528 7.13019012 -0.04899622 9.20874023 -0.05688477 C11.2901902 -0.06829393 13.37161357 -0.08856511 15.45288086 -0.1184082 C33.92293498 -0.38245578 52.08042438 1.21867736 69.62109375 7.42578125 C70.4716333 7.71912354 71.32217285 8.01246582 72.19848633 8.31469727 C84.91003326 12.87511143 96.81765437 19.0597539 106.80859375 28.23828125 C108.04996094 29.34236328 108.04996094 29.34236328 109.31640625 30.46875 C129.02749663 48.94412982 135.25892741 74.2531112 136.25535583 100.42445374 C136.29483841 101.65079025 136.33432098 102.87712677 136.375 104.140625 C136.39630037 104.80018629 136.41760075 105.45974758 136.43954659 106.13929558 C136.90052301 121.08807543 136.86844707 136.03779991 136.8359375 150.9921875 C136.83334553 152.23157452 136.83075356 153.47096153 136.82808304 154.74790573 C136.80160194 166.40904858 136.76234057 178.07013499 136.71264648 189.73120117 C136.6857319 196.17420492 136.66878618 202.61717496 136.65777779 209.06022453 C136.65162807 211.48445851 136.64170022 213.90868631 136.6276989 216.33288765 C136.45404231 246.59071832 141.82894172 267.81632395 160.3125 292.1015625 C163.08573187 296.06228792 163.42833022 299.51279066 162.80859375 304.23828125 C158.53642739 311.37868651 150.93184154 316.52499793 144.58642578 321.76318359 C141.5936937 324.24630461 138.63721739 326.77136552 135.68359375 329.30078125 C135.09868164 329.80085693 134.51376953 330.30093262 133.91113281 330.81616211 C130.20869161 333.99552225 126.58666867 337.24564953 122.99609375 340.55078125 C121.27048996 342.11721515 119.54153941 343.67997353 117.80859375 345.23828125 C116.63876953 346.29789062 116.63876953 346.29789062 115.4453125 347.37890625 C111.11017906 351.06264658 107.7516327 353.02142259 102.046875 353.55859375 C95.93735218 352.68428158 91.72366527 348.69674149 87.43359375 344.61328125 C86.8627002 344.07477539 86.29180664 343.53626953 85.70361328 342.98144531 C78.51679494 336.13472293 72.46794855 328.95155109 66.80859375 320.80078125 C66.31472168 320.08954102 65.82084961 319.37830078 65.31201172 318.64550781 C61.80859375 313.4902835 61.80859375 313.4902835 61.80859375 311.23828125 C56.17612359 315.74861519 50.69242076 320.29699755 45.43359375 325.23828125 C27.92052564 341.24032085 6.37262663 351.36380348 -17.19140625 354.23828125 C-17.98675781 354.34914063 -18.78210938 354.46 -19.6015625 354.57421875 C-47.07571782 357.79622746 -77.35219701 355.00343444 -99.94140625 337.73828125 C-101.36235413 336.57683272 -102.77934001 335.41051181 -104.19140625 334.23828125 C-104.784375 333.79097656 -105.37734375 333.34367187 -105.98828125 332.8828125 C-122.07241635 320.30324812 -130.64154262 298.28788446 -133.77685547 278.7578125 C-134.58540595 271.89322845 -134.58462618 265.01596482 -134.56640625 258.11328125 C-134.56586243 257.33826263 -134.5653186 256.56324402 -134.5647583 255.76473999 C-134.52718128 244.12322838 -133.88446586 233.3633366 -130.19140625 222.23828125 C-129.97709961 221.55862305 -129.76279297 220.87896484 -129.54199219 220.17871094 C-122.42353199 197.84933434 -107.23024242 177.58264718 -87.19140625 165.23828125 C-86.63388672 164.89055664 -86.07636719 164.54283203 -85.50195312 164.18457031 C-49.72348436 142.12437005 -5.71692562 139.0448459 35.16796875 134.9375 C36.21889206 134.83010246 36.21889206 134.83010246 37.29104614 134.72053528 C40.8110664 134.37583788 44.2716001 134.16185418 47.80859375 134.23828125 C47.69679761 130.00866056 47.56665094 125.77978226 47.43359375 121.55078125 C47.3871875 119.78250977 47.3871875 119.78250977 47.33984375 117.97851562 C46.84641881 102.97017379 45.84517155 88.55511651 35.0859375 77.21484375 C24.5484949 68.06913885 11.49604291 67.44538277 -1.76513672 68.03857422 C-10.66762337 68.77134078 -18.76946087 72.43124068 -26.19140625 77.23828125 C-27.05765625 77.79515625 -27.92390625 78.35203125 -28.81640625 78.92578125 C-35.94153597 85.86340755 -39.32509493 93.33071095 -41.79858398 102.81689453 C-43.18377605 107.66427762 -44.91309369 111.06776808 -49.04815674 114.10154724 C-55.76559746 117.66433509 -66.5179404 114.82663434 -73.76953125 114.03125 C-74.93973816 113.90518875 -76.10994507 113.7791275 -77.31561279 113.64924622 C-79.77322451 113.38225673 -82.23051857 113.11232842 -84.6875 112.83959961 C-88.44278657 112.42562909 -92.19971901 112.02987202 -95.95703125 111.63476562 C-98.3529867 111.37220572 -100.74882466 111.10857096 -103.14453125 110.84375 C-104.82279999 110.67011177 -104.82279999 110.67011177 -106.53497314 110.4929657 C-112.86080082 109.76952003 -118.40386375 109.12643568 -123.03125 104.33203125 C-126.46271366 98.13922141 -124.22170005 90.64543825 -122.49658203 84.18164062 C-114.5879478 56.83159719 -96.90620886 32.86338667 -71.84228516 18.93261719 C-54.52668207 9.76374729 -36.50315583 4.25100088 -17.19140625 1.23828125 C-16.17481934 1.06699707 -15.15823242 0.89571289 -14.11083984 0.71923828 C-9.38916066 0.13983701 -4.75264828 0.03803944 0 0 Z M-28.53515625 206.421875 C-40.13657753 219.14513183 -43.77365795 235.0897408 -43.06640625 251.92578125 C-41.95792807 264.11904126 -37.99258834 275.09109023 -28.87890625 283.55078125 C-21.16600213 289.69380223 -11.97408268 292.13953285 -2.19140625 291.23828125 C12.92453301 288.61928495 23.69600304 281.1597319 33.05859375 269.05078125 C50.27222229 244.18665113 48.12012857 213.97137761 47.80859375 185.23828125 C21.57846923 184.91577972 -8.18000958 188.0350326 -28.53515625 206.421875 Z " fill="#000000" transform="translate(134.19140625,-0.23828125)"/>
<path d="M0 0 C15.40386129 -0.36603235 30.51698969 1.54402975 44.5703125 8.15625 C45.51132813 8.59839844 46.45234375 9.04054688 47.421875 9.49609375 C67.1173816 19.51028795 79.96966105 36.30215128 86.99609375 56.890625 C91.8478886 72.25125051 93.71564121 88.68388072 93.72421265 104.7401886 C93.73078603 106.26679471 93.73078603 106.26679471 93.7374922 107.82424134 C93.75076667 111.20875732 93.757033 114.59324734 93.76318359 117.9777832 C93.77109279 120.41446548 93.77936224 122.85114661 93.78796387 125.28782654 C93.81181295 132.57331224 93.82708324 139.85879955 93.84002393 147.1443105 C93.8437428 149.20304685 93.84771534 151.26178255 93.8517766 153.32051826 C93.87699301 166.12169106 93.899032 178.92286509 93.91150475 191.7240572 C93.91443404 194.68037737 93.91739579 197.6366975 93.92041016 200.59301758 C93.92115621 201.32772347 93.92190226 202.06242937 93.92267092 202.81939908 C93.93535054 214.74619934 93.96861976 226.67285144 94.01021199 238.59958229 C94.05260709 250.85716851 94.0761959 263.11467865 94.08142531 275.372338 C94.08483946 282.24988151 94.09659728 289.12719222 94.12952805 296.00466347 C94.16041439 302.4652145 94.16595941 308.92547031 94.15414429 315.38608742 C94.15392272 317.759308 94.16229615 320.13254692 94.17979813 322.50570297 C94.20235834 325.74004078 94.19425535 328.97288611 94.17831421 332.20722961 C94.1921963 333.15079939 94.20607838 334.09436916 94.22038114 335.06653196 C94.16479617 339.6285539 94.06638252 341.52730935 91.15731239 345.21556377 C87.11786549 348.24583022 84.96411151 348.29317471 79.92089844 348.33325195 C79.23774063 348.33982315 78.55458282 348.34639435 77.85072327 348.35316467 C75.58537692 348.37290625 73.32009695 348.38456335 71.0546875 348.39453125 C70.28069862 348.39860678 69.50670975 348.4026823 68.70926666 348.40688133 C64.61103074 348.42774777 60.51282835 348.44204583 56.41455078 348.45141602 C52.18653839 348.46246951 47.9590539 348.49685497 43.73122787 348.53658772 C40.47634928 348.5627695 37.22159603 348.5711093 33.9666214 348.57469749 C32.4085357 348.57956106 30.8504555 348.5911686 29.29247284 348.60973549 C27.10699547 348.63415711 24.92287753 348.63315711 22.73730469 348.6262207 C20.87437775 348.63502007 20.87437775 348.63502007 18.97381592 348.64399719 C14.86856654 348.05568462 12.7459041 346.79040688 9.5703125 344.15625 C6.88229974 340.3907929 7.28707297 336.16391651 7.30529785 331.72782898 C7.29872595 330.44000801 7.29872595 330.44000801 7.29202127 329.12617046 C7.27968143 326.24381027 7.2815108 323.36163162 7.28320312 320.47924805 C7.27717975 318.41434967 7.27025572 316.34945375 7.26249695 314.28456116 C7.24759267 309.83312445 7.23885471 305.38173272 7.23478699 300.93027306 C7.22807345 293.88135169 7.20631539 286.83252617 7.18225098 279.78364563 C7.13324292 264.80370291 7.1009938 249.82373975 7.0703125 234.84375 C7.03720514 218.70909598 7.00110305 202.57447937 6.94618177 186.43988258 C6.92293335 179.44430267 6.90911672 172.44878868 6.90268707 165.453174 C6.89671166 161.08102192 6.88258253 156.70892255 6.86634254 152.33679771 C6.86050908 150.32256766 6.85798539 148.3083246 6.85918236 146.29408646 C6.96593107 116.51383859 6.96593107 116.51383859 -5.4296875 90.15625 C-11.99260459 84.10606081 -20.57213639 81.21597644 -29.4296875 80.78125 C-40.82477298 81.340518 -49.78996864 86.13951842 -57.6171875 94.21875 C-72.69707928 112.14673267 -73.73115817 137.35478397 -73.71679688 159.62670898 C-73.72283384 161.54842922 -73.72976127 163.47014684 -73.73750305 165.39186096 C-73.7522942 169.50155337 -73.76111631 173.61119801 -73.76521301 177.72091484 C-73.77197004 184.22236276 -73.79377136 190.72370885 -73.81774902 197.22511292 C-73.87067972 212.18797245 -73.90426586 227.15086321 -73.93750763 242.11377716 C-73.96821618 255.85473741 -74.00303829 269.59565337 -74.05381823 283.33655602 C-74.07713073 289.79747 -74.09089813 296.25831203 -74.09731293 302.71926391 C-74.1032542 306.73484566 -74.11735159 310.75036888 -74.13365746 314.76592064 C-74.13952821 316.62548818 -74.14200676 318.48507003 -74.14081764 320.34464645 C-74.13965597 322.88580782 -74.15069469 325.42664142 -74.16467285 327.96775818 C-74.16137388 328.70044448 -74.1580749 329.43313078 -74.15467596 330.18801969 C-74.21101999 336.40863441 -74.8082769 341.40358842 -79.11071777 346.05430603 C-82.95477186 348.48879233 -85.01802781 348.78382268 -89.53320312 348.78735352 C-90.55881599 348.79808647 -90.55881599 348.79808647 -91.60514832 348.80903625 C-93.8494392 348.82584801 -96.09171086 348.8065686 -98.3359375 348.78515625 C-99.90482752 348.78598566 -101.47371744 348.78844776 -103.04260254 348.79246521 C-106.3244047 348.79531802 -109.60552242 348.78067369 -112.88720703 348.75317383 C-117.08386651 348.71909104 -121.27930277 348.72511367 -125.47602081 348.7438364 C-128.71382761 348.75442901 -131.95135211 348.74544825 -135.18913269 348.73045158 C-136.73600932 348.72528584 -138.28291563 348.72573199 -139.82978821 348.73199654 C-141.99588926 348.73747656 -144.16026746 348.716989 -146.32617188 348.68969727 C-147.55605835 348.68349869 -148.78594482 348.67730011 -150.05310059 348.6709137 C-154.12556641 348.05018325 -156.27029246 346.76841863 -159.4296875 344.15625 C-161.49381802 340.94546321 -161.6808331 338.37904399 -161.68416309 334.6023798 C-161.68999529 333.46539554 -161.69582748 332.32841128 -161.70183641 331.15697294 C-161.69805708 329.90747671 -161.69427776 328.65798048 -161.69038391 327.37062073 C-161.69340387 326.03016968 -161.69729256 324.68972036 -161.70197648 323.3492741 C-161.71228536 319.66242347 -161.71006734 315.97566977 -161.70579588 312.28881109 C-161.7033339 308.31395942 -161.71233624 304.3391314 -161.71983337 300.36428833 C-161.73259699 292.57594456 -161.73437201 284.78763525 -161.73203311 276.99928278 C-161.73025169 270.67027842 -161.7319958 264.34128453 -161.73625755 258.01228142 C-161.73685274 257.11227459 -161.73744793 256.21226776 -161.73806116 255.284988 C-161.73927288 253.45675779 -161.74048701 251.62852758 -161.74170353 249.80029737 C-161.75258542 232.64675756 -161.75041348 215.49323739 -161.74431869 198.33969646 C-161.73914861 182.63934432 -161.7504062 166.93905421 -161.76941691 151.23871434 C-161.78877805 135.12571087 -161.79705436 119.01273676 -161.79329365 102.89972156 C-161.79137903 93.85023167 -161.79389457 84.80079459 -161.80800819 75.75131416 C-161.819901 68.0476887 -161.82135054 60.34414854 -161.80921803 52.64052195 C-161.8033146 48.7087769 -161.80227012 44.77718806 -161.81422043 40.84545326 C-161.82502958 37.24741187 -161.82203563 33.64965803 -161.80795874 30.05163037 C-161.80403587 28.13083806 -161.81489938 26.21003321 -161.82625562 24.28927046 C-161.81904908 23.14967845 -161.81184253 22.01008644 -161.80441761 20.83596134 C-161.80450013 19.36115239 -161.80450013 19.36115239 -161.80458432 17.85654932 C-161.35695162 14.63234948 -160.34251576 12.77172603 -158.4296875 10.15625 C-154.20652018 7.44232768 -150.92584982 6.77877354 -145.95288086 6.76806641 C-144.68814438 6.75860992 -143.4234079 6.74915344 -142.12034607 6.7394104 C-140.75340458 6.74478003 -139.38646597 6.75093296 -138.01953125 6.7578125 C-136.60518748 6.75578933 -135.19084473 6.75287586 -133.77650452 6.74911499 C-130.82022109 6.74470449 -127.86421056 6.75108217 -124.90795898 6.76513672 C-121.1261398 6.78224395 -117.34495871 6.77237021 -113.5631628 6.75441933 C-110.64542361 6.74356016 -107.72783483 6.74703725 -104.81009102 6.7548027 C-103.41588833 6.75679802 -102.0216718 6.75436898 -100.62748528 6.74736404 C-98.67735952 6.73971356 -96.72718559 6.75344911 -94.77709961 6.76806641 C-93.66934677 6.77045319 -92.56159393 6.77283997 -91.42027283 6.77529907 C-87.00331726 7.33794589 -84.41189385 9.27452053 -81.15527344 12.19799805 C-78.61104861 16.5596806 -78.82668012 20.52062196 -78.8203125 25.48828125 C-78.80377625 26.48002853 -78.78723999 27.47177582 -78.77020264 28.49357605 C-78.72173188 31.65203043 -78.70035332 34.81000334 -78.6796875 37.96875 C-78.65152711 40.1139565 -78.62159959 42.25914058 -78.58984375 44.40429688 C-78.5159735 49.65486054 -78.46432552 54.90528885 -78.4296875 60.15625 C-77.90221924 59.08536133 -77.37475098 58.01447266 -76.83129883 56.91113281 C-76.12075603 55.47713893 -75.41005415 54.04322386 -74.69921875 52.609375 C-74.35379028 51.90699707 -74.00836182 51.20461914 -73.65246582 50.48095703 C-65.84594045 34.76822925 -55.80605637 20.23274088 -40.4296875 11.15625 C-39.52863281 10.62386719 -38.62757812 10.09148438 -37.69921875 9.54296875 C-26.04927813 3.20703613 -13.15408615 0.599275 0 0 Z " fill="#000000" transform="translate(1906.4296875,1.84375)"/>
<path d="M0 0 C33.33580616 31.94895444 49.65632287 81.65800533 50.69628906 127.1472168 C50.71574747 128.76605685 50.72954959 130.3849728 50.73828125 132.00390625 C50.74534088 132.88216064 50.75240051 133.76041504 50.75967407 134.6652832 C50.99083915 171.8684902 50.99083915 171.8684902 47.53515625 188.4296875 C47.23714111 189.86586426 47.23714111 189.86586426 46.93310547 191.33105469 C37.8043575 233.74041418 17.4891684 274.49726044 -19.47314453 299.14794922 C-49.7847179 318.65466167 -86.94556289 324.35021796 -122.13867188 316.97314453 C-145.85301461 311.43282894 -166.19641971 299.45992638 -183.46484375 282.4296875 C-184.72748047 281.18638672 -184.72748047 281.18638672 -186.015625 279.91796875 C-225.31792367 238.98590969 -232.50379781 179.48362455 -231.59667969 125.44873047 C-230.53707145 78.05625238 -213.21757854 29.51362891 -178.68359375 -3.65625 C-128.87899151 -49.77726002 -48.39004621 -44.42610116 0 0 Z M-120.65234375 44.4921875 C-137.25342238 64.19565458 -138.60961296 95.35259234 -138.6328125 119.91796875 C-138.6361409 121.17820358 -138.6394693 122.43843842 -138.64289856 123.73686218 C-138.64793394 126.39337725 -138.6507441 129.04978986 -138.65014648 131.70629883 C-138.65002605 135.69294887 -138.67046577 139.67941086 -138.68945312 143.66601562 C-138.73405913 163.37098858 -138.30257086 183.07846029 -134.21484375 202.4296875 C-133.89169189 203.98937256 -133.89169189 203.98937256 -133.56201172 205.58056641 C-130.16025515 221.20822149 -124.27079056 238.06410066 -110.46484375 247.4296875 C-100.97987303 252.62497297 -91.51544644 253.8452009 -80.96484375 251.3046875 C-69.02638149 247.67930701 -61.34549488 240.94683422 -55.38598633 230.125 C-42.40375959 205.20881968 -41.93626117 175.90098742 -42.07373047 148.42651367 C-42.08979092 144.62967789 -42.07378045 140.83391305 -42.0546875 137.03710938 C-41.63277481 85.62647309 -41.63277481 85.62647309 -63.1171875 40.625 C-71.62802471 32.57474927 -82.65131459 31.10138866 -93.89453125 31.21875 C-104.80117186 31.86312483 -113.14191279 36.72523328 -120.65234375 44.4921875 Z " fill="#000000" transform="translate(1649.46484375,37.5703125)"/>
<path d="M0 0 C1.69962818 0.81319686 3.36594193 1.6977253 5.00390625 2.62890625 C5.97368408 3.17281006 6.94346191 3.71671387 7.94262695 4.27709961 C8.95156006 4.84565674 9.96049316 5.41421387 11 6 C12.98198963 7.07991032 14.96639852 8.15539161 16.953125 9.2265625 C18.48151001 10.05232788 18.48151001 10.05232788 20.04077148 10.89477539 C62.88185185 33.99213077 106.40376276 54.88858955 152 72 C152.99172211 72.37257935 152.99172211 72.37257935 154.003479 72.75268555 C239.07231979 104.65942659 328.07912252 125.85989502 429.4375 136.3125 C430.23225739 136.38804108 431.02701477 136.46358215 431.84585571 136.54141235 C437.8919608 137.10536541 443.94292502 137.5709877 450 138 C451.79963196 138.12920334 451.79963196 138.12920334 453.63562012 138.26101685 C477.13540544 139.89963194 500.56684085 140.36553041 524.11976242 140.31785583 C526.92221969 140.31240821 529.7246685 140.31004622 532.52713013 140.3079834 C559.33379594 140.27724879 585.98177931 139.85418638 612.67999268 137.22460938 C615.02905707 136.99718687 617.37905319 136.78534794 619.72998047 136.578125 C675.43617092 131.64479106 730.75429306 121.66147761 784.85748291 107.55810547 C786.98008258 107.0051883 789.10398539 106.45750292 791.22802734 105.91015625 C834.50191039 94.69965799 877.47810455 80.61144572 918.60180664 63.04296875 C919.74193962 62.56006882 919.74193962 62.56006882 920.90510559 62.06741333 C922.34589182 61.45499535 923.78336903 60.83470346 925.21659851 60.20480347 C932.18891444 57.24514795 939.21849848 56.20221586 946.47265625 58.9296875 C950.90334065 61.39028537 953.48102365 64.06332687 955 69 C955.8974474 73.89432652 955.47816204 77.9261663 953.0625 82.3125 C948.20905033 88.88297196 940.89715432 93.11444204 934.17236328 97.55957031 C932.24336257 98.8386335 930.33503613 100.14143699 928.43359375 101.4609375 C878.28339107 136.00726283 821.64967444 160.98563036 764 180 C763.32014038 180.22453857 762.64028076 180.44907715 761.93981934 180.68041992 C701.18367969 200.65920789 637.71125849 212.84813506 574 218 C573.00199875 218.08732895 572.0039975 218.1746579 570.97575378 218.26463318 C560.74030194 219.09513798 550.54503792 219.18171691 540.28125 219.203125 C539.3485881 219.20595238 538.41592621 219.20877975 537.45500183 219.21169281 C532.49636567 219.22660791 527.53775789 219.23587968 522.57910156 219.24023438 C518.56924104 219.24457318 514.55960125 219.25829536 510.54980469 219.28125 C484.20845545 219.42888472 458.21558743 218.63385822 432 216 C430.95976685 215.89757996 429.91953369 215.79515991 428.84777832 215.68963623 C423.51030748 215.15366135 418.19148514 214.52584474 412.875 213.8125 C412.10645691 213.71184235 411.33791382 213.61118469 410.54608154 213.50747681 C378.65620929 209.30099171 347.1061632 203.16937741 316 195 C314.80552246 194.69126953 313.61104492 194.38253906 312.38037109 194.06445312 C257.90280571 179.91210468 203.84411927 159.98795898 154.125 133.4375 C153.36147217 133.03168701 152.59794434 132.62587402 151.8112793 132.20776367 C149.20280487 130.81375179 146.60066718 129.40852245 144 128 C142.47125244 127.17387207 142.47125244 127.17387207 140.91162109 126.33105469 C109.60561326 109.35010098 79.63196126 90.18498376 51 69 C50.43925781 68.5870166 49.87851562 68.1740332 49.30078125 67.74853516 C-12.39127957 22.26016068 -12.39127957 22.26016068 -14.40625 11.9140625 C-14.59247206 7.3671406 -14.47864806 5.58634387 -11.5 1.9375 C-7.80876378 -0.52332415 -4.28560353 -1.05492498 0 0 Z " fill="#FF9900" transform="translate(295,384)"/>
<path d="M0 0 C0.8625227 -0.00623996 1.7250454 -0.01247993 2.61370516 -0.01890898 C5.49726667 -0.03483465 8.37998237 -0.02223639 11.2635498 -0.00964355 C13.33349602 -0.01506486 15.40343837 -0.02218756 17.47337341 -0.03088379 C23.09110665 -0.04911898 28.70854604 -0.04204867 34.32628441 -0.02936745 C40.20516121 -0.01924088 46.08401284 -0.02863218 51.96289062 -0.03491211 C61.83545448 -0.04218949 71.70789865 -0.03259835 81.58044434 -0.0135498 C92.99468786 0.00821903 104.40864558 0.00116773 115.82288218 -0.02085543 C125.62261606 -0.03900676 135.42226391 -0.04156903 145.22200918 -0.03110075 C151.07510151 -0.02486439 156.92805949 -0.02403422 162.78114319 -0.0372467 C168.28385867 -0.04880059 173.78620564 -0.04078757 179.2888813 -0.01766968 C181.30850678 -0.01238017 183.32816327 -0.01390048 185.34777641 -0.02272034 C188.1045842 -0.03364971 190.86021085 -0.01994372 193.61694336 0 C194.41636368 -0.00892289 195.21578401 -0.01784577 196.03942919 -0.02703905 C201.23389019 0.04586227 204.18217109 1.08491628 208.30847168 4.50793457 C211.79974246 9.51398052 211.76180477 14.22921648 211.74206543 20.11340332 C211.74730728 21.03325516 211.75254913 21.95310699 211.75794983 22.90083313 C211.76435553 24.84318029 211.76305188 26.78556631 211.7545166 28.72790527 C211.74604787 31.66897522 211.7747213 34.60807384 211.80651855 37.5489502 C211.86426443 51.83611594 209.91452789 61.7100345 201.43347168 73.44543457 C200.58353638 74.65405151 200.58353638 74.65405151 199.71643066 75.88708496 C198.52321523 77.58201744 197.32481979 79.27331424 196.12145996 80.96105957 C194.3451121 83.45646233 192.58724412 85.9637436 190.83581543 88.47668457 C187.92399208 92.65446444 185.00122382 96.82441034 182.07458496 100.99182129 C179.14825304 105.16085319 176.22869069 109.33461977 173.30847168 113.50793457 C172.14183779 115.17462418 170.97517111 116.84129084 169.80847168 118.50793457 C169.23097168 119.33293457 168.65347168 120.15793457 168.05847168 121.00793457 C120.80847168 188.50793457 120.80847168 188.50793457 119.05603027 191.01135254 C117.89741412 192.66656472 116.73888449 194.32183748 115.58044434 195.97717285 C112.54133679 200.31961138 109.50042704 204.66077325 106.45690918 209.00012207 C105.82526855 209.90117676 105.19362793 210.80223145 104.54284668 211.73059082 C103.33767547 213.4497321 102.13197897 215.1685053 100.92565918 216.88684082 C98.0004493 221.06078417 95.11363003 225.2523041 92.30847168 229.50793457 C93.06128418 229.52251709 93.81409668 229.53709961 94.58972168 229.55212402 C132.60038064 230.3680385 181.83532148 233.25702726 212.30847168 259.50793457 C216.39443116 264.86639188 217.42027282 270.25401898 217.46960449 276.84558105 C217.47921204 277.8869371 217.48881958 278.92829315 217.49871826 280.00120544 C217.50509308 281.67322777 217.50509308 281.67322777 217.51159668 283.37902832 C217.51729675 284.53411392 217.52299683 285.68919952 217.52886963 286.87928772 C217.53830407 289.31937752 217.54484742 291.75947997 217.54870605 294.19958496 C217.55842687 297.92824478 217.58947198 301.65635679 217.62097168 305.3848877 C217.62750069 307.7579313 217.63275156 310.13097884 217.63659668 312.50402832 C217.64894348 313.61668564 217.66129028 314.72934296 217.67401123 315.87571716 C217.65492425 322.51878546 217.09468408 326.95876823 212.88195801 332.32507324 C209.7519201 334.67806527 206.11401089 334.69143666 202.30847168 334.50793457 C199.35705404 333.61789214 196.80644233 332.19213526 194.12097168 330.69543457 C173.6009013 320.20804751 150.98446393 314.10119447 128.30847168 310.50793457 C127.55372559 310.37951172 126.79897949 310.25108887 126.0213623 310.11877441 C82.2624319 302.85609214 32.35220637 310.66413167 -6.74255371 331.35827637 C-12.05205195 334.08889078 -15.70414546 335.16015493 -21.69152832 334.50793457 C-25.25347894 332.33979072 -27.17206477 330.35582636 -28.69152832 326.50793457 C-28.95895386 323.68470764 -28.95895386 323.68470764 -28.98205566 320.38513184 C-28.99481537 319.14606583 -29.00757507 317.90699982 -29.02072144 316.63038635 C-29.02378156 315.27837277 -29.026008 313.92635708 -29.02746582 312.57434082 C-29.03390083 311.17630377 -29.04062971 309.77826805 -29.04763794 308.38023376 C-29.05961186 305.44563689 -29.06331928 302.51115766 -29.06213379 299.57653809 C-29.061932 295.85140134 -29.0890861 292.1270396 -29.12367821 288.4020853 C-29.14615029 285.5097675 -29.14996501 282.61762916 -29.14891434 279.72523308 C-29.15124561 278.35436299 -29.15992636 276.98348602 -29.17557907 275.61270332 C-29.32501548 261.15777825 -26.00040687 250.25399023 -17.69152832 238.50793457 C-16.68936249 237.06712873 -15.68814017 235.62566636 -14.68762207 234.18371582 C-12.32566734 230.78956827 -9.95182854 227.40409416 -7.57043457 224.02355957 C-3.58765241 218.36770526 0.36229275 212.6893635 4.30847168 207.00793457 C9.29569441 199.83226375 14.29343729 192.66419549 19.30847168 185.50793457 C26.32176371 175.49907047 33.30083997 165.46656619 40.27624512 155.43127441 C44.28376467 149.66649317 48.29391966 143.90354495 52.30358887 138.14025879 C55.66286657 133.31160509 59.02148927 128.48249839 62.37878418 123.65246582 C69.29307373 113.70668595 76.21302985 103.76517777 83.17810059 93.8548584 C86.82723597 88.65366685 90.43437188 83.42435107 94.03186035 78.18737793 C94.54038292 77.44739311 95.04890549 76.70740829 95.57283783 75.94499969 C96.81819857 74.13274727 98.06340591 72.32038965 99.30847168 70.50793457 C98.75316741 70.51346533 98.19786314 70.51899609 97.62573147 70.52469444 C84.09583717 70.65736804 70.56605727 70.75618624 57.03565121 70.8188076 C50.49231145 70.8501101 43.94944146 70.89256536 37.40637207 70.96057129 C31.09101817 71.02579911 24.7761159 71.06164875 18.46045113 71.07719803 C16.05187432 71.08827796 13.64332203 71.10991476 11.23493767 71.14231491 C7.85908621 71.18592118 4.48509691 71.19186656 1.10900879 71.18908691 C0.11494522 71.21065857 -0.87911835 71.23223022 -1.90330505 71.25445557 C-7.85314512 71.20150344 -11.10111958 70.23229394 -15.44232845 66.08945656 C-17.80147867 63.10270636 -17.82437957 60.23106891 -17.85266113 56.58093262 C-17.86226868 55.57946701 -17.87187622 54.5780014 -17.8817749 53.54618835 C-17.88602478 52.46493179 -17.89027466 51.38367523 -17.89465332 50.26965332 C-17.90035339 49.15612991 -17.90605347 48.04260651 -17.91192627 46.89533997 C-17.92137741 44.53745474 -17.9279107 42.1795563 -17.9317627 39.82165527 C-17.94146189 36.22010149 -17.97248232 32.61911987 -18.00402832 29.0177002 C-18.0105591 26.72668796 -18.01580928 24.43567164 -18.01965332 22.14465332 C-18.03200012 21.06946945 -18.04434692 19.99428558 -18.05706787 18.88652039 C-18.02785579 9.04641163 -18.02785579 9.04641163 -14.69152832 4.50793457 C-9.72566148 0.40442002 -6.16152334 -0.06877305 0 0 Z " fill="#000000" transform="translate(1172.6915283203125,7.4920654296875)"/>
<path d="M0 0 C0.83901855 0.22381348 1.67803711 0.44762695 2.54248047 0.67822266 C9.56561953 2.77530082 15.60390036 6.0526361 19.375 12.5 C20.60988817 16.78578835 21.20737597 20.74322964 21.4375 25.1875 C21.47875 25.96351563 21.52 26.73953125 21.5625 27.5390625 C22.71674283 74.14161675 3.64626975 125.59484302 -24.5625 162.1875 C-25.25472656 163.10273437 -25.94695312 164.01796875 -26.66015625 164.9609375 C-31.14127894 170.67332194 -36.05760327 175.93496964 -41.125 181.125 C-41.73819092 181.76429443 -42.35138184 182.40358887 -42.9831543 183.06225586 C-47.0024268 187.09651566 -51.09158726 190.36887045 -56.5625 192.1875 C-60.4375 192.125 -60.4375 192.125 -63.5625 191.1875 C-66.05721204 187.44543194 -66.03284369 184.517786 -65.5625 180.1875 C-64.78225971 177.59203519 -63.97160118 175.2704101 -62.921875 172.796875 C-62.64357849 172.10697983 -62.36528198 171.41708466 -62.07855225 170.70628357 C-61.47915711 169.22076272 -60.87427163 167.73744743 -60.2644043 166.25619507 C-58.62369555 162.25967641 -57.0370079 158.24197174 -55.453125 154.22265625 C-55.12666992 153.39482132 -54.80021484 152.56698639 -54.46386719 151.71406555 C-46.01444473 130.1198613 -38.68166244 107.81073084 -33.5625 85.1875 C-33.29953125 84.05699219 -33.0365625 82.92648437 -32.765625 81.76171875 C-31.58300649 75.85661688 -31.31775563 69.94447559 -31.1875 63.9375 C-31.16123535 63.19201904 -31.1349707 62.44653809 -31.10791016 61.6784668 C-31.0917627 56.09703801 -32.45608615 51.84746177 -35.5625 47.1875 C-47.24988352 36.64034902 -69.30314881 37.80412311 -84.1875 37.875 C-84.95174286 37.87615814 -85.71598572 37.87731628 -86.50338745 37.87850952 C-110.84208234 37.95017768 -135.08493072 40.35673806 -159.23071289 43.27270508 C-173.19600936 44.94343099 -173.19600936 44.94343099 -177.5 42.5625 C-179.5625 40.1875 -179.5625 40.1875 -180.125 37.3125 C-179.19294158 32.13439765 -176.5875301 29.02591864 -172.55859375 25.73046875 C-171.38343266 24.92888765 -170.19642052 24.1444893 -169 23.375 C-168.34725098 22.95049561 -167.69450195 22.52599121 -167.02197266 22.08862305 C-120.34720498 -7.41583289 -52.93852247 -14.35097346 0 0 Z " fill="#FF9900" transform="translate(1322.5625,368.8125)"/>
</svg>
