<?xml version="1.0" encoding="UTF-8"?>
<svg version="1.1" xmlns="http://www.w3.org/2000/svg" width="1737" height="603">
<path d="M0 0 C4.62300032 2.04272107 7.53116635 4.35772467 11 8 C11.94875 8.763125 12.8975 9.52625 13.875 10.3125 C17.08349745 12.92713674 19.67495972 15.95970224 22.35546875 19.1015625 C23.63589527 20.57967958 24.99219087 21.99219087 26.375 23.375 C34.18881702 31.18881702 41.07134364 39.69473445 47.79882812 48.43896484 C48.82439788 49.77178863 49.85681289 51.0993405 50.890625 52.42578125 C53.97392455 56.43562789 56.5219621 60.59024089 59 65 C59.69195965 66.20746061 60.3846726 67.41448982 61.078125 68.62109375 C93.6790194 125.7379204 106.60271324 192.79019781 89.41040039 257.2277832 C84.32950518 275.4898477 77.52747869 292.16515974 68.98657227 309.03808594 C68.31093639 310.38166671 67.64249213 311.72888126 66.98022461 313.07910156 C61.69423591 323.83086588 54.9304151 334.33118238 47.125 343.4375 C44.8390195 345.87934193 44.8390195 345.87934193 44 349 C42.90012941 350.13424155 41.79242458 351.26165207 40.65234375 352.35546875 C35.79847025 357.18639249 31.29759677 362.41011511 26.9375 367.6875 C24.27990614 370.81108292 21.34012503 373.44839372 18.21875 376.1015625 C14.8447085 378.98850646 11.57955601 381.99441713 8.296875 384.984375 C2.58139535 390 2.58139535 390 0 390 C0 390.66 0 391.32 0 392 C-1.64556566 393.03435556 -3.3170608 394.02763513 -5 395 C-5.77988281 395.62648438 -6.55976563 396.25296875 -7.36328125 396.8984375 C-11.65795871 400.3214545 -16.34687406 403.09398017 -21 406 C-22.15555282 406.74254907 -23.31048571 407.48606364 -24.46484375 408.23046875 C-25.62215301 408.96652776 -26.77970071 409.70221203 -27.9375 410.4375 C-28.99839844 411.11683594 -30.05929687 411.79617188 -31.15234375 412.49609375 C-34 414 -34 414 -38 414 C-38 414.66 -38 415.32 -38 416 C-58.35752257 425.89219171 -58.35752257 425.89219171 -68 429 C-68.78246094 429.26022949 -69.56492187 429.52045898 -70.37109375 429.78857422 C-90.60270558 436.51653947 -90.60270558 436.51653947 -100.43481445 438.32397461 C-102.71511235 438.75636144 -104.9877757 439.23277608 -107.24682617 439.76513672 C-120.93774792 442.70963635 -134.75979398 442.45826286 -148.69238281 442.39111328 C-152.27934397 442.37402186 -155.86563738 442.38417122 -159.45257568 442.40143967 C-176.58101078 442.47142378 -192.43254332 441.76430812 -209 437 C-210.53794855 436.74708155 -212.0798581 436.51692599 -213.625 436.3125 C-234.60034397 432.66209483 -256.04372437 423.14099229 -274.4375 412.6875 C-275.89639648 411.87249023 -275.89639648 411.87249023 -277.38476562 411.04101562 C-283.86645495 407.37368706 -289.95564604 403.34389452 -296 399 C-297.051875 398.29875 -298.10375 397.5975 -299.1875 396.875 C-302.52648896 394.64900736 -305.80359045 392.42927126 -309 390 C-309 389.34 -309 388.68 -309 388 C-310.65 387.34 -312.3 386.68 -314 386 C-314 385.34 -314 384.68 -314 384 C-315.0828125 383.6596875 -315.0828125 383.6596875 -316.1875 383.3125 C-319.60331591 381.71845257 -321.37162865 379.71399818 -324 377 C-325.11095329 375.89608974 -326.22437208 374.79465687 -327.33984375 373.6953125 C-328.53910243 372.50524857 -329.73832049 371.31514371 -330.9375 370.125 C-331.53240234 369.53847656 -332.12730469 368.95195312 -332.74023438 368.34765625 C-341.0713926 360.06202348 -341.0713926 360.06202348 -344 356 C-344 355.34 -344 354.68 -344 354 C-344.99 353.67 -345.98 353.34 -347 353 C-347.495 351.515 -347.495 351.515 -348 350 C-349.32742063 348.66078007 -350.66201284 347.32866321 -352 346 C-353.67010164 343.81178102 -355.28973637 341.62241231 -356.875 339.375 C-357.31553711 338.75326904 -357.75607422 338.13153809 -358.20996094 337.4909668 C-369.58655931 321.28495643 -379.10645452 303.32685347 -385.17675781 284.45898438 C-386.0224131 281.93305315 -386.95546473 279.45204666 -387.8984375 276.9609375 C-396.43983495 253.51116768 -398.44687915 229.72731296 -398 205 C-397.34 205 -396.68 205 -396 205 C-396 204.34 -396 203.68 -396 203 C-394.02 202.67 -392.04 202.34 -390 202 C-390 201.34 -390 200.68 -390 200 C-389.31035156 199.62488281 -388.62070312 199.24976563 -387.91015625 198.86328125 C-386.97042969 198.35152344 -386.03070313 197.83976563 -385.0625 197.3125 C-384.06476563 196.76980469 -383.06703125 196.22710937 -382.0390625 195.66796875 C-378.59605083 193.77829525 -375.18200093 191.8406443 -371.77734375 189.8828125 C-370 189 -370 189 -368 189 C-368 188.34 -368 187.68 -368 187 C-367.0409375 186.6596875 -367.0409375 186.6596875 -366.0625 186.3125 C-357.79445358 182.76905153 -349.09657996 178.00086553 -342.01953125 172.4453125 C-340 171 -340 171 -337.6640625 170.0703125 C-333.68680806 168.47241262 -330.21906094 166.07530093 -326.640625 163.74609375 C-322.31527587 161 -322.31527587 161 -319 161 C-319.06942307 161.60155411 -319.13884613 162.20310822 -319.21037292 162.82289124 C-319.88347866 169.01879119 -320.18685991 175.14104962 -320.23828125 181.37109375 C-320.25038887 182.81380394 -320.25038887 182.81380394 -320.26274109 184.28565979 C-320.27648226 186.31175998 -320.28724828 188.33788235 -320.29516602 190.36401367 C-320.30663153 192.39696238 -320.3269961 194.4298823 -320.35668945 196.46264648 C-320.55671821 210.21322681 -319.41573566 222.67325183 -316 236 C-315.63358398 237.55823486 -315.63358398 237.55823486 -315.25976562 239.14794922 C-311.44939791 255.22496999 -304.0956089 271.27639866 -295 285 C-294.2016621 286.22776003 -293.40350278 287.45563619 -292.60546875 288.68359375 C-291.71688703 290.03954851 -290.82755536 291.39501209 -289.9375 292.75 C-289.5137207 293.40073486 -289.08994141 294.05146973 -288.65332031 294.72192383 C-286.35603322 298.18802971 -284.04135977 301.1335028 -281 304 C-279.86478902 305.30367836 -278.73962226 306.61617549 -277.625 307.9375 C-275.41323338 310.50276712 -273.21147425 312.76458789 -270.5625 314.875 C-269.716875 315.57625 -268.87125 316.2775 -268 317 C-268 317.66 -268 318.32 -268 319 C-267.34 319 -266.68 319 -266 319 C-263.70460805 321.17767955 -261.52749938 323.43192374 -259.375 325.75 C-257.90383382 327.25659086 -257.90383382 327.25659086 -255 328 C-254.236875 328.78375 -253.47375 329.5675 -252.6875 330.375 C-249.94190421 333.05674473 -247.48699587 334.45923438 -244 336 C-244 336.66 -244 337.32 -244 338 C-243.13375 338.2475 -242.2675 338.495 -241.375 338.75 C-237.79482713 340.07598995 -235.15813961 341.87308965 -232 344 C-230.33459478 344.73352215 -228.6673729 345.46345838 -226.98754883 346.16333008 C-224.92907308 347.02985709 -222.8971184 347.94442587 -220.86328125 348.8671875 C-181.41360626 366.44381838 -134.06966983 367.28835273 -93.52734375 352.40234375 C-84.15601343 348.78279023 -75.59722003 344.17326515 -67 339 C-65.78880397 338.31715609 -64.57654807 337.636189 -63.36328125 336.95703125 C-60.66346549 335.38605832 -58.25738989 333.80066585 -55.8125 331.875 C-53.86974596 330.34770252 -52.10997129 329.0546796 -49.89453125 327.953125 C-47.80250155 327.02483495 -47.80250155 327.02483495 -45.875 324.875 C-45.25625 324.25625 -44.6375 323.6375 -44 323 C-43.34 323 -42.68 323 -42 323 C-41.78472656 322.44570313 -41.56945312 321.89140625 -41.34765625 321.3203125 C-39.53289173 318.19576141 -37.15315214 316.24721243 -34.4375 313.875 C-30.71412066 310.83511822 -30.71412066 310.83511822 -28 307 C-27.34 307 -26.68 307 -26 307 C-25.62875 306.1646875 -25.62875 306.1646875 -25.25 305.3125 C-23.25594569 301.62349953 -20.48898516 298.58678219 -17.8125 295.375 C-15.83771567 293.05340567 -15.83771567 293.05340567 -15 290 C-14.34 290 -13.68 290 -13 290 C-12.34 288.35 -11.68 286.7 -11 285 C-10.34 285 -9.68 285 -9 285 C-8.92136719 284.32453125 -8.84273438 283.6490625 -8.76171875 282.953125 C-7.77644178 279.13328198 -5.83671693 276.08907534 -3.8125 272.75 C1.00186459 264.49816953 4.17200911 256.0963329 7 247 C7.37898438 245.82824219 7.75796875 244.65648437 8.1484375 243.44921875 C9.21110103 239.98557483 10.13667602 236.51852485 11 233 C11.30035156 231.78699219 11.60070312 230.57398438 11.91015625 229.32421875 C18.39346345 199.62979368 14.24860001 167.24395617 4 139 C3.59910156 137.89398438 3.19820313 136.78796875 2.78515625 135.6484375 C0.29447875 129.2917589 -2.87464574 123.4544806 -6.40966797 117.62963867 C-9 113.30598739 -9 113.30598739 -9 110 C-9.66 110 -10.32 110 -11 110 C-12.5859375 108.0234375 -12.5859375 108.0234375 -14.375 105.375 C-15.30892578 104.00601563 -15.30892578 104.00601563 -16.26171875 102.609375 C-17.58487766 100.62314994 -18.89127616 98.62872451 -20.1875 96.625 C-21.92538941 93.93953223 -21.92538941 93.93953223 -24.25 91.75 C-25.11625 90.88375 -25.11625 90.88375 -26 90 C-26 89.34 -26 88.68 -26 88 C-26.86625 87.62875 -26.86625 87.62875 -27.75 87.25 C-30.32939979 85.81700012 -32.06121592 84.21575324 -34 82 C-34 81.34 -34 80.68 -34 80 C-34.99 79.67 -35.98 79.34 -37 79 C-37 78.34 -37 77.68 -37 77 C-37.639375 76.7525 -38.27875 76.505 -38.9375 76.25 C-41 75 -41 75 -41.76171875 73.1875 C-42.07180606 70.34079683 -41.33942978 69.18779328 -39.875 66.75 C-39.41351563 65.96882813 -38.95203125 65.18765625 -38.4765625 64.3828125 C-36.6792433 61.48237675 -34.87566792 58.58726143 -33.015625 55.7265625 C-31.83835092 53.86244275 -31.83835092 53.86244275 -31 51 C-30.34 51 -29.68 51 -29 51 C-28.74734375 50.14921875 -28.4946875 49.2984375 -28.234375 48.421875 C-26.90856228 44.74652075 -25.2188362 41.62296744 -23.25 38.25 C-22.71983276 37.33855225 -22.71983276 37.33855225 -22.17895508 36.40869141 C-21.1253472 34.60216663 -20.06364059 32.80063143 -19 31 C-18.13181641 29.51886719 -18.13181641 29.51886719 -17.24609375 28.0078125 C-13.39390963 21.50061427 -13.39390963 21.50061427 -11.45703125 19.0390625 C-9.84126403 16.77785476 -9.00442858 14.58561888 -8 12 C-7.03505166 10.25103114 -6.0341629 8.5214542 -5 6.8125 C-4.484375 5.95269531 -3.96875 5.09289063 -3.4375 4.20703125 C-2 2 -2 2 0 0 Z " fill="#000000" transform="translate(415,53)"/>
<path d="M0 0 C0 0.66 0 1.32 0 2 C0.58910156 2.10828125 1.17820312 2.2165625 1.78515625 2.328125 C7.75552965 4.13924356 14.35903502 11.21217275 17.4140625 16.40234375 C18.95636403 18.92852729 20.62672919 20.82903912 22.625 23 C31.78754584 34.31345771 36.92550026 49.73781429 39 64 C39.18046875 65.04671875 39.3609375 66.0934375 39.546875 67.171875 C42.11729114 88.88745962 40.48957533 113.45186328 28 132 C27.67 132.82886719 27.34 133.65773438 27 134.51171875 C25.74251546 137.64069395 23.98289122 140.0896696 22 142.8125 C21.29875 143.78832031 20.5975 144.76414062 19.875 145.76953125 C18.946875 146.87361328 18.946875 146.87361328 18 148 C17.34 148 16.68 148 16 148 C15.938125 148.556875 15.87625 149.11375 15.8125 149.6875 C12.52965471 159.03098276 -4.37038554 168.73146416 -13 173 C-23.14119705 177.59891494 -32.85736733 180.89709022 -44 182 C-45.19625 182.20625 -46.3925 182.4125 -47.625 182.625 C-73.16981491 185.46331277 -96.42461207 177.64229687 -116.3190918 161.87036133 C-122.21241343 157.11318269 -122.21241343 157.11318269 -124 155 C-124 154.34 -124 153.68 -124 153 C-124.87011719 152.6596875 -124.87011719 152.6596875 -125.7578125 152.3125 C-136.40163117 146.081972 -144.90726557 126.8027053 -148.08007812 115.09375 C-148.28052734 114.3203125 -148.48097656 113.546875 -148.6875 112.75 C-148.89955078 111.96109375 -149.11160156 111.1721875 -149.33007812 110.359375 C-149.89696595 108.24204004 -150.45410558 106.12283548 -151 104 C-151.17942139 103.35893311 -151.35884277 102.71786621 -151.54370117 102.05737305 C-155.285652 85.18555942 -153.31933111 66.18434786 -148 50 C-147.51660156 48.52660156 -147.51660156 48.52660156 -147.0234375 47.0234375 C-143.53036347 36.94180107 -138.9331545 27.20801666 -132 19 C-131.34 19 -130.68 19 -130 19 C-129.938125 18.443125 -129.87625 17.88625 -129.8125 17.3125 C-128.6523629 14.01057134 -126.54440205 12.37092009 -124 10 C-123.24847656 9.21496094 -122.49695313 8.42992187 -121.72265625 7.62109375 C-116.9955285 3.07030075 -111.43702489 -0.36203951 -106 -4 C-105.28457031 -4.50015625 -104.56914063 -5.0003125 -103.83203125 -5.515625 C-93.33011137 -12.59154543 -81.29746737 -15.13596284 -69 -17 C-68.10539062 -17.144375 -67.21078125 -17.28875 -66.2890625 -17.4375 C-44.39323082 -20.34724507 -17.32272844 -14.17994401 0 0 Z M-89.78515625 46.484375 C-91.20847684 47.93635795 -91.20847684 47.93635795 -91 50 C-91.66 50 -92.32 50 -93 50 C-102.55617917 66.64498422 -104.22757505 83.69992244 -99.26953125 102.06640625 C-97.70136202 107.2791054 -95.25689502 111.65183366 -92 116 C-91.57589844 116.58007812 -91.15179687 117.16015625 -90.71484375 117.7578125 C-84.17350256 126.12904657 -75.01616093 132.01219163 -64.34912109 133.32666016 C-61.45553518 133.5233503 -58.58757298 133.60627887 -55.6875 133.625 C-54.76904297 133.63571533 -53.85058594 133.64643066 -52.90429688 133.6574707 C-42.2879281 133.43805297 -32.56014748 128.48338016 -25.01953125 121.046875 C-19.79053094 115.2046657 -15.88608001 109.39844646 -13.3125 101.9375 C-12.89613281 100.75027344 -12.47976563 99.56304687 -12.05078125 98.33984375 C-7.608085 84.21900622 -9.7077413 69.91829291 -15.875 56.625 C-18.12657449 52.49711344 -20.79240313 48.44587549 -24 45 C-24.66 45 -25.32 45 -26 45 C-26.24878906 44.40316406 -26.49757813 43.80632812 -26.75390625 43.19140625 C-29.81814447 37.80257351 -36.35106677 34.9454115 -42.0625 33.125 C-60.50009144 28.78065868 -76.52808961 33.13712423 -89.78515625 46.484375 Z " fill="#000000" transform="translate(1112,167)"/>
<path d="M0 0 C0.80953125 0.56332031 1.6190625 1.12664062 2.453125 1.70703125 C6.51493181 4.62556726 6.51493181 4.62556726 8 6 C8 6.66 8 7.32 8 8 C8.88751953 8.4021875 8.88751953 8.4021875 9.79296875 8.8125 C17.03474315 12.70895915 21.56721702 20.34527067 26 27 C26.70125 27.99 27.4025 28.98 28.125 30 C34.06479615 39.50367384 37.02846431 49.29104253 40 60 C40.33 60.99 40.66 61.98 41 63 C44.42618991 94.88701247 39.81739651 122.90914293 19.98046875 148.609375 C16.78790984 152.46311475 16.78790984 152.46311475 15 154 C14.34 154 13.68 154 13 154 C12.74476563 154.59039062 12.48953125 155.18078125 12.2265625 155.7890625 C10.04949774 159.71332573 6.43829421 162.19571749 3 165 C2.03320312 165.79664063 2.03320312 165.79664063 1.046875 166.609375 C-15.93173536 179.99901081 -38.69570019 185.28856652 -60 184 C-61.2478125 183.93167969 -62.495625 183.86335937 -63.78125 183.79296875 C-82.9415675 182.34601263 -101.34401961 174.40964321 -116 162 C-116 161.34 -116 160.68 -116 160 C-116.70125 159.814375 -117.4025 159.62875 -118.125 159.4375 C-122.04135028 157.47932486 -124.5338864 154.59323769 -127 151 C-127 150.34 -127 149.68 -127 149 C-127.66 149 -128.32 149 -129 149 C-130.5078125 147.1015625 -130.5078125 147.1015625 -132.125 144.625 C-132.66382813 143.81289063 -133.20265625 143.00078125 -133.7578125 142.1640625 C-135 140 -135 140 -135 138 C-135.66 138 -136.32 138 -137 138 C-150.92459608 112.81721985 -155.38366156 83.03853104 -148 55 C-144.82045243 44.60307451 -140.52231772 33.7767336 -134 25 C-133.34 25 -132.68 25 -132 25 C-131.92394531 24.443125 -131.84789062 23.88625 -131.76953125 23.3125 C-130.72480446 20.17301643 -128.93538611 18.41344237 -126.6875 16 C-125.90761719 15.154375 -125.12773438 14.30875 -124.32421875 13.4375 C-123.55722656 12.633125 -122.79023437 11.82875 -122 11 C-121.28457031 10.236875 -120.56914063 9.47375 -119.83203125 8.6875 C-118 7 -118 7 -116 7 C-115.773125 6.401875 -115.54625 5.80375 -115.3125 5.1875 C-113.62782583 2.37970972 -111.83547319 1.62990137 -109 0 C-108.05125 -0.61617187 -107.1025 -1.23234375 -106.125 -1.8671875 C-93.74945505 -9.81847513 -81.46384111 -13.80758619 -67 -16 C-66.10539062 -16.144375 -65.21078125 -16.28875 -64.2890625 -16.4375 C-41.94048128 -19.40741112 -18.20355597 -12.89901657 0 0 Z M-84 43 C-84.33 43.99 -84.66 44.98 -85 46 C-85.99 46.33 -86.98 46.66 -88 47 C-94.17042471 53.70013634 -96.87221033 61.29829298 -99 70 C-99.24878906 70.89460938 -99.49757813 71.78921875 -99.75390625 72.7109375 C-102.77653249 85.3717493 -99.48425705 99.45571089 -94 111 C-91.92388921 114.27806966 -89.63290421 117.1557388 -87 120 C-86.28070312 120.80244141 -86.28070312 120.80244141 -85.546875 121.62109375 C-83.39519842 123.90887036 -82.02831881 124.9905604 -79 126 C-79 126.66 -79 127.32 -79 128 C-70.59541893 132.81900894 -63.36196978 134.59892765 -53.6875 134.625 C-52.76952637 134.6353125 -51.85155273 134.645625 -50.90576172 134.65625 C-44.42861164 134.52537488 -39.73098329 132.90795729 -34 130 C-33.0925 129.690625 -32.185 129.38125 -31.25 129.0625 C-28.15076781 127.59897369 -26.33068724 125.50122533 -24 123 C-22.5459375 121.7315625 -22.5459375 121.7315625 -21.0625 120.4375 C-16.72756905 116.10256905 -14.44185284 110.54112761 -12 105 C-11.66742187 104.26910156 -11.33484375 103.53820312 -10.9921875 102.78515625 C-5.65094413 89.27647764 -7.56338504 72.99154494 -12.65625 59.7578125 C-15.09768578 54.74719139 -18.28676842 50.15528296 -22 46 C-22.66 46 -23.32 46 -24 46 C-24.32291016 45.12214844 -24.32291016 45.12214844 -24.65234375 44.2265625 C-27.9826581 38.72430401 -36.21963921 35.17873597 -42.3125 33.5625 C-57.5808666 31.06857442 -71.81673491 33.1095265 -84 43 Z " fill="#000000" transform="translate(1392,166)"/>
<path d="M0 0 C4.83222949 4.13790334 9.4620995 8.5537552 13.25 13.6875 C13.25 14.3475 13.25 15.0075 13.25 15.6875 C13.91 15.6875 14.57 15.6875 15.25 15.6875 C27.48971315 39.22941636 29.56664817 58.87720491 29.45278788 85.04568744 C29.44013443 88.45289975 29.43909867 91.86011705 29.43673706 95.26734924 C29.43056462 101.69488104 29.41421232 108.12234336 29.39403808 114.5498448 C29.37154574 121.87773384 29.36065241 129.2056265 29.35064721 136.53354156 C29.3298414 151.58489949 29.29474952 166.63619274 29.25 181.6875 C22.28996553 181.71276838 15.3299428 181.73033222 8.36987305 181.74243164 C6.00007688 181.74747341 3.63028385 181.75430665 1.26049805 181.76293945 C-2.13754039 181.7750119 -5.53553785 181.78072971 -8.93359375 181.78515625 C-10.00024765 181.79031754 -11.06690155 181.79547882 -12.1658783 181.80079651 C-13.14681961 181.80087204 -14.12776093 181.80094757 -15.13842773 181.80102539 C-16.00668686 181.803246 -16.87494598 181.80546661 -17.76951599 181.80775452 C-19.75 181.6875 -19.75 181.6875 -20.75 180.6875 C-20.85139772 179.17705738 -20.88351878 177.66190683 -20.88803101 176.14807129 C-20.89348434 175.16683289 -20.89893768 174.18559448 -20.90455627 173.17462158 C-20.9055986 172.08896912 -20.90664093 171.00331665 -20.90771484 169.88476562 C-20.91279556 168.74815491 -20.91787628 167.61154419 -20.92311096 166.44049072 C-20.93384393 163.96158123 -20.94245253 161.48266187 -20.94923019 159.0037384 C-20.96098538 155.07775763 -20.98043185 151.15188856 -21.00234985 147.22595215 C-21.06428599 136.05952958 -21.11817533 124.89311014 -21.15136719 113.7265625 C-21.17173538 106.90424518 -21.20767452 100.08213526 -21.25212479 93.25993347 C-21.26627135 90.66052102 -21.27500417 88.06107316 -21.27817917 85.46162415 C-21.28310092 81.81600137 -21.30629528 78.17090585 -21.33349609 74.52539062 C-21.33048996 73.45593201 -21.32748383 72.38647339 -21.3243866 71.28460693 C-21.41293498 63.27192248 -22.71877328 56.09998551 -27.3125 49.375 C-28.61487385 47.4396968 -29.76837935 45.64779773 -30.75 43.52734375 C-32.18161331 40.89339895 -33.98058848 40.63315271 -36.75 39.6875 C-38.235 38.6975 -38.235 38.6975 -39.75 37.6875 C-51.05689826 33.87142184 -64.39991947 34.77466033 -75.17578125 39.82421875 C-84.4739781 45.3751197 -90.73032843 53.81703993 -93.40365601 64.31208801 C-94.81936609 70.31447714 -95.18528802 75.9838063 -95.16650391 82.1315918 C-95.17508926 83.20463058 -95.18367462 84.27766937 -95.19252014 85.38322449 C-95.21735659 88.8844582 -95.22193729 92.38540541 -95.2265625 95.88671875 C-95.24088668 98.33340813 -95.25664622 100.7800895 -95.27377319 103.22676086 C-95.31544033 109.63282693 -95.34056753 116.03884318 -95.36126709 122.44500732 C-95.39723027 132.73670999 -95.45791346 143.02829037 -95.51975632 153.31986427 C-95.53889021 156.91683034 -95.55058337 160.51376338 -95.56118774 164.11076355 C-95.57139141 166.29609248 -95.5817486 168.4814207 -95.59228516 170.66674805 C-95.59384865 172.17594818 -95.59384865 172.17594818 -95.59544373 173.71563721 C-95.60089706 174.6252269 -95.6063504 175.53481659 -95.61196899 176.4719696 C-95.61452509 177.26663981 -95.61708118 178.06131002 -95.61971474 178.88006115 C-95.75 180.6875 -95.75 180.6875 -96.75 181.6875 C-98.24870048 181.78581146 -99.75198539 181.81548456 -101.25390625 181.81689453 C-102.69044556 181.82162277 -102.69044556 181.82162277 -104.15600586 181.82644653 C-105.19764893 181.8244223 -106.23929199 181.82239807 -107.3125 181.8203125 C-108.37412354 181.82126923 -109.43574707 181.82222595 -110.52954102 181.82321167 C-112.77913472 181.82389364 -115.02873037 181.82203819 -117.27832031 181.81787109 C-120.73507071 181.8125231 -124.19169117 181.81781554 -127.6484375 181.82421875 C-129.82812529 181.82355797 -132.007813 181.82227682 -134.1875 181.8203125 C-135.22914307 181.82233673 -136.27078613 181.82436096 -137.34399414 181.82644653 C-138.30168701 181.82329437 -139.25937988 181.82014221 -140.24609375 181.81689453 C-141.09357178 181.81609894 -141.9410498 181.81530334 -142.81420898 181.81448364 C-144.75 181.6875 -144.75 181.6875 -145.75 180.6875 C-145.84770695 178.22118729 -145.87996098 175.78291002 -145.87025452 173.31614685 C-145.87110894 172.53533392 -145.87196337 171.754521 -145.87284368 170.95004708 C-145.87450086 168.3135991 -145.86897326 165.67721368 -145.86352539 163.04077148 C-145.86324354 161.15887453 -145.8634012 159.27697746 -145.8639679 157.39508057 C-145.86425597 152.26926065 -145.85835767 147.14346392 -145.85139394 142.01764941 C-145.84516202 136.66712736 -145.84455673 131.31660483 -145.84336853 125.96607971 C-145.84025474 115.82651642 -145.8320407 105.68696386 -145.82201904 95.5474053 C-145.81085939 84.00709526 -145.80534783 72.46678472 -145.80032361 60.92647064 C-145.78985812 37.18013977 -145.77151205 13.43382361 -145.75 -10.3125 C-132.55 -10.3125 -119.35 -10.3125 -105.75 -10.3125 C-103.98090416 -5.88976041 -102.84132045 -1.9116362 -101.75 2.6875 C-100.87859375 2.09582031 -100.0071875 1.50414062 -99.109375 0.89453125 C-70.06356256 -18.51589148 -28.76948057 -22.62148199 0 0 Z " fill="#000000" transform="translate(1677.75,164.3125)"/>
<path d="M0 0 C11.30269042 10.43191304 20.95685344 23.75660222 24 39 C24.24492188 39.90621094 24.48984375 40.81242187 24.7421875 41.74609375 C26.31789295 47.75628454 27.27100558 53.63209484 27.58154297 59.83374023 C27.62167952 60.60253478 27.66181606 61.37132933 27.70316887 62.16342068 C28.22530475 73.36320307 28.14383731 84.57608532 28.1328125 95.78515625 C28.13348752 98.22326161 28.13445919 100.66136691 28.13571167 103.09947205 C28.13717458 108.1663376 28.13507656 113.23318536 28.13037109 118.30004883 C28.12462248 124.80799016 28.12799373 131.3158907 28.13394356 137.8238306 C28.13754323 142.83788872 28.13641424 147.85193701 28.13381577 152.86599541 C28.13314752 155.2682947 28.13397137 157.67059488 28.13629532 160.07289314 C28.13881762 163.40677418 28.13498966 166.74058698 28.12939453 170.07446289 C28.13141876 171.07117004 28.13344299 172.0678772 28.13552856 173.0947876 C28.13270874 173.99570633 28.12988892 174.89662506 28.12698364 175.82484436 C28.1264181 177.00516031 28.1264181 177.00516031 28.12584114 178.20932102 C28 180 28 180 27 181 C25.4651703 181.09319449 23.92607918 181.117458 22.38842773 181.11352539 C21.40748642 181.11344986 20.4265451 181.11337433 19.4158783 181.11329651 C18.3492244 181.10813522 17.2825705 181.10297394 16.18359375 181.09765625 C14.55430687 181.09553383 14.55430687 181.09553383 12.8921051 181.09336853 C9.40720925 181.08775048 5.92237658 181.07519492 2.4375 181.0625 C0.08138113 181.05748733 -2.27473874 181.05292402 -4.63085938 181.04882812 C-10.42059464 181.03777519 -16.21029281 181.02101951 -22 181 C-22.00054477 180.42206947 -22.00108953 179.84413895 -22.00165081 179.24869537 C-22.01669023 165.11449751 -22.05942365 150.98060302 -22.13209057 136.84658051 C-22.16658204 130.01112889 -22.19207508 123.17587562 -22.19555664 116.34033203 C-22.19894825 109.7330209 -22.22851107 103.12614726 -22.27343178 96.51896667 C-22.28633515 94.00907805 -22.29074015 91.49912964 -22.28615379 88.98921204 C-21.91981321 64.79538027 -21.91981321 64.79538027 -32.33984375 43.54296875 C-40.04970196 36.37733583 -48.53872226 34.55938085 -58.828125 34.7421875 C-65.99145545 35.32442865 -72.25151655 36.65210044 -78 41 C-78.99 41 -79.98 41 -81 41 C-81 41.66 -81 42.32 -81 43 C-83.5 45 -83.5 45 -86 47 C-92.81580059 53.98203963 -96.08968781 63.07247957 -96.15148926 72.80180359 C-96.16400475 74.20873474 -96.16400475 74.20873474 -96.17677307 75.64408875 C-96.18095749 76.66090225 -96.18514191 77.67771576 -96.18945312 78.7253418 C-96.19774643 79.80550568 -96.20603973 80.88566956 -96.21458435 81.99856567 C-96.23196166 84.34045142 -96.24713477 86.68235433 -96.26036072 89.0242672 C-96.28140227 92.72600704 -96.3084218 96.4276602 -96.33703613 100.12934875 C-96.40176124 108.65066173 -96.45769817 117.17202706 -96.51302338 125.69340515 C-96.5678991 134.13322072 -96.62654008 142.57299337 -96.69187927 151.01273537 C-96.71852094 154.66779304 -96.73929124 158.32285502 -96.7598877 161.97795105 C-96.77648355 164.20625015 -96.79335476 166.43454722 -96.81054688 168.6628418 C-96.81473129 169.685728 -96.81891571 170.7086142 -96.82322693 171.76249695 C-96.83574242 173.15673889 -96.83574242 173.15673889 -96.84851074 174.57914734 C-96.85366447 175.38936183 -96.85881821 176.19957632 -96.86412811 177.03434277 C-97 179 -97 179 -98 181 C-104.81761894 181.0252689 -111.63522589 181.04283244 -118.45288086 181.05493164 C-120.77417451 181.05997333 -123.09546497 181.06680651 -125.41674805 181.07543945 C-128.74528795 181.08751225 -132.07378602 181.09322979 -135.40234375 181.09765625 C-136.96951393 181.10539818 -136.96951393 181.10539818 -138.56834412 181.11329651 C-139.52926468 181.11337204 -140.49018524 181.11344757 -141.48022461 181.11352539 C-142.33071884 181.115746 -143.18121307 181.11796661 -144.05747986 181.12025452 C-146 181 -146 181 -147 180 C-147.09770695 177.53368729 -147.12996098 175.09541002 -147.12025452 172.62864685 C-147.12110894 171.84783392 -147.12196337 171.067021 -147.12284368 170.26254708 C-147.12450086 167.6260991 -147.11897326 164.98971368 -147.11352539 162.35327148 C-147.11324354 160.47137453 -147.1134012 158.58947746 -147.1139679 156.70758057 C-147.11425597 151.58176065 -147.10835767 146.45596392 -147.10139394 141.33014941 C-147.09516202 135.97962736 -147.09455673 130.62910483 -147.09336853 125.27857971 C-147.09025474 115.13901642 -147.0820407 104.99946386 -147.07201904 94.8599053 C-147.06085939 83.31959526 -147.05534783 71.77928472 -147.05032361 60.23897064 C-147.03985812 36.49263977 -147.02151205 12.74632361 -147 -11 C-134.13 -11 -121.26 -11 -108 -11 C-105.525 -4.565 -105.525 -4.565 -103 2 C-102.01 1.01 -101.02 0.02 -100 -1 C-97.11606227 -2.87892912 -94.05822267 -4.42455196 -91 -6 C-90.01386719 -6.51175781 -89.02773438 -7.02351562 -88.01171875 -7.55078125 C-80.1703891 -11.4092133 -72.60722966 -13.5725634 -64 -15 C-63.2265625 -15.13148438 -62.453125 -15.26296875 -61.65625 -15.3984375 C-40.1527137 -18.55570275 -17.51644202 -12.64682386 0 0 Z " fill="#000000" transform="translate(834,165)"/>
<path d="M0 0 C1.7020459 -0.00855011 1.7020459 -0.00855011 3.43847656 -0.01727295 C5.83902053 -0.02670413 8.23957733 -0.03324944 10.64013672 -0.03710938 C14.27204708 -0.04676743 17.90337967 -0.07779004 21.53515625 -0.109375 C33.19626353 -0.16275989 44.04990639 -0.10562445 55.3125 3.203125 C56.74359356 3.5505458 58.17572876 3.89373672 59.609375 4.23046875 C66.73492249 6.10858251 73.56830152 8.21980897 80.3125 11.203125 C80.47086874 15.48627951 79.90973912 17.70684157 77.3125 21.203125 C76.6525 21.203125 75.9925 21.203125 75.3125 21.203125 C75.24546875 21.85667969 75.1784375 22.51023437 75.109375 23.18359375 C73.99118022 27.42067497 71.82891266 30.7917649 69.5625 34.515625 C68.91667969 35.5974707 68.91667969 35.5974707 68.2578125 36.70117188 C65.69578109 40.97761652 63.07049937 45.21260516 60.41088867 49.42895508 C59.01495426 51.68373511 57.7082508 53.98687357 56.40625 56.296875 C55.09696919 58.5787644 53.73670606 60.82714152 52.375 63.078125 C49.57518594 67.72806744 46.92285667 72.4450065 44.3125 77.203125 C43.37587403 78.89111027 42.43839509 80.57862258 41.5 82.265625 C40.87158203 83.39677734 40.87158203 83.39677734 40.23046875 84.55078125 C39.92753906 85.09605469 39.62460937 85.64132813 39.3125 86.203125 C33.54119398 85.44239518 27.96303375 84.25260414 22.30078125 82.921875 C3.37087633 79.12142085 -18.77199863 79.64256004 -37.6875 83.203125 C-38.37312012 83.33203125 -39.05874023 83.4609375 -39.76513672 83.59375 C-51.80862319 85.93681965 -62.43431256 89.96853617 -73.375 95.578125 C-76.6875 97.203125 -76.6875 97.203125 -79.6875 97.203125 C-79.06036284 94.18039133 -78.06915662 91.87082782 -76.5 89.21875 C-76.05293701 88.45618896 -75.60587402 87.69362793 -75.14526367 86.90795898 C-74.66420166 86.09786377 -74.18313965 85.28776855 -73.6875 84.453125 C-72.68271685 82.74139986 -71.67882454 81.0291515 -70.67578125 79.31640625 C-69.92095459 78.02984131 -69.92095459 78.02984131 -69.15087891 76.71728516 C-67.01573804 73.04900343 -64.94245777 69.34734228 -62.875 65.640625 C-60.02564683 60.54431759 -57.11897414 55.49487696 -54.07421875 50.51171875 C-53.0217767 48.75962508 -51.99973142 46.98922931 -50.9921875 45.2109375 C-47.16454664 38.48436185 -43.09539603 31.89565123 -39.08789062 25.27539062 C-38.43884766 24.19837891 -37.78980469 23.12136719 -37.12109375 22.01171875 C-36.53384521 21.04032959 -35.94659668 20.06894043 -35.34155273 19.06811523 C-33.29638763 15.52567797 -31.40792135 11.93477998 -29.8359375 8.15625 C-28.5385169 5.29930362 -27.61070657 3.58720712 -24.640625 2.3515625 C-22.31951934 1.82970317 -20.04924558 1.48592301 -17.6875 1.203125 C-16.88876465 1.03635254 -16.0900293 0.86958008 -15.26708984 0.69775391 C-10.17662121 -0.00564873 -5.13339993 0.02011789 0 0 Z " fill="#000000" transform="translate(258.6875,-0.203125)"/>
</svg>
