<?xml version="1.0" encoding="UTF-8"?>
<svg version="1.1" xmlns="http://www.w3.org/2000/svg" width="1383" height="603">
<path d="M0 0 C1.66619787 0.66783746 3.33269997 1.33491892 5 2 C5 2.66 5 3.32 5 4 C5.66773438 4.07347656 6.33546875 4.14695312 7.0234375 4.22265625 C11.03135774 5.26934408 14.13180307 7.25766325 17.625 9.4375 C18.29273438 9.84548828 18.96046875 10.25347656 19.6484375 10.67382812 C22.46847217 12.40250938 25.24720388 14.16480259 28 16 C28 16.66 28 17.32 28 18 C28.804375 18.268125 29.60875 18.53625 30.4375 18.8125 C31.283125 19.204375 32.12875 19.59625 33 20 C33.33 20.99 33.66 21.98 34 23 C34.66 23 35.32 23 36 23 C36 23.66 36 24.32 36 25 C36.55816406 25.23332031 37.11632812 25.46664062 37.69140625 25.70703125 C44.7835578 29.67911613 50.7303091 37.16849456 55 44 C55 44.66 55 45.32 55 46 C55.66 46 56.32 46 57 46 C66.08992558 62.18985872 74.19754956 77.14340441 78.1875 95.4375 C78.35451416 96.18765381 78.52152832 96.93780762 78.69360352 97.71069336 C92.19513535 162.7584749 81 230.56578257 81 297 C-143.73 297 -368.46 297 -600 297 C-600 267.63 -600 238.26 -600 208 C-547.86 208 -495.72 208 -442 208 C-441.73044466 177.4499722 -441.73044466 177.4499722 -447.4375 147.375 C-447.64181641 146.72144531 -447.84613281 146.06789062 -448.05664062 145.39453125 C-449.29226922 141.58371409 -450.9448978 138.41518442 -453 135 C-453 134.01 -453 133.02 -453 132 C-453.66 132 -454.32 132 -455 132 C-456.26171875 130.4609375 -456.26171875 130.4609375 -457.6875 128.375 C-462.14040601 122.25360853 -467.02451967 118.062406 -474 115 C-474 114.34 -474 113.68 -474 113 C-474.67289062 112.87625 -475.34578125 112.7525 -476.0390625 112.625 C-480.82033569 111.61576028 -485.50295069 110.24154523 -490.2109375 108.9375 C-506.13531894 104.99744686 -522.11370658 107.08638356 -538 110 C-538.81823242 110.14985352 -539.63646484 110.29970703 -540.47949219 110.45410156 C-549.85037846 112.21324362 -558.96950385 114.39343767 -568.01464844 117.42529297 C-570.82341979 118.36376172 -573.01198294 119 -576 119 C-576 91.94 -576 64.88 -576 37 C-554.89988591 29.96662864 -554.89988591 29.96662864 -544.125 27.75 C-542.92738037 27.50040527 -541.72976074 27.25081055 -540.49584961 26.99365234 C-510.66574703 20.97692684 -481.30516096 21.60411964 -452 30 C-450.47052734 30.42732422 -450.47052734 30.42732422 -448.91015625 30.86328125 C-435.68623864 34.89258232 -422.17696525 41.84693973 -411 50 C-411 50.66 -411 51.32 -411 52 C-410.28457031 52.2371875 -409.56914062 52.474375 -408.83203125 52.71875 C-405.53979589 54.20820269 -403.35249153 56.06794847 -400.6875 58.5 C-399.80449219 59.2940625 -398.92148437 60.088125 -398.01171875 60.90625 C-396 63 -396 63 -396 65 C-395.34 65 -394.68 65 -394 65 C-394 65.66 -394 66.32 -394 67 C-393.34 67 -392.68 67 -392 67 C-392 67.66 -392 68.32 -392 69 C-391.34 69 -390.68 69 -390 69 C-388.70654297 70.33837891 -388.70654297 70.33837891 -387.2421875 72.2265625 C-386.70263428 72.92209229 -386.16308105 73.61762207 -385.60717773 74.33422852 C-384.74974976 75.4681604 -384.74974976 75.4681604 -383.875 76.625 C-383.29113525 77.39320068 -382.70727051 78.16140137 -382.10571289 78.95288086 C-369.89557833 95.29552052 -359.72196776 114.91543965 -355.625 135 C-355.39200195 136.11713379 -355.39200195 136.11713379 -355.15429688 137.25683594 C-352.18687351 153.25246737 -352.87190533 169.87454911 -352.9375 186.0625 C-352.958125 193.301875 -352.97875 200.54125 -353 208 C-317.855 207.505 -317.855 207.505 -282 207 C-283.65 201.72 -285.3 196.44 -287 191 C-293.7913602 162.81585518 -291.81222721 128.69646266 -276.89453125 103.30078125 C-262.10051642 79.2524459 -242.22675821 62.27781091 -216 52 C-214.74316406 51.46439453 -214.74316406 51.46439453 -213.4609375 50.91796875 C-210.18072844 49.6943987 -206.83102134 48.83936373 -203.4375 48 C-202.4774707 47.7525 -202.4774707 47.7525 -201.49804688 47.5 C-193.21678319 45.4317039 -184.96864895 43.9567559 -176.421875 43.75390625 C-164.19040505 44.20435134 -164.19040505 44.20435134 -153.609375 39.42578125 C-151.70997299 36.67868315 -150.3435601 34.04336719 -149 31 C-148.34 31 -147.68 31 -147 31 C-147 30.34 -147 29.68 -147 29 C-146.34 29 -145.68 29 -145 29 C-144.773125 28.443125 -144.54625 27.88625 -144.3125 27.3125 C-142.62449964 24.33840412 -140.53323483 22.27991135 -138 20 C-137.34 20 -136.68 20 -136 20 C-136 19.34 -136 18.68 -136 18 C-130.58823529 14 -130.58823529 14 -128 14 C-128 13.34 -128 12.68 -128 12 C-91.68365525 -15.02806303 -40.65190068 -16.7357689 0 0 Z M-78 78 C-77.67 78.99 -77.34 79.98 -77 81 C-76.34 81 -75.68 81 -75 81 C-74.75378906 81.70898438 -74.50757813 82.41796875 -74.25390625 83.1484375 C-72.84047828 86.36277526 -71.04052105 88.81355386 -68.9375 91.625 C-49.72997019 118.4046156 -46.43074624 149.87871264 -46.25 181.875 C-46.2217588 184.42449864 -46.19182046 186.97397907 -46.16015625 189.5234375 C-46.08416829 195.68246199 -46.04274599 201.84030321 -46 208 C-31.48 208 -16.96 208 -2 208 C-1.88351705 191.4082301 -1.88351705 191.4082301 -1.8046875 174.81640625 C-1.78084315 168.04202631 -1.75273732 161.26786411 -1.69824219 154.49365234 C-1.65455 149.02768325 -1.63081367 143.56194792 -1.62049103 138.09581757 C-1.61314145 136.01796544 -1.59879018 133.94012505 -1.57707977 131.86237335 C-1.42415622 116.61053254 -2.386922 104.49457997 -12 92 C-12.43957031 91.39671875 -12.87914062 90.7934375 -13.33203125 90.171875 C-21.43976065 79.7977198 -33.08271545 73.72984912 -46 72 C-57.31794526 71.33272885 -68.24955778 71.71677279 -78 78 Z M-195 132 C-195 132.66 -195 133.32 -195 134 C-195.598125 134.26554688 -196.19625 134.53109375 -196.8125 134.8046875 C-202.92736589 138.14602493 -206.38479501 144.78162369 -209 151 C-209.30035156 151.69996094 -209.60070312 152.39992187 -209.91015625 153.12109375 C-213.56357567 162.65396955 -212.821933 172.61433503 -209 182 C-206.67855185 186.53524595 -204.05417056 190.92128814 -201 195 C-200.34 195 -199.68 195 -199 195 C-199 195.66 -199 196.32 -199 197 C-188.28625481 207.04413611 -174.6727692 208.17822794 -160.71484375 208.09765625 C-159.77314835 208.0962413 -158.83145294 208.09482635 -157.86122131 208.09336853 C-154.88661368 208.08782122 -151.91208445 208.07527887 -148.9375 208.0625 C-146.90690214 208.05747818 -144.87630308 208.05291647 -142.84570312 208.04882812 C-137.89710572 208.03786912 -132.9485661 208.02064152 -128 208 C-127.89759962 201.54465469 -127.82812031 195.0895229 -127.78027344 188.63354492 C-127.76030258 186.4427101 -127.73311622 184.25192757 -127.69824219 182.0612793 C-127.42109954 164.18965395 -128.19667515 150.3930532 -140.3125 136.3125 C-157.51156847 121.51330155 -175.4801994 121.33454194 -195 132 Z " fill="#212B37" transform="translate(616,53)"/>
<path d="M0 0 C29.37 0 58.74 0 89 0 C89 86.13 89 172.26 89 261 C261.59 261 434.18 261 612 261 C612 301.59 612 342.18 612 384 C582.63 384 553.26 384 523 384 C523 372.78 523 361.56 523 350 C350.41 350 177.82 350 0 350 C0 234.5 0 119 0 0 Z " fill="#212B37" transform="translate(760,0)"/>
<path d="M0 0 C0.88171875 -0.01611328 1.7634375 -0.03222656 2.671875 -0.04882812 C15.06314195 -0.05791263 26.81610192 4.82676199 36.625 12.3125 C36.625 12.9725 36.625 13.6325 36.625 14.3125 C37.285 14.3125 37.945 14.3125 38.625 14.3125 C38.625 14.9725 38.625 15.6325 38.625 16.3125 C39.285 16.3125 39.945 16.3125 40.625 16.3125 C40.625 16.9725 40.625 17.6325 40.625 18.3125 C41.285 18.3125 41.945 18.3125 42.625 18.3125 C44.03441913 20.32937578 45.31133007 22.32543333 46.5625 24.4375 C46.90990234 25.00726563 47.25730469 25.57703125 47.61523438 26.1640625 C55.75592354 39.65522345 58.26425832 54.76976609 54.5 70.25 C52.63526578 75.99444192 49.74020278 81.16137729 46.625 86.3125 C46.22667969 86.98023438 45.82835937 87.64796875 45.41796875 88.3359375 C44.375 90 44.375 90 42.625 92.3125 C41.965 92.3125 41.305 92.3125 40.625 92.3125 C40.625 92.9725 40.625 93.6325 40.625 94.3125 C39.965 94.3125 39.305 94.3125 38.625 94.3125 C38.625 94.9725 38.625 95.6325 38.625 96.3125 C37.965 96.3125 37.305 96.3125 36.625 96.3125 C36.625 96.9725 36.625 97.6325 36.625 98.3125 C25.96813028 107.48924892 11.19515989 111.93286031 -2.71875 111.55859375 C-18.14427116 110.12946458 -31.75808206 103.46797531 -42.375 92.1875 C-51.77921863 80.83758097 -56.08258831 66.59817439 -55.7265625 51.96875 C-54.77835448 42.10738656 -52.05116084 32.50802635 -46.375 24.3125 C-45.81039063 23.49265625 -45.24578125 22.6728125 -44.6640625 21.828125 C-33.63733143 6.97579335 -18.19459483 -0.06592245 0 0 Z " fill="#0098FE" transform="translate(1316.375,75.6875)"/>
<path d="M0 0 C0 0.66 0 1.32 0 2 C1.3303125 2.37125 1.3303125 2.37125 2.6875 2.75 C6.13156256 4.04964625 8.33024803 5.48729227 11 8 C11 8.66 11 9.32 11 10 C11.66 10 12.32 10 13 10 C13.99 12.475 13.99 12.475 15 15 C15.66 15 16.32 15 17 15 C25.79099512 25.72449845 29.61674733 41.31844109 28.30859375 54.94726562 C27.17459845 62.49048749 24.6229191 70.29590671 21 77 C20.34 77 19.68 77 19 77 C18.88527344 77.58265625 18.77054688 78.1653125 18.65234375 78.765625 C17.95175938 81.16523135 17.01807405 82.72860933 15.5625 84.75 C15.13066406 85.36359375 14.69882813 85.9771875 14.25390625 86.609375 C13.63322266 87.29773438 13.63322266 87.29773438 13 88 C12.34 88 11.68 88 11 88 C11 88.66 11 89.32 11 90 C7.84320111 92.57879346 4.40193799 94.75884144 1 97 C0.40574219 97.40992188 -0.18851563 97.81984375 -0.80078125 98.2421875 C-6.04348205 101.59855675 -11.97773022 102.71185783 -18 104 C-18.85335938 104.18691406 -19.70671875 104.37382812 -20.5859375 104.56640625 C-34.83328517 107.12539588 -48.62012968 102.05535932 -60.46875 94.40625 C-71.76696107 86.20343923 -80.27690923 73.43248235 -82.75390625 59.56640625 C-84.39107015 42.49312559 -81.16778094 27.47217365 -71.1171875 13.35546875 C-52.84638076 -8.35498379 -24.79199995 -10.91757796 0 0 Z " fill="#00CC98" transform="translate(1170,82)"/>
<path d="M0 0 C11.22064515 7.67728352 19.53703975 18.84648399 23.43359375 32.00390625 C26.44413778 49.33790821 24.0917438 64.70659951 14.51953125 79.5859375 C9.77310004 86.22839619 2.80446819 91.13035454 -3.9375 95.625 C-4.9275 95.625 -5.9175 95.625 -6.9375 95.625 C-6.9375 96.285 -6.9375 96.945 -6.9375 97.625 C-22.17372402 103.94947035 -37.08422467 104.31420782 -52.4921875 98.21875 C-67.98061699 91.03374551 -76.92948418 80.26393629 -84.10546875 65.16796875 C-88.52109952 51.6723085 -88.04836748 35.96537743 -81.75 23.25 C-77.237539 14.97248354 -71.89019274 6.97575633 -63.9375 1.625 C-63.2775 1.625 -62.6175 1.625 -61.9375 1.625 C-61.9375 0.965 -61.9375 0.305 -61.9375 -0.375 C-59.91977749 -1.3398658 -57.89815793 -2.29658397 -55.875 -3.25 C-54.74964844 -3.78367187 -53.62429688 -4.31734375 -52.46484375 -4.8671875 C-35.01307444 -12.32719077 -15.9474772 -9.54693567 0 0 Z " fill="#00D258" transform="translate(998.9375,84.375)"/>
</svg>
