<?xml version="1.0" encoding="UTF-8"?>
<svg version="1.1" xmlns="http://www.w3.org/2000/svg" width="1257" height="603">
<path d="M0 0 C1.39750704 -0.00322549 2.79501376 -0.00659045 4.19252014 -0.01008606 C7.11313659 -0.01604114 10.03372362 -0.01792995 12.9543457 -0.01733398 C15.90883555 -0.01725308 18.86316916 -0.02414248 21.81762695 -0.0378418 C37.80407007 -0.11085493 53.60826888 -0.07614019 69.47265625 2.16796875 C70.50672607 2.29905029 71.5407959 2.43013184 72.60620117 2.56518555 C75.10796943 2.88630536 77.60255561 3.23649504 80.09765625 3.60546875 C80.97188232 3.73324707 81.8461084 3.86102539 82.74682617 3.99267578 C95.04204963 5.8164281 107.22980808 8.06812724 119.41015625 10.54296875 C120.33803955 10.72778809 121.26592285 10.91260742 122.22192383 11.10302734 C137.07699494 14.18001242 151.56921636 18.70144144 165.97949219 23.39746094 C168.36577487 24.17386384 170.75499601 24.94070516 173.14453125 25.70703125 C181.76960759 28.49366625 190.15422345 31.54960138 198.47265625 35.16796875 C199.93651323 35.76475996 201.40248405 36.35640835 202.87109375 36.94140625 C210.73475908 40.09981112 218.36296293 43.49217935 225.90625 47.37109375 C228.38750491 48.62123313 230.855852 49.81752067 233.3828125 50.96484375 C245.1750587 56.31972255 256.3293298 62.57802893 267.47265625 69.16796875 C268.35920898 69.68955566 269.24576172 70.21114258 270.15917969 70.74853516 C272.70759803 72.25288162 275.24802713 73.76967388 277.78515625 75.29296875 C278.56238037 75.75421143 279.33960449 76.2154541 280.14038086 76.69067383 C281.95325545 77.79350414 283.71902051 78.97318396 285.47265625 80.16796875 C285.47265625 80.82796875 285.47265625 81.48796875 285.47265625 82.16796875 C286.13265625 82.39484375 286.79265625 82.62171875 287.47265625 82.85546875 C291.35924253 84.55585025 295.10945442 86.56419959 298.47265625 89.16796875 C298.47265625 89.82796875 298.47265625 90.48796875 298.47265625 91.16796875 C299.49359375 91.50828125 299.49359375 91.50828125 300.53515625 91.85546875 C304.17152715 93.48023021 307.50094888 95.49600132 310.47265625 98.16796875 C310.47265625 98.82796875 310.47265625 99.48796875 310.47265625 100.16796875 C311.02953125 100.41675781 311.58640625 100.66554688 312.16015625 100.921875 C314.87450375 102.38450482 317.08737012 104.15287934 319.47265625 106.10546875 C323.06266954 109.03820616 323.06266954 109.03820616 326.78515625 111.796875 C327.34203125 112.24933594 327.89890625 112.70179687 328.47265625 113.16796875 C328.47265625 113.82796875 328.47265625 114.48796875 328.47265625 115.16796875 C329.33890625 115.26078125 329.33890625 115.26078125 330.22265625 115.35546875 C333.38766407 116.49838824 334.39689153 118.51560272 336.47265625 121.16796875 C337.68100483 122.27447474 338.91268464 123.3557652 340.16015625 124.41796875 C347.41327235 130.63299946 354.7450049 137.48812755 360.47265625 145.16796875 C360.47265625 145.82796875 360.47265625 146.48796875 360.47265625 147.16796875 C361.13265625 147.16796875 361.79265625 147.16796875 362.47265625 147.16796875 C390.46455435 176.58460418 407.70171292 217.73292436 406.82421875 258.09765625 C406.51666746 265.31736755 405.13559025 271.42303725 402.47265625 278.16796875 C402.12203125 279.22242188 401.77140625 280.276875 401.41015625 281.36328125 C399.17382436 287.80826551 396.25245817 293.63013195 392.78515625 299.48046875 C392.39239502 300.14554443 391.99963379 300.81062012 391.5949707 301.49584961 C390.61523412 303.09232457 389.55094506 304.63633259 388.47265625 306.16796875 C387.81265625 306.16796875 387.15265625 306.16796875 386.47265625 306.16796875 C386.00859375 307.09609375 386.00859375 307.09609375 385.53515625 308.04296875 C384.84765625 309.41796875 384.16015625 310.79296875 383.47265625 312.16796875 C382.81265625 312.16796875 382.15265625 312.16796875 381.47265625 312.16796875 C381.22 312.73644531 380.96734375 313.30492187 380.70703125 313.890625 C377.2275635 320.31002278 371.31097342 325.85873465 365.47265625 330.16796875 C364.81265625 330.16796875 364.15265625 330.16796875 363.47265625 330.16796875 C363.14265625 331.15796875 362.81265625 332.14796875 362.47265625 333.16796875 C361.00488281 334.4831543 361.00488281 334.4831543 359.11328125 335.8046875 C358.06805298 336.54102417 358.06805298 336.54102417 357.00170898 337.29223633 C355.87357788 338.06603638 355.87357788 338.06603638 354.72265625 338.85546875 C353.95058838 339.39002686 353.17852051 339.92458496 352.38305664 340.4753418 C350.08838597 342.05300208 347.78363175 343.61431137 345.47265625 345.16796875 C344.57232666 345.77560059 344.57232666 345.77560059 343.65380859 346.39550781 C330.60532366 355.09968346 316.19811782 360.57499739 301.39794922 365.52001953 C299.69924322 366.09171186 298.00902479 366.68849196 296.3203125 367.2890625 C285.68332111 370.88131846 274.54656284 372.50876143 263.47265625 374.16796875 C262.35568359 374.349646 261.23871094 374.53132324 260.08789062 374.71850586 C248.42647091 376.42969245 236.82104702 376.50615771 225.04980469 376.48364258 C221.63833909 376.48050615 218.22776391 376.5039382 214.81640625 376.52929688 C164.4854411 376.67436117 164.4854411 376.67436117 147.47265625 368.16796875 C147.32570313 368.79703125 147.17875 369.42609375 147.02734375 370.07421875 C145.33241598 376.54221899 142.90537171 381.16962033 138.47265625 386.16796875 C138.01890625 386.69519531 137.56515625 387.22242188 137.09765625 387.765625 C132.34490546 391.86715753 126.67830808 391.65104616 120.70703125 391.54296875 C116.061604 391.00436849 112.70050653 389.57556011 109.47265625 386.16796875 C106.38275196 381.42317189 104.63576736 377.01846556 103.41015625 371.48046875 C103.07952664 370.0754974 102.74879646 368.67054972 102.41796875 367.265625 C102.25973633 366.5761377 102.10150391 365.88665039 101.93847656 365.17626953 C101.25906587 362.2471121 100.52199486 359.33313122 99.78515625 356.41796875 C99.01432292 353.33463542 98.24348958 350.25130208 97.47265625 347.16796875 C96.81265625 347.16796875 96.15265625 347.16796875 95.47265625 347.16796875 C95.47265625 346.50796875 95.47265625 345.84796875 95.47265625 345.16796875 C92.28677178 343.49600327 88.99691151 342.11181139 85.68652344 340.70751953 C63.99396768 331.39675075 45.19398296 318.6173305 27.47265625 303.16796875 C26.73402344 302.54148437 25.99539062 301.915 25.234375 301.26953125 C11.16312595 289.2568016 11.16312595 289.2568016 6.47265625 282.16796875 C6.47265625 281.50796875 6.47265625 280.84796875 6.47265625 280.16796875 C5.48265625 279.83796875 4.49265625 279.50796875 3.47265625 279.16796875 C1.8671875 277.171875 1.8671875 277.171875 0.28515625 274.73046875 C-0.24464844 273.92738281 -0.77445312 273.12429688 -1.3203125 272.296875 C-2.52734375 270.16796875 -2.52734375 270.16796875 -2.52734375 268.16796875 C-3.18734375 268.16796875 -3.84734375 268.16796875 -4.52734375 268.16796875 C-6.18359375 265.68359375 -6.18359375 265.68359375 -8.02734375 262.41796875 C-8.63578125 261.350625 -9.24421875 260.28328125 -9.87109375 259.18359375 C-10.41765625 258.1884375 -10.96421875 257.19328125 -11.52734375 256.16796875 C-11.92050781 255.50539062 -12.31367187 254.8428125 -12.71875 254.16015625 C-14.92407614 248.72674403 -14.25424405 241.9325098 -12.79296875 236.375 C-9.71300923 229.17726851 -4.20372444 225.01683234 2.47265625 221.16796875 C3.13265625 221.16796875 3.79265625 221.16796875 4.47265625 221.16796875 C4.47265625 220.50796875 4.47265625 219.84796875 4.47265625 219.16796875 C6.12265625 218.83796875 7.77265625 218.50796875 9.47265625 218.16796875 C9.47265625 217.50796875 9.47265625 216.84796875 9.47265625 216.16796875 C38.89627754 201.12010152 69.20534456 192.88938556 101.47265625 186.16796875 C103.04210035 179.71362989 103.94867365 173.47037741 104.47265625 166.85546875 C104.64006334 164.90880578 104.80804458 162.96219212 104.9765625 161.015625 C105.05922363 160.03996582 105.14188477 159.06430664 105.22705078 158.05908203 C109.15125509 111.86581425 109.15125509 111.86581425 117.47265625 103.16796875 C120.57395016 102.18829645 123.33203812 102.39851731 126.47265625 103.16796875 C129.38044267 105.07764594 131.37046448 107.4177329 133.47265625 110.16796875 C133.93542969 110.75835937 134.39820313 111.34875 134.875 111.95703125 C144.47825566 125.67596791 144.42857787 144.23346101 145.6484375 160.30786133 C146.28356225 168.12969547 147.46538027 175.56708371 149.47265625 183.16796875 C150.57480469 183.15636719 151.67695313 183.14476562 152.8125 183.1328125 C154.34505035 183.12341035 155.87760258 183.11431284 157.41015625 183.10546875 C158.12623047 183.09708984 158.84230469 183.08871094 159.58007812 183.08007812 C174.01814694 183.01863953 188.30922153 184.41128667 202.59765625 186.35546875 C203.39815399 186.46334717 204.19865173 186.57122559 205.02340698 186.68237305 C222.66582881 189.09139782 240.35285186 192.27034646 256.47265625 200.16796875 C257.12379395 200.48588379 257.77493164 200.80379883 258.44580078 201.13134766 C263.14414666 203.43316468 267.81220389 205.79050825 272.47265625 208.16796875 C273.80514517 208.83632158 275.13796377 209.50402734 276.47265625 210.16796875 C276.47265625 210.82796875 276.47265625 211.48796875 276.47265625 212.16796875 C277.79265625 212.49796875 279.11265625 212.82796875 280.47265625 213.16796875 C280.47265625 213.82796875 280.47265625 214.48796875 280.47265625 215.16796875 C281.46265625 215.49796875 282.45265625 215.82796875 283.47265625 216.16796875 C283.47265625 216.82796875 283.47265625 217.48796875 283.47265625 218.16796875 C284.13265625 218.16796875 284.79265625 218.16796875 285.47265625 218.16796875 C292.4223871 229.46674501 295.0511982 240.57667245 292.84765625 253.73046875 C290.84767656 261.66142269 285.30149586 266.6595088 279.109375 271.625 C271.57965914 276.03127817 264.31515457 276.6427526 255.72265625 276.54296875 C254.20091797 276.56037109 254.20091797 276.56037109 252.6484375 276.578125 C243.25342754 276.54108817 243.25342754 276.54108817 239.47265625 273.16796875 C238.66015625 270.41796875 238.66015625 270.41796875 239.47265625 267.16796875 C242.83675957 263.29727105 246.31022022 260.06325608 251.47265625 259.16796875 C251.47265625 258.50796875 251.47265625 257.84796875 251.47265625 257.16796875 C252.92671875 255.99234375 252.92671875 255.99234375 254.41015625 254.79296875 C256.27330804 253.27583087 257.42350113 252.25075632 258.66015625 250.16796875 C258.34110059 246.76470835 255.95101816 245.35574105 253.47265625 243.16796875 C233.19305887 232.43481383 207.19038321 230.51121756 184.81054688 227.60595703 C181.53347001 227.17594855 178.26088107 226.72054893 174.98828125 226.2578125 C172.96231909 225.97728977 170.93628117 225.69731349 168.91015625 225.41796875 C168.01321045 225.29010986 167.11626465 225.16225098 166.19213867 225.03051758 C159.97136232 224.19995071 153.74840398 223.75211891 147.47265625 224.16796875 C145.34827906 226.29234594 146.0507463 230.9071869 145.921875 233.84375 C145.88003586 234.76940262 145.83819672 235.69505524 145.79508972 236.64875793 C145.31010208 248.56095159 145.28661399 260.47777103 145.28735352 272.39819336 C145.28515375 276.35997057 145.2668808 280.32147431 145.24804688 284.28320312 C145.21845551 297.75001265 145.6013806 310.82702667 147.47265625 324.16796875 C147.82243309 327.1662302 148.15130076 330.16653815 148.47265625 333.16796875 C193.49406941 350.70582109 259.05336449 338.66273251 302.07421875 320.2265625 C310.95866232 316.27503383 319.13873067 311.47783886 327.27734375 306.171875 C330.47265625 304.16796875 330.47265625 304.16796875 333.47265625 303.16796875 C333.47265625 302.50796875 333.47265625 301.84796875 333.47265625 301.16796875 C334.27703125 300.54921875 335.08140625 299.93046875 335.91015625 299.29296875 C348.24140442 289.32302342 355.68098405 272.81506661 357.87109375 257.35546875 C358.15175496 254.62471099 358.34092203 251.90968712 358.47265625 249.16796875 C358.51390625 248.45382813 358.55515625 247.7396875 358.59765625 247.00390625 C359.22094488 226.20164835 351.38447533 208.81099096 341.40893555 191.09643555 C340.455981 189.13362251 339.92253416 187.29754901 339.47265625 185.16796875 C338.81265625 185.16796875 338.15265625 185.16796875 337.47265625 185.16796875 C335.8515625 182.90234375 335.8515625 182.90234375 334.03515625 179.91796875 C331.53515761 175.82801522 331.53515761 175.82801522 328.75 171.93359375 C327.47265625 170.16796875 327.47265625 170.16796875 327.47265625 168.16796875 C326.48265625 167.83796875 325.49265625 167.50796875 324.47265625 167.16796875 C323.04296875 165.49609375 323.04296875 165.49609375 321.59765625 163.41796875 C319.1202054 159.99557333 316.53943274 157.09210447 313.47265625 154.16796875 C312.03441494 152.7103665 310.59699651 151.2519521 309.16015625 149.79296875 C304.46644294 145.09925544 299.68161076 140.42716265 294.2421875 136.59765625 C293.65824219 136.12585938 293.07429688 135.6540625 292.47265625 135.16796875 C292.47265625 134.50796875 292.47265625 133.84796875 292.47265625 133.16796875 C291.70953125 132.87921875 290.94640625 132.59046875 290.16015625 132.29296875 C287.47265625 131.16796875 287.47265625 131.16796875 284.47265625 129.16796875 C284.47265625 128.50796875 284.47265625 127.84796875 284.47265625 127.16796875 C283.88693848 126.88638916 283.3012207 126.60480957 282.69775391 126.31469727 C280.64576334 125.25718139 278.78153811 124.11197165 276.87109375 122.8203125 C275.88882813 122.15999023 275.88882813 122.15999023 274.88671875 121.48632812 C274.21382813 121.03064453 273.5409375 120.57496094 272.84765625 120.10546875 C271.50199362 119.19689161 270.15566944 118.28929328 268.80859375 117.3828125 C268.2161084 116.9818335 267.62362305 116.58085449 267.01318359 116.16772461 C265.43380912 115.10197473 265.43380912 115.10197473 263.47265625 114.16796875 C263.47265625 113.50796875 263.47265625 112.84796875 263.47265625 112.16796875 C262.76471924 111.90677246 262.05678223 111.64557617 261.32739258 111.37646484 C258.2895777 110.09046607 255.61180531 108.5509549 252.796875 106.83203125 C251.72115234 106.17976563 250.64542969 105.5275 249.53710938 104.85546875 C247.86551758 103.83453125 247.86551758 103.83453125 246.16015625 102.79296875 C239.37476971 98.6527329 232.65486805 94.581087 225.47265625 91.16796875 C224.18485602 90.5274304 222.89841214 89.88415847 221.61328125 89.23828125 C219.61367366 88.23822344 217.61382343 87.23866571 215.61328125 86.24047852 C212.51322186 84.69294198 209.41719428 83.13961692 206.33203125 81.5625 C198.19125186 77.41426132 189.87142516 73.75494297 181.47265625 70.16796875 C179.92578125 69.5028125 179.92578125 69.5028125 178.34765625 68.82421875 C152.96525109 58.06428613 126.46201471 49.24330018 99.47070312 43.60595703 C97.43331503 43.15934483 95.41541289 42.66042875 93.39453125 42.14453125 C87.61659848 40.67819399 81.75788969 39.65329206 75.89257812 38.60644531 C74.25177902 38.30914152 72.61246742 38.00353077 70.97460938 37.69042969 C44.1903908 32.57197954 17.26048638 30.90572072 -9.96484375 30.79296875 C-10.88985687 30.78511353 -11.81487 30.7772583 -12.76791382 30.76916504 C-22.91180775 30.70184406 -32.83172208 31.11802502 -42.88671875 32.5234375 C-43.73967026 32.64228302 -44.59262177 32.76112854 -45.47142029 32.88357544 C-52.59693263 33.98221784 -58.98507536 36.09710808 -65.52734375 39.16796875 C-62.31325198 42.38206052 -58.05456004 42.42726576 -53.69140625 43.2890625 C-50.57437997 44.15490313 -48.81782039 44.9107678 -46.52734375 47.16796875 C-46.05861445 50.38211253 -45.90323475 52.2630107 -47.77734375 54.98046875 C-54.71169605 59.68592209 -65.27612017 57.21732492 -72.96484375 55.79296875 C-73.65094727 55.66696289 -74.33705078 55.54095703 -75.04394531 55.41113281 C-83.43321079 53.75149026 -83.43321079 53.75149026 -85.75 50.3984375 C-87.63722289 44.98334068 -87.48886617 38.77147561 -85.51171875 33.41796875 C-82.32848011 27.4350142 -82.32848011 27.4350142 -78.52734375 26.16796875 C-77.84949653 24.84028453 -77.18426056 23.50613262 -76.52734375 22.16796875 C-57.12350298 3.11217894 -25.72659007 0.02184466 0 0 Z M62.92285156 227.90332031 C60.69860135 228.14356416 58.47525705 228.34718012 56.24609375 228.53515625 C39.40444501 230.06380965 11.85913928 232.63964844 0.23046875 246.12890625 C-1.00913093 249.46432395 -0.41658479 251.76407068 0.47265625 255.16796875 C2.135506 257.42346045 3.63967322 259.22127557 5.59765625 261.16796875 C6.34861572 261.94660278 6.34861572 261.94660278 7.11474609 262.7409668 C8.10901096 263.76777532 9.10966493 264.78844304 10.1171875 265.80224609 C11.24177571 266.93534163 12.34455379 268.09003499 13.44140625 269.25 C17.69138419 273.69042506 22.36130456 277.74305081 27.47265625 281.16796875 C28.13265625 281.16796875 28.79265625 281.16796875 29.47265625 281.16796875 C29.47265625 281.82796875 29.47265625 282.48796875 29.47265625 283.16796875 C30.79265625 283.49796875 32.11265625 283.82796875 33.47265625 284.16796875 C33.47265625 284.82796875 33.47265625 285.48796875 33.47265625 286.16796875 C36.02698412 287.85067763 38.5709473 289.40242692 41.22265625 290.91796875 C42.38921753 291.59339722 42.38921753 291.59339722 43.5793457 292.2824707 C48.8053568 295.28239844 54.08806968 298.11340779 59.515625 300.734375 C62.26249536 302.06608097 64.96933607 303.46279151 67.67822266 304.86962891 C77.32197296 309.83189607 86.91301497 312.91028975 97.47265625 315.16796875 C97.96620868 312.0450773 98.43944345 308.91937746 98.91015625 305.79296875 C99.1122168 304.51679688 99.1122168 304.51679688 99.31835938 303.21484375 C101.69533439 287.21374363 101.63574643 271.03360646 101.60302734 254.89428711 C101.59757521 251.68273389 101.6030564 248.47131512 101.609375 245.25976562 C101.60871566 243.20963511 101.60743749 241.15950468 101.60546875 239.109375 C101.6085051 237.67519981 101.6085051 237.67519981 101.61160278 236.21205139 C101.60845062 235.32940109 101.60529846 234.44675079 101.60205078 233.53735352 C101.60125519 232.76335709 101.60045959 231.98936066 101.59963989 231.19190979 C101.54653465 228.96259916 101.54653465 228.96259916 100.47265625 226.16796875 C87.82804253 225.90785098 75.49061166 226.49531399 62.92285156 227.90332031 Z " fill="#000000" transform="translate(111.52734375,-0.16796875)"/>
<path d="M0 0 C2.875 0.25 2.875 0.25 6 1 C8.13427365 3.64464344 7.98861701 5.16309697 7.75 8.58203125 C7.51902851 9.99542887 7.26781231 11.40561791 7 12.8125 C6.86190918 13.56080078 6.72381836 14.30910156 6.58154297 15.08007812 C3.82784424 28.80513805 -2.66599506 40.77195957 -10.04663086 52.53100586 C-19.81917078 68.12212668 -29.82441404 86.03847698 -29 105 C-25.83884224 103.63016497 -25.0072908 103.0109362 -23 100 C-22.34 100 -21.68 100 -21 100 C-20.71125 99.401875 -20.4225 98.80375 -20.125 98.1875 C-19 96 -19 96 -17 93 C-16.34 93 -15.68 93 -15 93 C-14.77441406 92.46632813 -14.54882812 91.93265625 -14.31640625 91.3828125 C-12.56997065 88.2216086 -10.28137135 85.60012341 -7.9375 82.875 C-4.63589453 79.16892732 -4.63589453 79.16892732 -2 75 C-1.34 75 -0.68 75 0 75 C0.2475 74.44828125 0.495 73.8965625 0.75 73.328125 C2.24234474 70.54863293 4.03672523 68.2185293 6 65.75 C6.70125 64.85796875 7.4025 63.9659375 8.125 63.046875 C8.74375 62.37140625 9.3625 61.6959375 10 61 C10.66 61 11.32 61 12 61 C12.33 60.01 12.66 59.02 13 58 C13.66 58 14.32 58 15 58 C15.23460937 57.43925781 15.46921875 56.87851563 15.7109375 56.30078125 C20.54032567 47.6810551 30.85596529 39.61368647 39 34 C39.66 34 40.32 34 41 34 C41 33.34 41 32.68 41 32 C42.32 31.67 43.64 31.34 45 31 C45 30.34 45 29.68 45 29 C53.50808095 22.85263425 66.75079394 15.14084797 77.5625 15.9375 C81.39585185 16.64145443 84.65183252 17.97347758 88 20 C88 20.66 88 21.32 88 22 C88.58910156 22.26039063 89.17820312 22.52078125 89.78515625 22.7890625 C98.3713304 27.48344343 101.8788288 37.10705867 104.59863281 45.9453125 C112.17121578 72.02176843 108.3353572 99.10024543 96 123 C95.34 123 94.68 123 94 123 C94 123.99 94 124.98 94 126 C93.34 126 92.68 126 92 126 C91.71125 126.763125 91.4225 127.52625 91.125 128.3125 C90 131 90 131 88 134 C87.34 134 86.68 134 86 134 C85.73429199 134.59095459 85.46858398 135.18190918 85.19482422 135.79077148 C83.96924514 138.0568657 82.70488704 139.53917928 80.8828125 141.34765625 C80.27566406 141.95287109 79.66851563 142.55808594 79.04296875 143.18164062 C78.41003906 143.80232422 77.77710938 144.42300781 77.125 145.0625 C76.18720703 145.99932617 76.18720703 145.99932617 75.23046875 146.95507812 C67.10827441 155 67.10827441 155 64 155 C64 155.66 64 156.32 64 157 C62.5222168 158.1574707 62.5222168 158.1574707 60.44921875 159.42578125 C59.69358643 159.89032715 58.9379541 160.35487305 58.15942383 160.83349609 C57.34368896 161.32156738 56.5279541 161.80963867 55.6875 162.3125 C54.85951904 162.81088379 54.03153809 163.30926758 53.1784668 163.82275391 C47.28016281 167.33004048 41.42209611 170.54610248 35 173 C33.865625 173.43957031 32.73125 173.87914062 31.5625 174.33203125 C19.42876357 178.7178714 2.59807555 183.19935852 -10 179 C-10.17015625 179.61746094 -10.3403125 180.23492187 -10.515625 180.87109375 C-11.71120751 185.04927306 -12.9452905 189.07026621 -14.8125 193 C-17.87502333 199.63740797 -19.97723077 206.6374692 -22.21777344 213.58398438 C-22.97041654 215.90862735 -23.73784057 218.22792434 -24.5078125 220.546875 C-28.66323865 233.20604998 -31.91724221 246.04268447 -35 259 C-35.33862061 260.40668945 -35.33862061 260.40668945 -35.68408203 261.84179688 C-38.61877742 274.08157134 -41.04410421 286.34921214 -43.10546875 298.765625 C-43.71034255 302.34285 -44.3251332 305.91745209 -44.98828125 309.484375 C-45.13434814 310.28069336 -45.28041504 311.07701172 -45.4309082 311.89746094 C-46 314 -46 314 -48 317 C-52.83627463 318.22696185 -57.28113622 317.19511703 -61.625 314.9375 C-72.49757395 308.14923209 -78.50794117 298.03530971 -81.4765625 285.671875 C-86.45586492 260.25513728 -80.47635556 232.8106159 -72.78320312 208.47753906 C-71.87038964 205.58999814 -70.97526646 202.69713477 -70.078125 199.8046875 C-69.38661326 197.5985829 -68.69390661 195.39285249 -68 193.1875 C-67.67999023 192.16180908 -67.35998047 191.13611816 -67.03027344 190.0793457 C-65.05007642 183.86650253 -62.76673011 177.87399603 -60.20898438 171.87670898 C-58.41725799 167.61339882 -56.82724477 163.28376418 -55.25 158.9375 C-54.79560547 157.69709961 -54.79560547 157.69709961 -54.33203125 156.43164062 C-53.18626128 153.29732321 -52.05537954 150.16613863 -51 147 C-51.94719134 145.13944559 -52.89941236 143.2812532 -53.87890625 141.4375 C-61.85786684 124.08951601 -60.07719843 102.44374266 -55.25 84.5625 C-54.98050537 83.5526001 -54.71101074 82.5427002 -54.43334961 81.50219727 C-52.48657572 74.3873731 -50.22376352 67.6472292 -47 61 C-46.51144531 59.92363281 -46.02289062 58.84726563 -45.51953125 57.73828125 C-40.97903742 48.10725753 -35.20892858 39.61537653 -29 31 C-28.3503125 30.07960937 -27.700625 29.15921875 -27.03125 28.2109375 C-25.74707618 26.42946107 -24.38483089 24.70440725 -23 23 C-22.34 23 -21.68 23 -21 23 C-20.6596875 22.195625 -20.6596875 22.195625 -20.3125 21.375 C-18.54429911 18.17539839 -16.46329797 15.70962777 -14 13 C-13.34 13 -12.68 13 -12 13 C-11.67 12.01 -11.34 11.02 -11 10 C-10.34 10 -9.68 10 -9 10 C-8.67 9.01 -8.34 8.02 -8 7 C-2.53488372 2 -2.53488372 2 0 2 C0 1.34 0 0.68 0 0 Z M65 61 C62.51530194 63.55488727 60.25364496 66.24180766 58 69 C56.35790212 70.85374605 54.71354486 72.70541961 53.06640625 74.5546875 C51.80209393 75.96886621 51.80209393 75.96886621 52 78 C51.34 78 50.68 78 50 78 C48.20460444 80.0897227 46.52938558 82.17842082 44.875 84.375 C44.40707031 84.97828125 43.93914062 85.5815625 43.45703125 86.203125 C40.86385761 89.25734941 40.86385761 89.25734941 40 93 C39.34 93 38.68 93 38 93 C36.18618 95.33100913 36.18618 95.33100913 34.3125 98.3125 C33.59964844 99.41335938 32.88679688 100.51421875 32.15234375 101.6484375 C31.44207031 102.75445312 30.73179688 103.86046875 30 105 C29.38253906 105.92039062 28.76507812 106.84078125 28.12890625 107.7890625 C20.29994348 119.10594052 20.29994348 119.10594052 17 132 C26.56270793 132.61038561 34.76300931 128.38089241 43.3125 124.5 C44.19228516 124.10941406 45.07207031 123.71882813 45.97851562 123.31640625 C46.82736328 122.93355469 47.67621094 122.55070312 48.55078125 122.15625 C49.31044189 121.81400391 50.07010254 121.47175781 50.8527832 121.11914062 C53.12708355 119.93376339 55.06006261 118.67891363 57 117 C57 116.34 57 115.68 57 115 C57.556875 114.7525 58.11375 114.505 58.6875 114.25 C70.02998863 108.11892506 76.47299601 95.5553695 81 84 C81.26683594 83.32839844 81.53367187 82.65679687 81.80859375 81.96484375 C84.08648649 74.81697343 84.8905615 64.06329635 81.69140625 57.1875 C80.23946396 55.23764944 78.8581388 53.56474847 77 52 C73.26686551 52 67.70335636 58.62578005 65 61 Z " fill="#000000" transform="translate(1123,181)"/>
<path d="M0 0 C0.99253281 -0.0033284 1.98506561 -0.0066568 3.00767517 -0.01008606 C5.09943177 -0.01512278 7.19119632 -0.0174954 9.28295898 -0.01733398 C12.43161795 -0.01950831 15.579919 -0.03766575 18.72851562 -0.05664062 C30.14668401 -0.08866093 41.11555382 0.41526011 52.40234375 2.16796875 C54.2637761 2.40920544 56.12570527 2.64666443 57.98828125 2.87890625 C76.99270367 5.44329853 76.99270367 5.44329853 82.40234375 9.16796875 C84.44381585 12.1949791 84.65611767 13.78216411 84.00390625 17.34375 C82.49449218 22.62669926 80.55206549 26.54799872 76.40234375 30.16796875 C73.13428371 31.40577105 69.85670039 31.7332573 66.40234375 32.16796875 C65.19288086 32.32563721 63.98341797 32.48330566 62.73730469 32.64575195 C53.22665309 33.84622791 43.76692894 34.57497873 34.19262695 35.00140381 C-8.73720898 36.81580387 -8.73720898 36.81580387 -50.63671875 45.65234375 C-52.59765625 46.16796875 -52.59765625 46.16796875 -55.59765625 46.16796875 C-52.37074236 50.03867581 -49.89136611 50.89312949 -44.97265625 51.73046875 C-44.2880835 51.84777344 -43.60351074 51.96507812 -42.89819336 52.0859375 C-32.98333463 53.70416295 -22.97048913 54.69788081 -12.98779297 55.79296875 C58.92758919 63.74788932 58.92758919 63.74788932 69.3984375 75.38671875 C73.78028315 81.1441542 76.40437215 87.2503686 78.40234375 94.16796875 C78.62792969 94.92207031 78.85351562 95.67617188 79.0859375 96.453125 C82.46488535 110.03882568 81.70311542 125.63999942 74.859375 137.94140625 C64.05409754 154.40894581 46.49101608 160.5447129 28.02734375 164.51953125 C-1.69113721 169.83555263 -35.06628788 166.12217742 -60.59765625 149.16796875 C-64.21475547 146.46156522 -67.45791846 143.4119302 -70.59765625 140.16796875 C-71.17773438 139.62914062 -71.7578125 139.0903125 -72.35546875 138.53515625 C-73.59765625 137.16796875 -73.59765625 137.16796875 -73.59765625 135.16796875 C-74.25765625 135.16796875 -74.91765625 135.16796875 -75.59765625 135.16796875 C-80.14036745 126.68824118 -82.68251028 119.80201195 -80.59765625 110.16796875 C-79.76113984 107.42010962 -78.77068154 104.78903482 -77.59765625 102.16796875 C-77.30375 101.49378906 -77.00984375 100.81960938 -76.70703125 100.125 C-72.87180444 93.35933581 -65.16888756 91.05688108 -58.13671875 89.02734375 C-56.96882812 88.74375 -55.8009375 88.46015625 -54.59765625 88.16796875 C-53.87747314 87.98919189 -53.15729004 87.81041504 -52.4152832 87.6262207 C-45.44203048 86.0437935 -38.66798557 85.82010519 -31.53515625 85.85546875 C-30.342854 85.8611084 -29.15055176 85.86674805 -27.92211914 85.87255859 C-6.86436137 86.1605718 14.67976889 91.35291885 32.40234375 103.16796875 C32.90234375 106.54296875 32.90234375 106.54296875 32.40234375 110.16796875 C29.08622947 113.33416828 25.69671352 115.10457798 21.46484375 116.79296875 C20.46582031 117.19773437 19.46679688 117.6025 18.4375 118.01953125 C17.43589844 118.39851563 16.43429687 118.7775 15.40234375 119.16796875 C14.44328125 119.53921875 13.48421875 119.91046875 12.49609375 120.29296875 C-1.98897559 124.38975604 -15.63142399 118.96278566 -28.82421875 113.3359375 C-39.28636948 108.93004586 -49.47521485 106.42659906 -60.59765625 110.16796875 C-63.26919665 111.67076051 -63.26919665 111.67076051 -64.59765625 114.16796875 C-65.40531503 117.81518571 -65.40531503 117.81518571 -65.59765625 121.16796875 C-65.07171875 121.29300781 -64.54578125 121.41804688 -64.00390625 121.546875 C-61.00991492 122.31967471 -58.06065554 123.22124036 -55.09765625 124.10546875 C-23.51467636 133.03179914 13.15338786 126.96891492 43.40234375 115.16796875 C45.07134677 114.17187302 46.73842993 113.17254257 48.40234375 112.16796875 C49.06234375 112.16796875 49.72234375 112.16796875 50.40234375 112.16796875 C51.81784882 106.8919953 51.00824174 103.93047198 48.40234375 99.16796875 C46.33279528 97.38452697 46.33279528 97.38452697 44.40234375 96.16796875 C44.40234375 95.50796875 44.40234375 94.84796875 44.40234375 94.16796875 C43.76296875 94.08546875 43.12359375 94.00296875 42.46484375 93.91796875 C39.83823465 93.27471754 37.98568814 92.5258525 35.58984375 91.35546875 C22.78489433 85.54269566 8.21822409 83.94225906 -5.59765625 82.16796875 C-6.32694336 82.07273926 -7.05623047 81.97750977 -7.80761719 81.87939453 C-20.29807133 80.29298637 -32.85493972 79.60251637 -45.42260742 78.95288086 C-75.10200139 77.36449263 -75.10200139 77.36449263 -84.41015625 69.91796875 C-90.79276535 61.8941173 -90.6913844 51.99667516 -89.59765625 42.16796875 C-86.93159812 31.56107081 -79.36793704 25.84740168 -70.59765625 20.16796875 C-69.81261719 19.65105469 -69.02757812 19.13414062 -68.21875 18.6015625 C-55.92494204 10.84451399 -42.59589309 6.6084537 -28.59765625 3.16796875 C-27.86240723 2.98685547 -27.1271582 2.80574219 -26.36962891 2.61914062 C-25.62632324 2.44447266 -24.88301758 2.26980469 -24.1171875 2.08984375 C-23.46468018 1.93612305 -22.81217285 1.78240234 -22.13989258 1.62402344 C-14.77151899 0.30220246 -7.4730524 0.00892847 0 0 Z " fill="#000000" transform="translate(680.59765625,182.83203125)"/>
<path d="M0 0 C7.89638926 1.07165283 14.91025801 7.06196768 20 13 C20 13.66 20 14.32 20 15 C20.66 15 21.32 15 22 15 C23.47893917 16.99135171 24.81274147 18.96393993 26.125 21.0625 C26.52243408 21.6922876 26.91986816 22.3220752 27.3293457 22.97094727 C39.12285385 41.91317178 46.67860727 61.55574046 51.6875 83.3125 C51.90220947 84.24392822 52.11691895 85.17535645 52.33813477 86.13500977 C52.64062134 87.48550415 52.64062134 87.48550415 52.94921875 88.86328125 C53.12799561 89.66032471 53.30677246 90.45736816 53.4909668 91.27856445 C55.04632305 99.5939391 55.18623267 107.77462065 55.18530273 116.20825195 C55.18749137 118.42874268 55.20570292 120.64873725 55.22460938 122.86914062 C55.25373767 130.13079292 55.08698266 136.98618323 53 144 C52.73960937 145.06605469 52.47921875 146.13210938 52.2109375 147.23046875 C48.26928051 161.17361989 41.83525647 172.58039849 29.48046875 180.64453125 C25.73193025 182.6929452 22.67484705 183.13933958 18.4375 183.125 C17.67308594 183.12757813 16.90867187 183.13015625 16.12109375 183.1328125 C14 183 14 183 11 182 C11 181.34 11 180.68 11 180 C10.443125 179.75894531 9.88625 179.51789063 9.3125 179.26953125 C6.50342658 177.7273879 4.37301051 175.83984947 2 173.6875 C1.154375 172.92824219 0.30875 172.16898438 -0.5625 171.38671875 C-2.95065211 169.04831981 -5.0408803 166.70739459 -7 164 C-7 163.34 -7 162.68 -7 162 C-7.66 162 -8.32 162 -9 162 C-10.62109375 159.98828125 -10.62109375 159.98828125 -12.4375 157.3125 C-13.03433594 156.44238281 -13.63117188 155.57226562 -14.24609375 154.67578125 C-19 147.42316258 -19 147.42316258 -19 145 C-19.66 145 -20.32 145 -21 145 C-21.27972656 144.48953125 -21.55945313 143.9790625 -21.84765625 143.453125 C-24.30965543 138.98827761 -26.83717877 134.57337514 -29.4375 130.1875 C-31.77263792 126.21172638 -33.92398624 122.20990063 -35.9375 118.0625 C-38.69532304 112.3977824 -41.93284094 107.18323307 -45.36328125 101.91015625 C-46.90947585 99.16095583 -47.60570466 97.10293291 -48 94 C-48.99 94 -49.98 94 -51 94 C-53.59659676 108.67831996 -53.39571398 123.41885118 -53.53173828 138.2800293 C-53.56567211 141.6516663 -53.61069707 145.02303433 -53.65625 148.39453125 C-53.6615271 149.41142532 -53.6668042 150.4283194 -53.67224121 151.47602844 C-53.76044056 157.86621015 -54.52342619 163.78430762 -56 170 C-56.21140625 170.928125 -56.4228125 171.85625 -56.640625 172.8125 C-58.60765979 179.87365053 -61.75954964 186.75954964 -67 192 C-73.22431453 192.64389461 -77.91623109 191.79301244 -83 188 C-96.43800581 170.56691138 -91.49862975 139.35153355 -89 119 C-88.09819115 112.79183949 -87.02252318 106.61687206 -85.921875 100.44140625 C-85.36516437 97.28364392 -84.87057347 94.15795383 -84.578125 90.96484375 C-82.81444819 72.00531807 -75.07020278 51.10916961 -62 37 C-55.61465281 36.23375834 -51.42088724 40.17970415 -46.53515625 43.9296875 C-43.79229055 46.16962405 -41.29737231 48.30652901 -39 51 C-39 51.66 -39 52.32 -39 53 C-38.01 53.33 -37.02 53.66 -36 54 C-34.61328125 55.55859375 -34.61328125 55.55859375 -33.3125 57.4375 C-32.87550781 58.05496094 -32.43851563 58.67242187 -31.98828125 59.30859375 C-31 61 -31 61 -31 63 C-30.34 63 -29.68 63 -29 63 C-27.95019531 64.41772461 -27.95019531 64.41772461 -26.828125 66.40234375 C-26.41353027 67.12413818 -25.99893555 67.84593262 -25.57177734 68.58959961 C-25.13559082 69.36440674 -24.6994043 70.13921387 -24.25 70.9375 C-21.01172498 76.58719408 -17.7289852 82.11460929 -13.9609375 87.43359375 C-13 89 -13 89 -13 91 C-12.34 91 -11.68 91 -11 91 C-9.75896918 92.82330825 -8.61573171 94.71335786 -7.515625 96.625 C-7.17754822 97.20531982 -6.83947144 97.78563965 -6.4911499 98.38354492 C-5.40368794 100.2516959 -4.3260806 102.12527333 -3.25 104 C-1.84465709 106.44109473 -0.43390265 108.87889646 0.984375 111.3125 C1.32593628 111.89950684 1.66749756 112.48651367 2.01940918 113.09130859 C4.40938826 117.14254818 7.01080955 120.90039384 9.97753906 124.546875 C11 126 11 126 11 128 C12.65 128.33 14.3 128.66 16 129 C23.69714407 101.53658997 8.02144846 61.73143649 0.078125 35.55859375 C-0.27765625 34.38425781 -0.6334375 33.20992187 -1 32 C-1.35835937 30.87722656 -1.71671875 29.75445312 -2.0859375 28.59765625 C-3.15904171 24.37402815 -3.59842254 20.33789904 -3.875 16 C-3.98328125 14.84757813 -3.98328125 14.84757813 -4.09375 13.671875 C-4.46836507 7.87519968 -3.27472953 4.79104398 0 0 Z " fill="#000000" transform="translate(859,159)"/>
<path d="M0 0 C5.7136708 6.47179541 11.79724097 14.11984476 13.5625 22.75 C12.71407739 26.14369044 10.8830555 27.1420309 8 29 C-6.15110796 35.66113669 -24.43334918 34.51654725 -39.6875 34.6875 C-41.76890015 34.72078032 -43.85028119 34.75527923 -45.93164062 34.79101562 C-50.95431866 34.87466524 -55.97696261 34.94203572 -61 35 C-61 35.66 -61 36.32 -61 37 C-61.598125 37.5775 -62.19625 38.155 -62.8125 38.75 C-66.72378938 42.77304051 -68.17877619 46.31793169 -68.1875 51.875 C-68.1398309 53.25059402 -68.08243693 54.62605116 -68 56 C-64.1976439 58.52459623 -60.39527863 58.18973425 -56.015625 58.0546875 C-54.42448807 58.02938176 -52.83334175 58.00466083 -51.2421875 57.98046875 C-48.74937236 57.93100425 -46.2570539 57.87518986 -43.76464844 57.80810547 C-41.34827776 57.74719259 -38.93252488 57.71199498 -36.515625 57.6796875 C-35.78200745 57.65276825 -35.04838989 57.625849 -34.2925415 57.59811401 C-28.05656651 57.53853011 -23.0828458 59.39265897 -18.29864502 63.43893433 C-15.57279973 66.71559843 -16.55694357 71.55611046 -16.64453125 75.59765625 C-17.11086541 80.06114034 -17.85443698 81.85443698 -21 85 C-24.09548979 86.90634456 -26.44604294 87.25374176 -30.05639648 87.27124023 C-31.06101425 87.28142685 -32.06563202 87.29161346 -33.10069275 87.30210876 C-34.17992508 87.30424881 -35.25915741 87.30638885 -36.37109375 87.30859375 C-38.6595078 87.33374957 -40.9479192 87.35914765 -43.23632812 87.38476562 C-46.84187153 87.4135313 -50.44736895 87.43755131 -54.05297852 87.45629883 C-57.53425699 87.4779394 -61.01500015 87.51737422 -64.49609375 87.55859375 C-65.57330185 87.55870956 -66.65050995 87.55882538 -67.76036072 87.5589447 C-74.91675748 87.54850629 -74.91675748 87.54850629 -81 91 C-85.84799985 96.41379934 -87.35402363 103.06625989 -88.8125 110 C-89.13637695 111.44826172 -89.13637695 111.44826172 -89.46679688 112.92578125 C-89.99152216 115.28121473 -90.50220518 117.63875589 -91 120 C-84.24219055 120.29660611 -78.26452604 119.17140884 -71.6875 117.6875 C-57.68642366 114.67620571 -43.99693255 111.7717564 -29.625 111.6875 C-28.83375732 111.68194092 -28.04251465 111.67638184 -27.22729492 111.6706543 C-23.09488941 111.7230994 -19.59639273 111.86977834 -16 114 C-12.44461489 118.64394746 -9.79206451 124.78795207 -10.30639648 130.71557617 C-12.70739239 138.62339691 -24.6799292 144.39873434 -31.25 148.625 C-32.26707031 149.28161621 -33.28414062 149.93823242 -34.33203125 150.61474609 C-55.62196777 164.17246588 -79.9139671 172.11906052 -105.37109375 167.31640625 C-116.01998238 164.50547289 -124.36167964 159.64497245 -130 150 C-135.34787455 138.84286565 -136.02679794 123.67771402 -132 112 C-130.04212002 106.66770936 -127.78322093 101.55032135 -125.3125 96.4375 C-121.91879052 89.02161633 -121.21774784 83.69210892 -124 76 C-124.44844799 71.65936194 -124.49632354 67.7444853 -122 64 C-121.34 64 -120.68 64 -120 64 C-120 63.34 -120 62.68 -120 62 C-119.40832031 61.91363281 -118.81664062 61.82726562 -118.20703125 61.73828125 C-117.41683594 61.59777344 -116.62664063 61.45726562 -115.8125 61.3125 C-115.03519531 61.18488281 -114.25789062 61.05726563 -113.45703125 60.92578125 C-109.96826785 59.61125514 -108.34472959 57.89415468 -106 55 C-104.81992388 52.38065432 -104.05186169 49.70947115 -103.3125 46.9375 C-100.88183657 38.3082515 -100.88183657 38.3082515 -99 35 C-103.27735978 32.1922359 -107.57672665 29.66339058 -112.1875 27.4375 C-118.3736425 24.38238054 -122.54652499 21.7147737 -125 15 C-125.2261293 12.27661667 -125.14179582 9.74138592 -125 7 C-119.91886416 4.79497879 -115.59987021 2.93822305 -110.01171875 2.60546875 C-99.50569974 1.91146846 -89.2115557 1.053914 -78.875 -1 C-15.48541432 -13.35106103 -15.48541432 -13.35106103 0 0 Z " fill="#000000" transform="translate(1054,192)"/>
<path d="M0 0 C2.81023244 1.87348829 3.9584111 2.31886073 7.125 2.875 C15.76911612 4.71327794 22.49737964 7.91090987 28 15 C33.09115786 23.41820631 33.70700198 31.32104329 33 41 C31.27844206 47.72883217 26.95630411 53.3935276 23 59 C22.34644531 59.98033203 22.34644531 59.98033203 21.6796875 60.98046875 C19.15256206 64.70758142 16.59739488 67.23277317 13 70 C12.4225 70.763125 11.845 71.52625 11.25 72.3125 C8.02679546 76.16243876 4.16862549 79.20750377 0 82 C-0.66 82 -1.32 82 -2 82 C-2 82.66 -2 83.32 -2 84 C-3.32 84.33 -4.64 84.66 -6 85 C-6 85.66 -6 86.32 -6 87 C-8.07507286 88.49504502 -10.11895969 89.82204312 -12.3125 91.125 C-12.97531982 91.52025879 -13.63813965 91.91551758 -14.32104492 92.32275391 C-31.29261638 102.13881796 -48.85747431 108.16735987 -68.5 108.25 C-69.94161499 108.26353516 -69.94161499 108.26353516 -71.41235352 108.27734375 C-77.54876234 108.25284507 -83.00662321 107.50349254 -88.9375 106 C-93.84669436 104.71959233 -93.84669436 104.71959233 -98.2890625 106.44140625 C-100.10120971 108.52657021 -100.10120971 108.52657021 -101.5625 110.84375 C-103.85785774 114.28678661 -106.2052727 115.41311404 -110 117 C-113.7738283 117 -115.35295635 116.53920304 -118.25 114.125 C-123.82715494 107.35274042 -123.05507566 101.24337195 -122.83984375 92.7890625 C-123.03286981 88.22234844 -123.28173956 83.74310276 -126.62109375 80.35546875 C-127.22050781 79.97003906 -127.81992187 79.58460938 -128.4375 79.1875 C-133.00160525 75.57425001 -134.12758796 71.63952067 -135 66 C-136.85987368 47.68024424 -128.38857003 32.47375237 -117.4453125 18.4765625 C-116.96835937 17.98929688 -116.49140625 17.50203125 -116 17 C-115.34 17 -114.68 17 -114 17 C-113.67 16.01 -113.34 15.02 -113 14 C-83.38554055 -11.61382407 -33.00259126 -27.81747076 0 0 Z M-71 20 C-88.62874791 25.0831359 -100.51455644 30.71894302 -110.1953125 47.01171875 C-111.15757401 49.3893455 -111.20014366 51.19511546 -111.125 53.75 C-111.10695313 54.54921875 -111.08890625 55.3484375 -111.0703125 56.171875 C-111.04710937 56.77515625 -111.02390625 57.3784375 -111 58 C-110.34 58.33 -109.68 58.66 -109 59 C-108.01 58.505 -108.01 58.505 -107 58 C-107 57.34 -107 56.68 -107 56 C-105.515 55.505 -105.515 55.505 -104 55 C-104 54.34 -104 53.68 -104 53 C-102.515 52.505 -102.515 52.505 -101 52 C-101 51.34 -101 50.68 -101 50 C-100.01 49.67 -99.02 49.34 -98 49 C-98 48.34 -98 47.68 -98 47 C-97.01 46.67 -96.02 46.34 -95 46 C-93.14643529 44.24602045 -93.14643529 44.24602045 -91.375 42.125 C-90.76398437 41.42632812 -90.15296875 40.72765625 -89.5234375 40.0078125 C-87.8142588 37.97863656 -87.8142588 37.97863656 -87 35 C-86.01 34.67 -85.02 34.34 -84 34 C-84 33.34 -84 32.68 -84 32 C-83.44828125 31.74476562 -82.8965625 31.48953125 -82.328125 31.2265625 C-79.63362942 29.80697926 -77.23221272 28.13867746 -74.75 26.375 C-73.85796875 25.74335937 -72.9659375 25.11171875 -72.046875 24.4609375 C-71.37140625 23.97882813 -70.6959375 23.49671875 -70 23 C-70.495 21.515 -70.495 21.515 -71 20 Z M-46.0625 42.2109375 C-49.10627556 45.02152057 -52.41849061 47.4868033 -55.703125 50.0078125 C-58.15631372 52.13557822 -60.00627463 54.4450158 -62 57 C-63.66666667 58.33333333 -65.33333333 59.66666667 -67 61 C-68.35386936 62.65002828 -69.68678142 64.3174387 -71 66 C-71.886875 66.825 -72.77375 67.65 -73.6875 68.5 C-76.12322631 71.13321763 -76.80348891 72.46280037 -77 76 C-74.08733448 78.91266552 -65.04630898 77.31188101 -61.12768555 77.31689453 C-36.56579392 77.03579058 -14.82554088 67.61874054 3.25390625 50.91796875 C5.22439912 49.1858011 5.22439912 49.1858011 5 47 C5.66 47 6.32 47 7 47 C10.06938973 42.01224168 11.11943974 37.72598381 10 32 C8.72664689 28.54104081 7.26090324 26.75001807 4 25 C-14.22133663 22.00414961 -32.89018242 29.77672392 -46.0625 42.2109375 Z " fill="#000000" transform="translate(630,51)"/>
<path d="M0 0 C3.375 1.875 3.375 1.875 6 4 C6 4.66 6 5.32 6 6 C6.99 6.33 7.98 6.66 9 7 C14.65580694 16.0492911 14.67391692 27.39781966 15.5 37.75 C15.59421738 38.912966 15.59421738 38.912966 15.69033813 40.09942627 C18.15629648 70.8914639 19.17918684 101.6750867 19.25 132.5625 C19.25526703 133.76050232 19.26053406 134.95850464 19.26596069 136.19281006 C19.27757806 139.58830074 19.27442372 142.98341381 19.265625 146.37890625 C19.26957779 147.39655563 19.27353058 148.41420502 19.27760315 149.46269226 C19.2713945 150.39998672 19.26518585 151.33728119 19.25878906 152.30297852 C19.25719788 153.11767105 19.25560669 153.93236359 19.25396729 154.77174377 C18.96919719 157.27025746 18.31075578 158.86419842 17 161 C10.94506606 165.66708904 4.55140955 166.7543492 -2.94140625 166.41015625 C-7.28489892 165.82769555 -10.67233611 164.9332741 -14 162 C-22.99171937 149.55200411 -22.36512355 130.35661738 -22.25 115.6875 C-22.24723053 114.98277557 -22.24446106 114.27805115 -22.24160767 113.55197144 C-22.09520264 80.95230212 -21.81836936 47.01972464 -14.5625 15.125 C-14.36938232 14.26793457 -14.17626465 13.41086914 -13.97729492 12.52783203 C-12.80243465 7.82551492 -11.49221947 4.54081894 -8 1 C-5.13391871 -0.43304064 -3.18699217 -0.30644155 0 0 Z " fill="#000000" transform="translate(557,185)"/>
</svg>
