<?xml version="1.0" encoding="UTF-8"?>
<svg version="1.1" xmlns="http://www.w3.org/2000/svg" width="1683" height="603">
<path d="M0 0 C0.33 43.56 0.66 87.12 1 132 C4.3 129.69 7.6 127.38 11 125 C13.86224101 123.50282778 16.60922428 122.13781237 19.5625 120.875 C20.33062012 120.54226074 21.09874023 120.20952148 21.89013672 119.86669922 C55.25305284 105.78862682 95.3687695 105.57935556 129 119 C131.59729034 120.22498646 134.15162193 121.50447375 136.69335938 122.84057617 C139.08308702 124.04176336 141.51457814 125.01563087 144 126 C158.21829676 134.28301518 173.31816419 146.79608774 181.0625 161.5 C183.52694514 166.1543367 186.16268523 170.64949231 188.9375 175.125 C196.84783142 189.26133372 199.61940192 206.99833296 200 223 C200.02046387 223.78101074 200.04092773 224.56202148 200.06201172 225.36669922 C200.59693479 248.60711747 197.98380522 270.72578418 188 292 C187.57847656 292.99580078 187.57847656 292.99580078 187.1484375 294.01171875 C180.48572757 308.86271237 168.58929794 321.12167182 156 331 C155.12601563 331.74765625 154.25203125 332.4953125 153.3515625 333.265625 C151 335 151 335 148 335 C148 335.66 148 336.32 148 337 C141.13703079 340.81857281 134.47018952 344.50993683 127 347 C126.24976563 347.25394531 125.49953125 347.50789063 124.7265625 347.76953125 C122.48794384 348.52441429 120.24467278 349.26334622 118 350 C116.6847937 350.46865479 116.6847937 350.46865479 115.34301758 350.94677734 C102.91420606 354.86249288 90.1210156 355.54029503 77.1875 355.4375 C76.0160141 355.43443344 76.0160141 355.43443344 74.82086182 355.43130493 C62.48393634 355.378863 50.92381601 354.35471276 39 351 C37.93136719 350.72671875 36.86273437 350.4534375 35.76171875 350.171875 C31.36790094 348.97645134 27.83833986 347.48973396 24 345 C21.69047653 343.93640366 19.34918507 342.97513343 17 342 C16.34 341.67 15.68 341.34 15 341 C15 340.34 15 339.68 15 339 C14.47921875 338.92652344 13.9584375 338.85304688 13.421875 338.77734375 C9.95804146 337.66556492 7.19839899 335.63285929 4.25 333.5625 C3.64800781 333.15451172 3.04601562 332.74652344 2.42578125 332.32617188 C0.91039188 331.27295908 -0.5502034 330.14181957 -2 329 C-2 328.34 -2 327.68 -2 327 C-2.66 327 -3.32 327 -4 327 C-3.95875 328.2375 -3.9175 329.475 -3.875 330.75 C-4 336 -4 336 -6 348 C-32.73 348 -59.46 348 -87 348 C-87.06616382 309.71421994 -87.12154577 271.42849389 -87.15319599 233.142673 C-87.15694801 228.62042448 -87.16083099 224.09817607 -87.16479492 219.57592773 C-87.16558185 218.67564749 -87.16636878 217.77536724 -87.16717956 216.84780578 C-87.18022565 202.27966747 -87.2038751 187.71156475 -87.23145839 173.14344754 C-87.25953477 158.18994255 -87.27618098 143.23645617 -87.28226548 128.2829259 C-87.28637729 119.05932607 -87.29935386 109.83582685 -87.3237494 100.61225799 C-87.33963416 94.28324027 -87.34439416 87.9542744 -87.34050413 81.6252382 C-87.33858684 77.97630136 -87.3414803 74.32754009 -87.35761642 70.67863464 C-87.37501558 66.71498817 -87.36893975 62.75156797 -87.36076355 58.78788757 C-87.36950207 57.64486244 -87.3782406 56.50183731 -87.38724393 55.32417506 C-87.3360259 46.1158992 -86.55663835 36.96642825 -80 30 C-78.97695052 28.34738161 -77.97383946 26.68208635 -77 25 C-76.34 24.01 -75.68 23.02 -75 22 C-74.34 22 -73.68 22 -73 22 C-72.690625 21.1646875 -72.690625 21.1646875 -72.375 20.3125 C-70.40776457 17.00396768 -68.10937286 15.2844372 -65 13 C-64.01 13 -63.02 13 -62 13 C-62 12.34 -62 11.68 -62 11 C-54.15953904 6.7044283 -46.79593856 3.64379545 -38 2 C-36.9171875 1.79503906 -35.834375 1.59007813 -34.71875 1.37890625 C-22.90858798 -0.51542284 -12.32292519 0 0 0 Z M19 187 C19 187.66 19 188.32 19 189 C18.43152344 189.23589844 17.86304688 189.47179687 17.27734375 189.71484375 C14.47533824 191.29607842 12.71800739 193.1753783 10.5625 195.5625 C9.82128906 196.36816406 9.08007812 197.17382812 8.31640625 198.00390625 C2.74341709 205.21214012 0.22829708 210.96871383 0.30078125 220.1171875 C0.29362595 221.05499054 0.28647064 221.99279358 0.27909851 222.95901489 C0.2713614 224.93051208 0.27624837 226.90209578 0.29321289 228.87353516 C0.31241245 231.86137584 0.27302064 234.84453995 0.22851562 237.83203125 C0.18367391 248.17269189 0.35619705 256.5142269 7 265 C7.47187744 265.6504126 7.94375488 266.3008252 8.42993164 266.97094727 C9.82613385 268.85510212 9.82613385 268.85510212 12 271 C12.66 271 13.32 271 14 271 C14.185625 271.556875 14.37125 272.11375 14.5625 272.6875 C20.53191496 282.29047189 36.39026994 286.13984376 46.8125 288.6875 C63.93092258 290.36577672 80.22910212 286.55433779 94 276 C96.54609902 273.81441057 98.81349045 271.54142125 101 269 C101.70125 268.2575 102.4025 267.515 103.125 266.75 C112.92529476 252.37623436 113.59386117 235.00537136 111.53515625 218.20703125 C109.2330305 206.80537887 103.62114883 196.86388576 95 189 C94.34 189 93.68 189 93 189 C92.505 187.515 92.505 187.515 92 186 C71.94832293 171.39926427 38.54984685 170.97476496 19 187 Z " fill="#FF5114" transform="translate(991,0)"/>
<path d="M0 0 C7.95302277 -0.08205107 15.90032333 -0.08109084 23.85351562 0.00439453 C25.9436144 0.02675168 28.03380967 0.04299121 30.12402344 0.04736328 C51.21345246 0.13133473 74.38895751 4.96838704 93.06884766 14.89306641 C95.4379923 16.10022156 97.84208168 17.08773575 100.32275391 18.04150391 C100.32275391 18.70150391 100.32275391 19.36150391 100.32275391 20.04150391 C100.87962891 20.30962891 101.43650391 20.57775391 102.01025391 20.85400391 C110.07106296 24.99333829 116.82689364 29.69651492 121.99853516 37.20947266 C123.24368462 39.04756923 123.24368462 39.04756923 124.74853516 40.40869141 C144.27917636 60.66627956 143.94863614 92.36999086 143.85400391 118.44775391 C143.85670744 121.11422619 143.86059336 123.78067673 143.86560059 126.44714355 C143.872802 131.9903987 143.86348173 137.53343804 143.84423828 143.07666016 C143.82239727 149.44073719 143.82960321 155.80430276 143.8515439 162.16836786 C143.86981185 167.69348031 143.87220372 173.21844073 143.86178923 178.74357367 C143.85562723 182.01736443 143.85614072 185.29086835 143.86793518 188.56465149 C143.96054936 221.45840986 143.96054936 221.45840986 136.94775391 230.72900391 C127.18034132 239.33362928 116.36554234 239.35765096 103.77587891 239.23681641 C102.63866394 239.23398651 101.50144897 239.23115662 100.32977295 239.22824097 C96.7439869 239.21716249 93.15846279 239.19208164 89.57275391 239.16650391 C87.12223671 239.15645815 84.67171555 239.14733511 82.22119141 239.13916016 C76.25495817 239.11726374 70.28887476 239.08391162 64.32275391 239.04150391 C63.09576295 234.85897156 62.05517788 230.95266226 61.69775391 226.60400391 C61.58560547 225.3065625 61.58560547 225.3065625 61.47119141 223.98291016 C61.39771484 223.02191406 61.39771484 223.02191406 61.32275391 222.04150391 C60.50033203 222.70537109 59.67791016 223.36923828 58.83056641 224.05322266 C45.13517817 234.95140411 31.23152695 239.95782961 14.32275391 244.04150391 C13.60587402 244.22245605 12.88899414 244.4034082 12.15039062 244.58984375 C4.58960218 246.32262209 -2.94561263 246.52173637 -10.67724609 246.54150391 C-11.71839569 246.54651917 -11.71839569 246.54651917 -12.78057861 246.55163574 C-38.91221302 246.55911154 -63.96724497 239.1666102 -84.67724609 223.04150391 C-85.74458984 222.24292969 -85.74458984 222.24292969 -86.83349609 221.42822266 C-98.73541725 211.91140872 -108.19535436 195.10643021 -109.91641235 179.93292236 C-110.23111801 175.29671093 -110.24769987 170.66675907 -110.19873047 166.02172852 C-110.17729917 163.6099767 -110.1986294 161.20121236 -110.22412109 158.78955078 C-110.26040509 138.09111957 -102.98565723 121.73740206 -88.56787109 106.86572266 C-63.09546232 83.88960994 -29.28866337 82.06444027 3.32275391 83.04150391 C16.15106604 83.75632298 47.78092154 87.49967154 57.32275391 97.04150391 C57.77672575 89.6266304 56.51424524 84.69398946 52.63525391 78.22900391 C51.32275391 76.04150391 51.32275391 76.04150391 51.32275391 74.04150391 C50.66275391 74.04150391 50.00275391 74.04150391 49.32275391 74.04150391 C48.76587891 73.46400391 48.20900391 72.88650391 47.63525391 72.29150391 C34.97090944 59.96943902 15.18685665 60.86362193 -1.22998047 60.91113281 C-3.41039084 60.9164627 -5.59059217 60.91116922 -7.77099609 60.90478516 C-27.05635897 60.68646535 -27.05635897 60.68646535 -45.86474609 64.29150391 C-46.60668213 64.50895264 -47.34861816 64.72640137 -48.11303711 64.95043945 C-53.92701867 66.69644942 -59.56620469 68.79618021 -65.17333984 71.12353516 C-67.67724609 72.04150391 -67.67724609 72.04150391 -70.67724609 72.04150391 C-71.39735955 67.63195808 -72.10911498 63.22116466 -72.81347656 58.80908203 C-73.05374979 57.31132517 -73.29622122 55.8139191 -73.54101562 54.31689453 C-73.89443723 52.15308876 -74.23968073 49.98810432 -74.58349609 47.82275391 C-74.79296875 46.52402344 -75.00244141 45.22529297 -75.21826172 43.88720703 C-75.90239109 38.15507624 -76.49049103 32.67433353 -73.86474609 27.35400391 C-73.49994141 26.60892578 -73.13513672 25.86384766 -72.75927734 25.09619141 C-70.09969165 20.04585902 -70.09969165 20.04585902 -68.67724609 18.04150391 C-68.01724609 18.04150391 -67.35724609 18.04150391 -66.67724609 18.04150391 C-66.18224609 16.55650391 -66.18224609 16.55650391 -65.67724609 15.04150391 C-64.14599609 13.79541016 -64.14599609 13.79541016 -62.17724609 12.60400391 C-61.54818359 12.21341797 -60.91912109 11.82283203 -60.27099609 11.42041016 C-41.48795346 1.43484683 -20.86072432 0.23544836 0 0 Z M-17.80224609 149.56103516 C-20.32761888 154.24875838 -20.36278048 158.10553397 -20.30224609 163.35400391 C-20.29749268 164.29228027 -20.29273926 165.23055664 -20.2878418 166.19726562 C-20.07943393 173.19023571 -18.89480209 178.09053836 -13.67724609 183.04150391 C-13.20544922 183.56228516 -12.73365234 184.08306641 -12.24755859 184.61962891 C-10.40209636 186.29064446 -8.64203561 187.16748571 -6.36474609 188.16650391 C-5.62611328 188.49908203 -4.88748047 188.83166016 -4.12646484 189.17431641 C10.76182702 194.44576903 28.33763019 190.10924307 42.32275391 184.04150391 C44.74129033 182.80263822 47.01292943 181.47872803 49.32275391 180.04150391 C49.32275391 179.38150391 49.32275391 178.72150391 49.32275391 178.04150391 C49.87962891 178.00025391 50.43650391 177.95900391 51.01025391 177.91650391 C54.52942791 176.58492455 56.53744376 174.25887018 58.32275391 171.04150391 C59.03706125 167.64467168 59.02330079 164.37655117 58.94775391 160.91650391 C58.97675781 159.57652344 58.97675781 159.57652344 59.00634766 158.20947266 C59.00197359 152.86901051 59.00197359 152.86901051 56.05712891 148.58056641 C55.15478516 148.07267578 54.25244141 147.56478516 53.32275391 147.04150391 C52.61376953 146.59806641 51.90478516 146.15462891 51.17431641 145.69775391 C38.96614002 139.35806933 27.61126388 137.66624323 14.01025391 137.54150391 C12.81803223 137.5230542 11.62581055 137.50460449 10.39746094 137.4855957 C-1.32999298 137.56820645 -10.14662357 140.48405624 -17.80224609 149.56103516 Z " fill="#FF5114" transform="translate(728.67724609375,110.95849609375)"/>
<path d="M0 0 C7.9455673 -0.08103688 15.88584129 -0.07661579 23.83154297 0.00878906 C25.92164174 0.03114621 28.01183701 0.04738574 30.10205078 0.05175781 C54.0807151 0.14723328 82.40824821 6.0182329 102.30078125 20.04589844 C103.70070313 21.00689453 103.70070313 21.00689453 105.12890625 21.98730469 C110.30462551 25.63383417 115.10775884 29.28625138 119.30078125 34.04589844 C119.30078125 34.70589844 119.30078125 35.36589844 119.30078125 36.04589844 C119.89890625 36.29339844 120.49703125 36.54089844 121.11328125 36.79589844 C123.61705044 38.22662369 124.78150513 39.61505664 126.30078125 42.04589844 C126.30078125 42.70589844 126.30078125 43.36589844 126.30078125 44.04589844 C126.96078125 44.04589844 127.62078125 44.04589844 128.30078125 44.04589844 C128.69910156 44.85414063 129.09742188 45.66238281 129.5078125 46.49511719 C130.03761719 47.56375 130.56742188 48.63238281 131.11328125 49.73339844 C131.63535156 50.78914063 132.15742187 51.84488281 132.6953125 52.93261719 C134.21936552 55.99048963 134.21936552 55.99048963 135.87109375 58.56933594 C140.46878692 66.53364597 141.6102401 75.9462397 142.40527344 84.96044922 C142.48977627 85.91320803 142.5742791 86.86596684 142.66134262 87.84759712 C143.59862351 99.38299471 143.59005779 110.9095829 143.56640625 122.47558594 C143.5677586 124.84961995 143.56970384 127.22365369 143.57220459 129.59768677 C143.57512563 134.53064659 143.57095449 139.46353317 143.56152344 144.39648438 C143.55009291 150.67643453 143.55673054 156.95621433 143.56866837 163.23615837 C143.57593704 168.12300879 143.5735768 173.0098196 143.56841278 177.8966713 C143.56709206 180.21121364 143.5686677 182.52575975 143.57337189 184.8402977 C143.63426417 223.17777086 143.63426417 223.17777086 135.49609375 232.00292969 C126.56851528 240.03120996 114.26759584 239.35337564 102.875 239.24121094 C101.20459404 239.23696609 101.20459404 239.23696609 99.5004425 239.2326355 C95.99627231 239.22157545 92.4923722 239.19649866 88.98828125 239.17089844 C86.59049852 239.16085028 84.19271173 239.15172767 81.79492188 239.14355469 C75.96345187 239.12168285 70.13213586 239.08835029 64.30078125 239.04589844 C63.96673971 237.29001493 63.63680094 235.53335059 63.30859375 233.77636719 C63.12441895 232.79821045 62.94024414 231.82005371 62.75048828 230.81225586 C62.2692837 227.85214233 62.13890584 225.04059347 62.30078125 222.04589844 C61.75808594 222.47902344 61.21539063 222.91214844 60.65625 223.35839844 C59.94082031 223.91527344 59.22539063 224.47214844 58.48828125 225.04589844 C57.78058594 225.60277344 57.07289063 226.15964844 56.34375 226.73339844 C54.30078125 228.04589844 54.30078125 228.04589844 51.30078125 228.04589844 C51.30078125 228.70589844 51.30078125 229.36589844 51.30078125 230.04589844 C49.32688374 231.15945731 47.34634211 232.26124105 45.36328125 233.35839844 C44.26113281 233.97328125 43.15898438 234.58816406 42.0234375 235.22167969 C37.93356919 237.33606026 33.69744087 238.71196152 29.30078125 240.04589844 C28.04189087 240.43974731 28.04189087 240.43974731 26.75756836 240.84155273 C13.70143978 244.78753711 1.19460382 246.63174673 -12.38671875 246.60839844 C-14.35233765 246.61166138 -14.35233765 246.61166138 -16.35766602 246.61499023 C-25.12446968 246.46668278 -33.19970488 245.13117873 -41.69921875 243.04589844 C-43.63637718 242.6276466 -45.57382325 242.21072177 -47.51171875 241.79589844 C-59.56663197 238.69744685 -70.95642292 233.84677414 -80.69921875 226.04589844 C-81.63121094 225.33691406 -82.56320312 224.62792969 -83.5234375 223.89746094 C-88.69032571 219.90519306 -88.69032571 219.90519306 -90.69921875 218.04589844 C-90.69921875 217.38589844 -90.69921875 216.72589844 -90.69921875 216.04589844 C-91.35921875 216.04589844 -92.01921875 216.04589844 -92.69921875 216.04589844 C-93.68921875 213.57089844 -93.68921875 213.57089844 -94.69921875 211.04589844 C-95.35921875 211.04589844 -96.01921875 211.04589844 -96.69921875 211.04589844 C-110.81541491 194.34845498 -112.07857 170.53237612 -110.52929688 149.76855469 C-109.35367302 139.09430623 -104.76449988 130.3053614 -99.69921875 121.04589844 C-99.02495368 119.71639145 -98.35365046 118.3852794 -97.69921875 117.04589844 C-97.03921875 117.04589844 -96.37921875 117.04589844 -95.69921875 117.04589844 C-95.6115625 116.45679688 -95.52390625 115.86769531 -95.43359375 115.26074219 C-94.50189683 112.45078392 -93.23133583 111.46583584 -90.94921875 109.60839844 C-88.54714139 107.61092631 -86.35952302 105.68921792 -84.19921875 103.42089844 C-80.98818994 100.37042106 -77.53737629 98.22781539 -73.69921875 96.04589844 C-73.10496094 95.706875 -72.51070312 95.36785156 -71.8984375 95.01855469 C-45.71106782 81.05569591 -10.29780809 79.56592922 18.30078125 85.04589844 C19.44933594 85.25214844 20.59789062 85.45839844 21.78125 85.67089844 C34.36761506 88.12950027 46.30910262 92.5832987 58.30078125 97.04589844 C57.90125042 94.66687393 57.4818922 92.29423088 57.05078125 89.92089844 C56.94121094 89.25574219 56.83164063 88.59058594 56.71875 87.90527344 C55.83152896 83.14229731 54.16577834 80.03558447 51.30078125 76.04589844 C51.30078125 75.38589844 51.30078125 74.72589844 51.30078125 74.04589844 C49.98078125 73.38589844 48.66078125 72.72589844 47.30078125 72.04589844 C47.30078125 71.38589844 47.30078125 70.72589844 47.30078125 70.04589844 C46.45515625 69.77777344 45.60953125 69.50964844 44.73828125 69.23339844 C41.30078125 68.04589844 41.30078125 68.04589844 37.98828125 66.60839844 C25.12767682 61.07665374 12.59356098 60.87545796 -1.25195312 60.91552734 C-3.4323635 60.92085724 -5.61256483 60.91556375 -7.79296875 60.90917969 C-27.10735396 60.6975759 -27.10735396 60.6975759 -45.94921875 64.29589844 C-46.69445801 64.51334717 -47.43969727 64.7307959 -48.20751953 64.95483398 C-53.75027075 66.62100483 -59.06144739 68.69507836 -64.31640625 71.12792969 C-66.69921875 72.04589844 -66.69921875 72.04589844 -70.69921875 72.04589844 C-74.08820476 57.27960225 -78.10491004 37.57369379 -72.69921875 23.04589844 C-72.03921875 23.04589844 -71.37921875 23.04589844 -70.69921875 23.04589844 C-70.45171875 22.30339844 -70.20421875 21.56089844 -69.94921875 20.79589844 C-66.61380338 13.45798461 -58.55423601 9.95997462 -51.390625 7.13574219 C-48.8459338 6.32867375 -46.29324706 5.67808547 -43.69921875 5.04589844 C-41.79076172 4.53542969 -41.79076172 4.53542969 -39.84375 4.01464844 C-26.58172575 0.62428831 -13.63111614 0.16912948 0 0 Z M-13.69921875 145.04589844 C-13.69921875 145.70589844 -13.69921875 146.36589844 -13.69921875 147.04589844 C-14.68921875 147.37589844 -15.67921875 147.70589844 -16.69921875 148.04589844 C-20.91777981 154.77584368 -21.72447254 162.30418611 -20.69921875 170.04589844 C-18.78463303 176.97282653 -14.80823586 183.61884883 -8.5234375 187.33105469 C6.12642397 194.20048553 22.54423401 191.16721477 37.30078125 186.10839844 C41.37782487 184.53480265 44.78782295 182.68061716 48.30078125 180.04589844 C48.89761719 179.64242187 49.49445313 179.23894531 50.109375 178.82324219 C53.50229046 176.51662398 56.03936917 174.53676733 58.30078125 171.04589844 C58.92544518 167.73372692 58.81039581 164.41099323 58.80078125 161.04589844 C58.82914063 160.14355469 58.8575 159.24121094 58.88671875 158.31152344 C58.9642623 152.92264432 58.9642623 152.92264432 56.046875 148.57714844 C55.14066406 148.07183594 54.23445313 147.56652344 53.30078125 147.04589844 C52.58019531 146.60246094 51.85960937 146.15902344 51.1171875 145.70214844 C39.13818501 139.55694092 27.44398494 137.36770511 14.05078125 137.48339844 C12.766875 137.45955078 11.48296875 137.43570313 10.16015625 137.41113281 C0.40954531 137.42611838 -5.70292399 139.71503526 -13.69921875 145.04589844 Z " fill="#FF5114" transform="translate(1315.69921875,110.9541015625)"/>
<path d="M0 0 C7.95155884 -0.08204617 15.89739218 -0.08107511 23.84912109 0.00439453 C25.93921987 0.02675168 28.02941513 0.04299121 30.11962891 0.04736328 C51.2393764 0.13145545 74.31458582 5.06177755 93.19335938 14.66650391 C93.85464844 14.9998877 94.5159375 15.33327148 95.19726562 15.67675781 C100.14593677 18.25360157 104.76814913 21.19182539 109.31835938 24.41650391 C109.92405762 24.84527832 110.52975586 25.27405273 111.15380859 25.71582031 C112.58497313 26.7683077 113.95850133 27.89837324 115.31835938 29.04150391 C115.31835938 29.70150391 115.31835938 30.36150391 115.31835938 31.04150391 C115.95773437 31.30962891 116.59710938 31.57775391 117.25585938 31.85400391 C119.31835938 33.04150391 119.31835938 33.04150391 120.31835938 36.04150391 C121.30835938 36.37150391 122.29835938 36.70150391 123.31835938 37.04150391 C137.82426675 55.25894408 143.64326333 76.13236735 143.59301758 99.0769043 C143.59812851 100.30798416 143.60323944 101.53906403 143.60850525 102.80744934 C143.61991752 106.14217269 143.62249246 109.47664521 143.61994195 112.81137013 C143.61886191 115.61186529 143.62378135 118.41233825 143.62854737 121.21282858 C143.63958566 127.82541546 143.64011124 134.4379455 143.6340332 141.05053711 C143.62798875 147.83926332 143.6403294 154.62778252 143.66160327 161.41647345 C143.67929025 167.27930827 143.68520978 173.14207759 143.68196553 179.00493807 C143.68016487 182.49168738 143.6826662 185.97828874 143.69668007 189.4650135 C143.71173591 193.35525598 143.70222651 197.24523962 143.69067383 201.13549805 C143.69831757 202.26882568 143.7059613 203.40215332 143.71383667 204.56982422 C143.66193197 212.52257101 142.93185869 220.81450527 139.31835938 228.04150391 C138.65835938 228.04150391 137.99835938 228.04150391 137.31835938 228.04150391 C137.17333984 228.95029297 137.17333984 228.95029297 137.02539062 229.87744141 C135.93062376 233.22827479 133.86853214 234.18078266 130.88848877 235.8586731 C122.59780645 239.67422982 112.7171075 239.32267576 103.77148438 239.23681641 C102.63426941 239.23398651 101.49705444 239.23115662 100.32537842 239.22824097 C96.73959237 239.21716249 93.15406826 239.19208164 89.56835938 239.16650391 C87.11784218 239.15645815 84.66732102 239.14733511 82.21679688 239.13916016 C76.25055213 239.11726369 70.28449995 239.08282067 64.31835938 239.04150391 C63.32835937 231.12150391 63.32835937 231.12150391 62.31835938 223.04150391 C59.07538448 223.04150391 57.31391284 225.25764531 54.81835938 227.22900391 C49.58892416 231.24977482 44.38977533 234.4560684 38.31835938 237.04150391 C37.56167969 237.37537109 36.805 237.70923828 36.02539062 238.05322266 C33.15691851 239.20699602 30.27641523 240.13858936 27.31835938 241.04150391 C26.62387695 241.25871094 25.92939453 241.47591797 25.21386719 241.69970703 C12.93679823 245.4019059 1.06209298 246.52785388 -11.68164062 246.54150391 C-12.37316223 246.54581421 -13.06468384 246.55012451 -13.77716064 246.55456543 C-23.40282915 246.58029105 -32.33960722 245.38141196 -41.68164062 243.04150391 C-43.76487713 242.56191646 -45.84819621 242.08268737 -47.93164062 241.60400391 C-56.84675316 239.31898834 -64.80242898 235.75866351 -72.68164062 231.04150391 C-73.65101563 230.46916016 -74.62039063 229.89681641 -75.61914062 229.30712891 C-76.60914063 228.70384766 -77.59914062 228.10056641 -78.61914062 227.47900391 C-79.53566406 226.92083984 -80.4521875 226.36267578 -81.39648438 225.78759766 C-83.77610677 223.96932208 -84.50494402 222.72707463 -85.68164062 220.04150391 C-87.71523543 218.77345825 -87.71523543 218.77345825 -89.68164062 218.04150391 C-89.68164062 217.38150391 -89.68164062 216.72150391 -89.68164062 216.04150391 C-90.53435547 215.74373047 -90.53435547 215.74373047 -91.40429688 215.43994141 C-94.57501195 213.49291568 -96.19675705 210.76102235 -98.11914062 207.66650391 C-98.51311035 207.03365479 -98.90708008 206.40080566 -99.31298828 205.7487793 C-111.74330054 185.34145371 -112.61428742 162.51790905 -107.62695312 139.51806641 C-106.22381379 134.35776058 -104.2195265 129.73735262 -101.68164062 125.04150391 C-101.31296875 124.34798828 -100.94429687 123.65447266 -100.56445312 122.93994141 C-91.65782742 107.52226518 -77.75747225 97.69057897 -61.68164062 91.04150391 C-60.75609375 90.64060547 -59.83054687 90.23970703 -58.87695312 89.82666016 C-22.41303298 75.14134277 20.7685166 83.08813838 56.31835938 96.04150391 C56.97835937 96.37150391 57.63835937 96.70150391 58.31835938 97.04150391 C57.62243604 85.33079397 54.99851747 78.23492417 46.31835938 70.04150391 C32.76724587 60.21030391 15.11165119 60.86299649 -0.88256836 60.91113281 C-2.9816824 60.91647222 -5.08058005 60.91116021 -7.1796875 60.90478516 C-25.97123014 60.7864427 -25.97123014 60.7864427 -44.43164062 63.79150391 C-45.13063477 63.96270752 -45.82962891 64.13391113 -46.54980469 64.31030273 C-51.97826181 65.70471745 -57.07305212 67.64068378 -62.16601562 69.99072266 C-64.67506593 71.03875764 -67.00471377 71.60337379 -69.68164062 72.04150391 C-72.52276119 60.67702163 -73.84658457 49.17584475 -73.99414062 37.47900391 C-74.0117041 36.74174072 -74.02926758 36.00447754 -74.04736328 35.24487305 C-74.04151205 30.10456505 -72.97487826 26.64471813 -70.68164062 22.04150391 C-70.39289063 21.31962891 -70.10414063 20.59775391 -69.80664062 19.85400391 C-68.19440263 17.25650935 -66.14625157 15.83394823 -63.68164062 14.04150391 C-62.79476562 13.38150391 -61.90789062 12.72150391 -60.99414062 12.04150391 C-42.81180544 1.06349021 -20.615951 0.23240794 0 0 Z M-17.68164062 149.04150391 C-21.478338 154.73654996 -22.19301638 161.52701486 -21.43164062 168.24853516 C-20.3296569 173.23697932 -18.08325574 177.55848903 -15.68164062 182.04150391 C-15.02164063 182.04150391 -14.36164063 182.04150391 -13.68164062 182.04150391 C-13.35164063 183.03150391 -13.02164063 184.02150391 -12.68164062 185.04150391 C-10.57240936 186.47682538 -10.57240936 186.47682538 -7.99414062 187.66650391 C-7.14464844 188.09189453 -6.29515625 188.51728516 -5.41992188 188.95556641 C8.19491432 194.35488804 24.89454649 190.83155094 37.94335938 185.47900391 C41.11461981 184.08451815 44.23161218 182.61386105 47.31835938 181.04150391 C47.31835938 180.38150391 47.31835938 179.72150391 47.31835938 179.04150391 C48.04023438 178.83525391 48.76210938 178.62900391 49.50585938 178.41650391 C53.10742096 176.65574046 55.39932617 174.52542347 57.31835938 171.04150391 C58.03047746 167.64424992 58.01890671 164.37657186 57.94335938 160.91650391 C57.97236328 159.57652344 57.97236328 159.57652344 58.00195312 158.20947266 C57.99706096 152.87047324 57.99706096 152.87047324 55.05664062 148.58056641 C54.15300781 148.07267578 53.249375 147.56478516 52.31835938 147.04150391 C51.59777344 146.59806641 50.8771875 146.15462891 50.13476562 145.69775391 C47.56502308 144.37948043 44.9699988 143.18669423 42.31835938 142.04150391 C41.4134375 141.64318359 40.50851562 141.24486328 39.57617188 140.83447266 C31.08584676 137.77752354 22.6478688 137.55919402 13.69335938 137.41650391 C12.46641357 137.38129639 11.23946777 137.34608887 9.9753418 137.30981445 C-0.59502526 137.3247293 -10.93892185 140.34122162 -17.68164062 149.04150391 Z " fill="#FF5114" transform="translate(330.681640625,110.95849609375)"/>
<path d="M0 0 C0 31.68 0 63.36 0 96 C14.52 96 29.04 96 44 96 C46.76528263 98.76528263 46.45277817 105.83007142 47 109.5625 C47.18224121 110.79653564 47.36448242 112.03057129 47.55224609 113.30200195 C48.65542371 120.9944706 49.4480244 128.5639686 49.78125 136.328125 C50.07558714 141.26878419 50.7219093 146.14280269 51.42822266 151.03979492 C51.65695104 152.68835368 51.83375788 154.34397277 52 156 C51 157 51 157 48.86766052 157.12025452 C47.92834183 157.11803391 46.98902313 157.11581329 46.02124023 157.11352539 C44.96021591 157.11344986 43.89919159 157.11337433 42.80601501 157.11329651 C41.651866 157.10813522 40.49771698 157.10297394 39.30859375 157.09765625 C38.13361832 157.0962413 36.95864288 157.09482635 35.74806213 157.09336853 C31.97784936 157.08774992 28.20769496 157.07519426 24.4375 157.0625 C21.88867273 157.0574874 19.33984453 157.05292408 16.79101562 157.04882812 C10.52732367 157.03777444 4.26366601 157.02101821 -2 157 C-1.91542483 167.79692095 -1.8204753 178.59369692 -1.71247292 189.39041042 C-1.66263884 194.40437011 -1.61630808 199.41831003 -1.578125 204.43237305 C-1.54110887 209.27595998 -1.49470554 214.11937622 -1.44193649 218.96281624 C-1.42347899 220.80583753 -1.40833953 222.64889529 -1.39665604 224.49197197 C-1.37964471 227.08393513 -1.35057565 229.67551469 -1.31884766 232.26733398 C-1.31668747 233.02043854 -1.31452728 233.77354309 -1.31230164 234.54946899 C-1.23982231 239.21864816 -0.58642414 243.46201599 0.56150246 247.9903574 C1.1487478 250.68171401 1.14058936 253.25850754 1 256 C1.66 256 2.32 256 3 256 C3.33 257.32 3.66 258.64 4 260 C4.66 260 5.32 260 6 260 C6.556875 260.598125 7.11375 261.19625 7.6875 261.8125 C13.73479415 267.53291339 21.97238155 268.36154041 29.95703125 268.2890625 C38.21983561 267.50414912 46.48522936 264.9230385 54.3125 262.25 C58 261 58 261 61 261 C61.1533402 267.75832725 61.25770894 274.51619883 61.32958984 281.27587891 C61.35958469 283.57064578 61.40039491 285.86529975 61.45263672 288.15966797 C62.03242241 314.29549754 62.03242241 314.29549754 52.78515625 324.42651367 C38.89867737 338.15298774 17.37174496 337.34818781 -0.88134766 337.30615234 C-25.5743226 336.87047162 -47.0780437 330.53749189 -65 313 C-66.33391631 311.33379988 -67.66736428 309.66722452 -69 308 C-69.66 307.67 -70.32 307.34 -71 307 C-71.6978214 305.67413935 -72.38327691 304.34085633 -73.01953125 302.984375 C-74.22174123 300.55121695 -75.58700057 298.22901916 -76.9375 295.875 C-87.08865522 277.15566673 -87.44645676 256.6967998 -87.29296875 235.9296875 C-87.28735836 233.66855148 -87.28309511 231.40741176 -87.28010559 229.14627075 C-87.26877029 223.25764509 -87.23940336 217.36924915 -87.20599365 211.48071289 C-87.17504584 205.44680893 -87.16154797 199.41286707 -87.14648438 193.37890625 C-87.11452045 181.58582146 -87.06184789 169.79296596 -87 158 C-97.56 158 -108.12 158 -119 158 C-119 139.52 -119 121.04 -119 102 C-116.10075634 100.55037817 -113.47699645 100.77873519 -110.2421875 100.68359375 C-109.57913605 100.66281265 -108.91608459 100.64203156 -108.23294067 100.62062073 C-106.11373306 100.55520769 -103.994401 100.49627895 -101.875 100.4375 C-100.43878919 100.39430691 -99.00259098 100.35069236 -97.56640625 100.30664062 C-94.04440406 100.19953501 -90.52226175 100.09824425 -87 100 C-87.02141052 99.43418213 -87.04282104 98.86836426 -87.06488037 98.28540039 C-87.28627923 92.31465746 -87.47536266 86.34347024 -87.64697266 80.37109375 C-87.71479002 78.15208383 -87.79042944 75.93329691 -87.87451172 73.71484375 C-88.66511087 52.60679884 -87.41125631 36.01562875 -72.4375 19.8125 C-52.47980013 0.84816981 -26.09712172 0 0 0 Z " fill="#FF5114" transform="translate(1589,20)"/>
<path d="M0 0 C0 31.68 0 63.36 0 96 C14.85 96 29.7 96 45 96 C46.46832753 101.87331012 47.24844122 105.97459401 47.4375 111.8125 C47.73787809 118.85886934 48.59615415 125.68115949 49.89624023 132.61254883 C51.35333934 140.82016544 51.4970147 148.44924995 52 157 C34.51 157 17.02 157 -1 157 C-0.87985563 171.8145497 -0.87985563 171.8145497 -0.7421875 186.62890625 C-0.68208541 192.67884116 -0.62395229 198.72874651 -0.578125 204.77880859 C-0.54101153 209.66130985 -0.49458404 214.54364492 -0.44193649 219.4260025 C-0.42353001 221.28050037 -0.40837245 223.13503368 -0.39665604 224.98958588 C-1.06909333 241.70648716 -1.06909333 241.70648716 4 257 C4 257.99 4 258.98 4 260 C4.56976563 260.27714844 5.13953125 260.55429687 5.7265625 260.83984375 C7.99913007 261.99955606 10.17579711 263.26998602 12.375 264.5625 C15.99903859 266.56603353 18.80991672 267.74346429 23 268 C23.71542969 268.05027344 24.43085938 268.10054688 25.16796875 268.15234375 C35.66347417 268.5694942 45.41567349 264.96365476 55.28515625 261.76953125 C58 261 58 261 61 261 C61.05080039 267.72604133 61.08577579 274.45203298 61.10986328 281.17822266 C61.11990733 283.46535084 61.13354508 285.75246623 61.15087891 288.03955078 C61.17519708 291.33108686 61.18649924 294.62245282 61.1953125 297.9140625 C61.20563507 298.93303619 61.21595764 299.95200989 61.22659302 301.00186157 C61.22773407 308.25738146 60.02184388 313.541008 56.375 319.875 C55.92898437 320.65617187 55.48296875 321.43734375 55.0234375 322.2421875 C54.68570313 322.82226562 54.34796875 323.40234375 54 324 C53.34 324 52.68 324 52 324 C51.67 324.99 51.34 325.98 51 327 C49.43359375 328.28125 49.43359375 328.28125 47.4375 329.5 C46.79683594 329.9021875 46.15617188 330.304375 45.49609375 330.71875 C38.63871478 334.23865658 32.4882804 335.59460374 24.875 336.1875 C23.92069092 336.26572998 22.96638184 336.34395996 21.9831543 336.42456055 C-9.36074309 338.77991201 -39.27758542 336.17676377 -64 315 C-68 310.70731707 -68 310.70731707 -68 307 C-68.66 307 -69.32 307 -70 307 C-85.71823033 287.87885383 -86.45877493 262.71308261 -86.29296875 239.25 C-86.2873612 236.89632439 -86.2830966 234.54264523 -86.28010559 232.18896484 C-86.268748 226.04713979 -86.23936069 219.90553358 -86.20599365 213.76379395 C-86.17509507 207.47537189 -86.16155829 201.18691387 -86.14648438 194.8984375 C-86.1144809 182.59884759 -86.0617889 170.29947638 -86 158 C-96.89 158 -107.78 158 -119 158 C-119 139.52 -119 121.04 -119 102 C-115.57117059 100.85705686 -112.75917162 100.79035528 -109.14453125 100.68359375 C-108.48289474 100.66281265 -107.82125824 100.64203156 -107.13957214 100.62062073 C-105.03065148 100.55535273 -102.92160865 100.49634656 -100.8125 100.4375 C-99.38084685 100.39429311 -97.94920596 100.35067812 -96.51757812 100.30664062 C-93.01184846 100.19969494 -89.50598214 100.09836359 -86 100 C-86.0169693 99.42529968 -86.0339386 98.85059937 -86.05142212 98.25848389 C-86.22732195 92.22310239 -86.38677572 86.18743841 -86.53710938 80.15136719 C-86.59515083 77.90516284 -86.65724613 75.65905914 -86.72363281 73.41308594 C-86.81887473 70.16620246 -86.89904859 66.91922454 -86.9765625 63.671875 C-87.00875885 62.68386902 -87.0409552 61.69586304 -87.0741272 60.67791748 C-87.40415331 44.97012426 -83.26188985 33.08767339 -73.7109375 20.64453125 C-71.77846093 18.78705948 -70.54018133 18.61628872 -68 18 C-67.505 16.515 -67.505 16.515 -67 15 C-66.01 15 -65.02 15 -64 15 C-64 14.34 -64 13.68 -64 13 C-44.03758953 1.01582103 -22.89526961 0 0 0 Z " fill="#FF5114" transform="translate(145,20)"/>
<path d="M0 0 C0 114.84 0 229.68 0 348 C-28.71 348 -57.42 348 -87 348 C-87.08824266 310.00304816 -87.16207588 272.00619324 -87.20426132 234.0091682 C-87.20926392 229.51953968 -87.21444124 225.02991139 -87.21972656 220.5402832 C-87.2207758 219.64650881 -87.22182505 218.75273441 -87.22290608 217.83187594 C-87.24029392 203.37500471 -87.27182264 188.91819734 -87.30861118 174.46136395 C-87.34606579 159.61859228 -87.3682454 144.77585397 -87.37635398 129.93303698 C-87.38183239 120.78003988 -87.39911247 111.62722332 -87.43166587 102.47428181 C-87.45286959 96.19102816 -87.45918684 89.90786734 -87.45400551 83.62458054 C-87.4514528 80.0036949 -87.45526397 76.38312393 -87.4768219 72.76229477 C-87.50008784 68.82557207 -87.49190226 64.88925253 -87.48101807 60.95246887 C-87.49266943 59.82305132 -87.5043208 58.69363377 -87.51632524 57.52999145 C-87.40142454 42.07991254 -81.72384808 28.96537619 -71 18 C-63.60057192 10.77265164 -53.77973505 6.93750283 -44 4 C-42.60394531 3.50113281 -42.60394531 3.50113281 -41.1796875 2.9921875 C-27.99306372 -1.12255751 -13.51856533 0 0 0 Z " fill="#FF5114" transform="translate(590,0)"/>
</svg>
