<?xml version="1.0" encoding="UTF-8"?>
<svg version="1.1" xmlns="http://www.w3.org/2000/svg" width="1587" height="603">
<path d="M0 0 C18.45820064 0 18.45820064 0 24.5625 2.125 C25.25303467 2.34583252 25.94356934 2.56666504 26.6550293 2.79418945 C35.26516658 5.61581771 43.96069045 8.81161897 52 13 C52 13.66 52 14.32 52 15 C52.804375 15.268125 53.60875 15.53625 54.4375 15.8125 C55.283125 16.204375 56.12875 16.59625 57 17 C57.495 18.485 57.495 18.485 58 20 C60.21394004 20.84058625 60.21394004 20.84058625 63 21 C65.92545251 19.57302847 65.92545251 19.57302847 68.875 17.4375 C79.92288214 10.17723591 92.22307582 6.21390803 105 3 C106.2849939 2.62161987 106.2849939 2.62161987 107.59594727 2.2355957 C117.05050969 -0.31876821 126.21398608 -0.49190888 135.9362793 -0.44604492 C138.66597853 -0.43756684 141.39355452 -0.46634003 144.12304688 -0.49804688 C161.98708251 -0.56844284 180.28601966 2.46357217 196.18359375 11.0703125 C198.05608905 12.06862146 198.05608905 12.06862146 200.34765625 12.90625 C203.39915436 14.16459974 206.15027491 15.71023713 209 17.375 C210.010625 17.96023437 211.02125 18.54546875 212.0625 19.1484375 C215 21 215 21 217.6875 23.1640625 C219.94591581 25.17209043 219.94591581 25.17209043 223 26 C223 26.66 223 27.32 223 28 C223.53109375 28.2165625 224.0621875 28.433125 224.609375 28.65625 C227.88669285 30.49840252 230.50802551 32.96137769 233.25 35.5 C233.80429688 35.99886719 234.35859375 36.49773438 234.9296875 37.01171875 C236.3285008 38.2968354 237.66944254 39.64433768 239 41 C239 41.66 239 42.32 239 43 C243.80518486 43 244.5286299 42.13269985 248 39 C248.86625 38.113125 249.7325 37.22625 250.625 36.3125 C253 34 253 34 256 33 C256.33 32.01 256.66 31.02 257 30 C258.55859375 28.61328125 258.55859375 28.61328125 260.4375 27.3125 C261.05496094 26.87550781 261.67242188 26.43851563 262.30859375 25.98828125 C264 25 264 25 266 25 C266 24.34 266 23.68 266 23 C268.10110996 21.82752876 270.20387886 20.65817978 272.30859375 19.4921875 C274.09490251 18.50181022 275.8787897 17.50705189 277.66015625 16.5078125 C280.42385893 14.97286396 283.20626005 13.47950172 286 12 C287.15628906 11.36578125 287.15628906 11.36578125 288.3359375 10.71875 C298.22299646 5.72722509 309.3027875 3.61722875 320 1 C320.6244249 0.82658585 321.24884979 0.65317169 321.89219666 0.47450256 C324.02945236 -0.00663023 325.92794144 -0.1462663 328.11572266 -0.17700195 C328.91821442 -0.18983719 329.72070618 -0.20267242 330.54751587 -0.21589661 C331.84270645 -0.22697701 331.84270645 -0.22697701 333.1640625 -0.23828125 C334.07014252 -0.246353 334.97622253 -0.25442474 335.90975952 -0.26274109 C337.83467712 -0.27657079 339.75961912 -0.28729793 341.68457031 -0.29516602 C343.6198667 -0.30657469 345.55513449 -0.32684512 347.49023438 -0.35668945 C383.48161112 -0.91092693 415.05331383 12.37204229 441.72045898 36.56054688 C443 38 443 38 443 40 C443.99 40.33 444.98 40.66 446 41 C446 41.66 446 42.32 446 43 C446.99 43.33 447.98 43.66 449 44 C451.04296875 46.21484375 451.04296875 46.21484375 453.1875 48.9375 C453.90292969 49.83339844 454.61835937 50.72929688 455.35546875 51.65234375 C457 54 457 54 457 56 C457.66 56 458.32 56 459 56 C459.45439453 56.85271484 459.45439453 56.85271484 459.91796875 57.72265625 C461.94931079 61.46657589 463.95999205 65.05908906 466.5625 68.4375 C469.02830703 71.79161018 470.44760063 75.25012729 471.8984375 79.13671875 C473.16932778 82.44013214 474.61647243 85.64458865 476.0625 88.875 C483.72077936 106.73788839 484.29628579 124.94474343 484.22705078 144.06005859 C484.22648567 146.25913996 484.22680517 148.45822171 484.22793579 150.65730286 C484.22850641 156.58813644 484.21679941 162.51888809 484.20278788 168.44970274 C484.19023179 174.66231584 484.18910619 180.8749311 484.18673706 187.08755493 C484.18053658 198.83458304 484.16414522 210.58157363 484.14403808 222.32858527 C484.12820579 231.71677609 484.11728938 241.10496292 484.10986328 250.49316406 C484.10933783 251.15558595 484.10881239 251.81800783 484.10827102 252.50050311 C484.10566067 255.82416207 484.10313784 259.14782108 484.10064721 262.47148013 C484.07977766 289.9810075 484.04462966 317.49050164 484 345 C480.17977559 345.06784852 476.35970887 345.10848216 472.5390625 345.14453125 C471.46664307 345.16390747 470.39422363 345.18328369 469.28930664 345.20324707 C456.33940156 345.29472215 444.43832228 341.47633538 434.125 333.4375 C433.34382813 332.83808594 432.56265625 332.23867188 431.7578125 331.62109375 C431.17773438 331.08613281 430.59765625 330.55117188 430 330 C430 329.34 430 328.68 430 328 C429.01 327.67 428.02 327.34 427 327 C416.17181812 312.77570654 413.53590037 297.35618344 413.59936523 279.85083008 C413.59360451 278.39192142 413.58651438 276.93301752 413.57821655 275.47412109 C413.56323906 272.36134743 413.5573174 269.24874376 413.55874443 266.13593483 C413.56080168 261.19377502 413.54105292 256.25183863 413.51856995 251.30973816 C413.4777938 241.69999784 413.45905199 232.0902759 413.44239807 222.48046875 C413.41997687 210.26769074 413.38604729 198.05496599 413.33519894 185.84227294 C413.31871003 181.74334599 413.30659566 177.64450358 413.30496025 173.54554176 C414.65135568 129.87693789 414.65135568 129.87693789 395.28515625 92.453125 C394 91 394 91 394 89 C393.43796875 88.731875 392.8759375 88.46375 392.296875 88.1875 C389.84449354 86.9196021 387.56072317 85.51027658 385.25 84 C384.45078125 83.484375 383.6515625 82.96875 382.828125 82.4375 C382.22484375 81.963125 381.6215625 81.48875 381 81 C381 80.34 381 79.68 381 79 C380.360625 78.9175 379.72125 78.835 379.0625 78.75 C376.39930737 78.09778956 374.49575806 77.31439107 372.0625 76.125 C357.03911803 69.32102205 340.60033993 69.39662101 325 74 C324.26265625 74.2165625 323.5253125 74.433125 322.765625 74.65625 C317.79293216 76.32707479 313.51429145 78.98548949 309.1015625 81.79296875 C307 83 307 83 305 83 C305 83.66 305 84.32 305 85 C304.01 85 303.02 85 302 85 C301.67 85.99 301.34 86.98 301 88 C299.0625 90.1875 299.0625 90.1875 297 92 C296.34 92 295.68 92 295 92 C294.7525 92.556875 294.505 93.11375 294.25 93.6875 C292.78224216 96.402852 290.93395084 98.59721259 289 101 C286.59925255 104.6323809 285.18056967 108.08294863 283.9375 112.25 C283.45603516 113.83554688 283.45603516 113.83554688 282.96484375 115.453125 C280.87726598 123.12729752 279.65523588 130.32740225 279.38783264 138.28762817 C279.33158568 139.72440027 279.33158568 139.72440027 279.27420241 141.19019806 C278.91787869 150.9250421 278.82636268 160.65755009 278.79467773 170.39794922 C278.78506022 172.32235404 278.77504815 174.24675692 278.76467896 176.17115784 C278.73804225 181.31637252 278.7168141 186.46159599 278.69667697 191.60683966 C278.67455771 197.01330946 278.64729801 202.4197535 278.62062073 207.82620239 C278.57103967 218.0287957 278.52597504 228.23140357 278.48259836 238.43402493 C278.4329271 250.06431882 278.37812147 261.69458682 278.32291877 273.32485557 C278.20963088 297.21654615 278.10267955 321.10826164 278 345 C274.00787929 345.06043545 270.0158781 345.09672937 266.0234375 345.12890625 C264.90122803 345.14618774 263.77901855 345.16346924 262.62280273 345.18127441 C247.05625923 345.27525464 234.11030004 339.87751664 222.6875 329.1875 C218.64342461 324.91967454 215.78475924 320.15049514 213 315 C212.4225 314.01 211.845 313.02 211.25 312 C206.23355993 299.96054383 206.85152319 285.856608 206.84228516 273.06787109 C206.83760523 271.59631197 206.83245977 270.12475426 206.82688904 268.65319824 C206.81568848 265.50439976 206.80721595 262.35561029 206.80076981 259.20679855 C206.78999038 254.21087992 206.76971967 249.21502665 206.74765015 244.21914673 C206.68605898 230.01933806 206.63181697 215.81953462 206.59863281 201.61962891 C206.58018943 193.76140149 206.55113661 185.90328535 206.5106281 178.04513991 C206.48972659 173.90038984 206.47412503 169.75577887 206.47182083 165.61097336 C206.46964668 161.70539694 206.45350166 157.80011046 206.42743111 153.8946228 C206.42034157 152.47626987 206.41808555 151.05788139 206.42153358 149.63951492 C206.45844344 131.5416051 204.29325333 111.73033905 192.70703125 97.2421875 C191 95 191 95 190 92 C189.01 91.67 188.02 91.34 187 91 C185.66666667 89.33333333 184.33333333 87.66666667 183 86 C182.01 85.67 181.02 85.34 180 85 C180 84.34 180 83.68 180 83 C179.30777344 82.74089844 178.61554688 82.48179688 177.90234375 82.21484375 C174.66348805 80.85914507 171.65487792 79.22487657 168.5625 77.5625 C152.60797367 69.40838539 134.99652322 68.92220053 118 74 C117.26394531 74.2165625 116.52789063 74.433125 115.76953125 74.65625 C110.79453838 76.32451108 106.51527842 78.98486156 102.1015625 81.79296875 C100 83 100 83 98 83 C98 83.66 98 84.32 98 85 C97.01 85 96.02 85 95 85 C94.505 86.485 94.505 86.485 94 88 C92.0625 90.1875 92.0625 90.1875 90 92 C89.34 92 88.68 92 88 92 C87.74089844 92.55042969 87.48179688 93.10085937 87.21484375 93.66796875 C85.32475154 97.29621649 83.00687371 100.63970092 80.75390625 104.05078125 C74.13377682 115.18262472 72.87607322 127.36959102 72.42944336 140.04199219 C72.38917243 141.12199871 72.3489015 142.20200523 72.30741024 143.31473923 C71.87216446 156.07910866 71.81543458 168.84730317 71.77020454 181.61774445 C71.75436558 186.0676067 71.73043898 190.51740592 71.70530701 194.96722412 C71.63506696 207.59806306 71.57416726 220.22893194 71.52319336 232.85986328 C71.49477181 239.88532045 71.45936021 246.9107086 71.41653961 253.93609309 C71.39006021 258.34559429 71.37198115 262.75501829 71.36050236 267.16458273 C71.3491264 270.55801795 71.32504193 273.95134449 71.30297852 277.34472656 C71.30238937 278.53976303 71.30180023 279.7347995 71.30119324 280.96604919 C71.1564596 297.86171385 68.89726151 315.14992751 57 328 C56.34 328 55.68 328 55 328 C54.7421875 328.598125 54.484375 329.19625 54.21875 329.8125 C48.85364251 339.44218012 34.47247359 342.15825792 25 345 C16.75 345 8.5 345 0 345 C0 231.15 0 117.3 0 0 Z " fill="#2D8CFF" transform="translate(1070,0)"/>
<path d="M0 0 C35.81419843 -0.09165495 71.62837621 -0.16208913 107.44266788 -0.20426132 C111.67564597 -0.20926385 115.90862382 -0.21444116 120.14160156 -0.21972656 C120.9842732 -0.2207758 121.82694483 -0.22182505 122.69515197 -0.22290608 C136.3204011 -0.24028773 149.94558237 -0.27181301 163.57079132 -0.30861118 C177.56266823 -0.34608308 191.55450973 -0.36824903 205.54643476 -0.37635398 C214.17276655 -0.38182883 222.79890652 -0.39908932 231.42517923 -0.43166587 C237.34915111 -0.452891 243.27302454 -0.45918205 249.19703163 -0.45400551 C252.6094464 -0.45145608 256.02152715 -0.45522558 259.43388176 -0.4768219 C275.33778255 -0.56265957 288.6020217 -0.42572484 303 7 C303 7.66 303 8.32 303 9 C304.0828125 9.37125 304.0828125 9.37125 305.1875 9.75 C314.27068776 13.78697234 320.62339288 23.58083998 324.1953125 32.60546875 C325.67067319 36.99574109 326.8408653 41.28018184 327.61778939 45.85134196 C327.88323372 47.34357968 328.17916981 48.83058569 328.49876964 50.31216931 C330.01884045 57.77848277 331.2128149 65.66176001 327.63239217 72.68120527 C323.15238854 79.08359014 317.51345074 84.43422323 311.86929572 89.80021358 C309.32339914 92.24576508 306.84531455 94.75855085 304.35792542 97.26333618 C300.05060704 101.58265303 295.70356525 105.85821265 291.3257618 110.10602951 C284.99681471 116.24717787 278.73317627 122.45170606 272.48309081 128.67297669 C262.33897885 138.76688389 252.14469686 148.80847576 241.91723633 158.81787109 C231.98880145 168.53483566 222.0850804 178.27592913 212.21313477 188.05029297 C211.60352494 188.65386015 210.99391512 189.25742733 210.36583228 189.87928443 C207.30741612 192.90768236 204.24947466 195.9365591 201.19176877 198.96567416 C175.86764705 224.0517792 150.46141549 249.05328284 125 274 C125.79677564 274.00423194 126.59355127 274.00846388 127.41447163 274.01282406 C146.88217643 274.11653276 166.34984771 274.22522695 185.81749439 274.33933926 C195.23224046 274.39440727 204.6469903 274.44784301 214.06176758 274.49731445 C222.27623688 274.54048296 230.49068127 274.58683801 238.70511168 274.63687855 C243.04679042 274.66321958 247.38846505 274.68806081 251.73017311 274.70907402 C282.94917337 274.86220693 282.94917337 274.86220693 294.3659668 275.41430664 C295.43454406 275.46271399 295.43454406 275.46271399 296.52470875 275.51209927 C309.21000608 276.26006858 320.85197322 282.33344831 330 291 C330 291.66 330 292.32 330 293 C330.66 293 331.32 293 332 293 C333.83984375 295.37890625 333.83984375 295.37890625 335.9375 298.5625 C336.62714844 299.59503906 337.31679688 300.62757813 338.02734375 301.69140625 C341.66988699 307.80078076 343.56932454 313.55875781 344.6875 320.5 C344.81705078 321.20125 344.94660156 321.9025 345.08007812 322.625 C345.92436287 327.69964271 346.06968364 332.68622076 346.03442383 337.82226562 C346.03069637 338.86051483 346.03069637 338.86051483 346.02689362 339.91973877 C346.02045419 341.61317066 346.01057757 343.3065889 346 345 C310.18580157 345.09165495 274.37162379 345.16208913 238.55733212 345.20426132 C234.32435403 345.20926385 230.09137618 345.21444116 225.85839844 345.21972656 C225.0157268 345.2207758 224.17305517 345.22182505 223.30484803 345.22290608 C209.6795989 345.24028773 196.05441763 345.27181301 182.42920868 345.30861118 C168.43733177 345.34608308 154.44549027 345.36824903 140.45356524 345.37635398 C131.82723345 345.38182883 123.20109348 345.39908932 114.57482077 345.43166587 C108.65084889 345.452891 102.72697546 345.45918205 96.80296837 345.45400551 C93.3905536 345.45145608 89.97847285 345.45522558 86.56611824 345.4768219 C65.55169693 345.59024244 49.52063705 344.37089284 33 330 C33 329.34 33 328.68 33 328 C32.34 328 31.68 328 31 328 C23.11771212 321.4848298 18.86725971 308.36962175 17.53515625 298.5859375 C17.24919171 295.05251259 17.08976229 291.54365891 17 288 C16.96003906 286.78828125 16.92007813 285.5765625 16.87890625 284.328125 C16.71089951 275.43365073 16.71089951 275.43365073 19 272 C19.66 272 20.32 272 21 272 C21 271.34 21 270.68 21 270 C22.875 267.875 22.875 267.875 25 266 C25.66 266 26.32 266 27 266 C27.33 265.01 27.66 264.02 28 263 C29.66215268 261.66104368 31.32963607 260.32869858 33 259 C34.69088222 257.02043058 36.35830472 255.02054804 38 253 C40.1875 250.625 40.1875 250.625 42 249 C42.66 249 43.32 249 44 249 C44 248.34 44 247.68 44 247 C45.875 244.875 45.875 244.875 48 243 C48.66 243 49.32 243 50 243 C50.33 242.01 50.66 241.02 51 240 C52.66215268 238.66104368 54.32963607 237.32869858 56 236 C57.69088222 234.02043058 59.35830472 232.02054804 61 230 C63.1875 227.625 63.1875 227.625 65 226 C65.66 226 66.32 226 67 226 C67 225.34 67 224.68 67 224 C68.875 221.875 68.875 221.875 71 220 C71.66 220 72.32 220 73 220 C73.33 219.01 73.66 218.02 74 217 C75.66215268 215.66104368 77.32963607 214.32869858 79 213 C80.69088222 211.02043058 82.35830472 209.02054804 84 207 C86.1875 204.625 86.1875 204.625 88 203 C88.66 203 89.32 203 90 203 C90 202.34 90 201.68 90 201 C91.875 198.875 91.875 198.875 94 197 C94.66 197 95.32 197 96 197 C96.33 196.01 96.66 195.02 97 194 C98.66215268 192.66104368 100.32963607 191.32869858 102 190 C103.69088222 188.02043058 105.35830472 186.02054804 107 184 C109.1875 181.625 109.1875 181.625 111 180 C111.66 180 112.32 180 113 180 C113 179.34 113 178.68 113 178 C114.875 175.875 114.875 175.875 117 174 C117.66 174 118.32 174 119 174 C119.33 173.01 119.66 172.02 120 171 C121.62607883 169.2713672 123.28704123 167.63988039 125 166 C126.40539019 164.60016906 127.80767832 163.19722075 129.20783997 161.79216003 C159.47189331 131.52810669 189.73594666 101.26405334 220 71 C219.21445362 70.99576806 218.42890724 70.99153612 217.61955643 70.98717594 C198.41854711 70.88342816 179.21757149 70.77472886 160.01662064 70.66066074 C150.73081872 70.60561287 141.44501299 70.55218094 132.15917969 70.50268555 C124.05640205 70.45949183 115.95364944 70.41313136 107.8509109 70.36312145 C103.56900412 70.33680015 99.28710139 70.31196033 95.0051651 70.29092598 C64.29660819 70.13784346 64.29660819 70.13784346 52.29589844 69.65600586 C51.5534853 69.63316056 50.81107216 69.61031527 50.04616165 69.58677769 C37.7444949 68.96846195 24.33725266 62.99545682 16 54 C14.6078125 52.700625 14.6078125 52.700625 13.1875 51.375 C11 49 11 49 11 46 C10.34 46 9.68 46 9 46 C1.86077397 34.18335003 -0.16087344 22.83052646 -0.05078125 9.08203125 C-0.04711548 8.20599243 -0.04344971 7.32995361 -0.03967285 6.42736816 C-0.03017671 4.28489234 -0.01560709 2.14244002 0 0 Z " fill="#2D8CFF" transform="translate(20,0)"/>
<path d="M0 0 C0.98874115 -0.01521698 1.9774823 -0.03043396 2.9961853 -0.04611206 C24.11272332 -0.31075829 43.66585679 -0.31382048 63.92578125 6.30859375 C65.36306313 6.72404578 66.80177147 7.13461071 68.2421875 7.5390625 C77.03933017 10.18271666 85.04368822 14.12535376 93.14550781 18.38037109 C95.61489644 19.6678938 98.11365811 20.89353402 100.61328125 22.12109375 C107.35479491 25.50890331 107.35479491 25.50890331 109.92578125 27.30859375 C109.92578125 27.96859375 109.92578125 28.62859375 109.92578125 29.30859375 C111.00859375 29.71078125 111.00859375 29.71078125 112.11328125 30.12109375 C114.92344508 31.30760737 117.40994682 32.58345014 119.92578125 34.30859375 C119.92578125 34.96859375 119.92578125 35.62859375 119.92578125 36.30859375 C120.7765625 36.68371094 120.7765625 36.68371094 121.64453125 37.06640625 C128.76687571 40.94466916 134.54329881 47.82557698 140.30078125 53.49609375 C140.80029297 53.98255371 141.29980469 54.46901367 141.81445312 54.97021484 C145.01613979 58.16434017 147.48875365 61.51048892 149.92578125 65.30859375 C150.56515625 65.94796875 151.20453125 66.58734375 151.86328125 67.24609375 C154.5901765 69.972989 157.02134573 72.94461134 158.92578125 76.30859375 C158.92578125 77.29859375 158.92578125 78.28859375 158.92578125 79.30859375 C159.58578125 79.30859375 160.24578125 79.30859375 160.92578125 79.30859375 C177.36575708 108.92386935 187.42078438 138.4325076 187.23828125 172.55859375 C187.23554703 173.632267 187.23554703 173.632267 187.23275757 174.72763062 C187.18269914 186.46592377 186.45338256 197.82146269 183.92578125 209.30859375 C183.73822266 210.16791504 183.55066406 211.02723633 183.35742188 211.91259766 C178.92710825 231.70921751 170.79221423 248.66860751 160.92578125 266.30859375 C160.26578125 266.30859375 159.60578125 266.30859375 158.92578125 266.30859375 C158.82136719 266.870625 158.71695312 267.43265625 158.609375 268.01171875 C157.7996489 270.73239846 156.56374787 272.70117182 154.98828125 275.05859375 C154.46363281 275.8578125 153.93898438 276.65703125 153.3984375 277.48046875 C152.66947266 278.38539063 152.66947266 278.38539063 151.92578125 279.30859375 C151.26578125 279.30859375 150.60578125 279.30859375 149.92578125 279.30859375 C149.69890625 279.8396875 149.47203125 280.37078125 149.23828125 280.91796875 C147.49208836 284.09853437 145.24516839 286.78858282 142.92578125 289.55859375 C142.47460938 290.11289062 142.0234375 290.6671875 141.55859375 291.23828125 C140.39505096 292.63590957 139.16483387 293.97744938 137.92578125 295.30859375 C137.26578125 295.30859375 136.60578125 295.30859375 135.92578125 295.30859375 C135.59578125 296.29859375 135.26578125 297.28859375 134.92578125 298.30859375 C133.14434506 299.88990024 131.30199527 301.40348819 129.42578125 302.87109375 C125.61952048 305.62534694 125.61952048 305.62534694 122.92578125 309.30859375 C121.93578125 309.30859375 120.94578125 309.30859375 119.92578125 309.30859375 C119.92578125 309.96859375 119.92578125 310.62859375 119.92578125 311.30859375 C114.13531832 316.10778745 107.53993962 319.78547422 100.92578125 323.30859375 C100.08402344 323.78039062 99.24226563 324.2521875 98.375 324.73828125 C88.5312517 330.23710447 78.59213503 334.94337742 67.86328125 338.43359375 C67.17556641 338.66304688 66.48785156 338.8925 65.77929688 339.12890625 C49.74749853 344.13617601 33.92075973 345.99071433 17.17260742 345.88500977 C14.12502407 345.87114716 11.08053019 345.90538722 8.03320312 345.94335938 C-29.17900613 346.08732172 -64.85361799 331.95726806 -94.07421875 309.30859375 C-94.98361206 308.60500732 -94.98361206 308.60500732 -95.91137695 307.88720703 C-97.34095912 306.74496857 -98.71408919 305.53271035 -100.07421875 304.30859375 C-100.07421875 303.64859375 -100.07421875 302.98859375 -100.07421875 302.30859375 C-100.87859375 301.96828125 -100.87859375 301.96828125 -101.69921875 301.62109375 C-107.43954371 298.4488089 -112.28498964 293.64307586 -116.07421875 288.30859375 C-116.07421875 287.64859375 -116.07421875 286.98859375 -116.07421875 286.30859375 C-116.94820313 285.96828125 -116.94820313 285.96828125 -117.83984375 285.62109375 C-120.68625229 283.94907755 -121.97382845 282.02882564 -123.82421875 279.30859375 C-124.4378125 278.42171875 -125.05140625 277.53484375 -125.68359375 276.62109375 C-127.07421875 274.30859375 -127.07421875 274.30859375 -127.07421875 272.30859375 C-127.73421875 272.30859375 -128.39421875 272.30859375 -129.07421875 272.30859375 C-130.40625 270.4375 -130.40625 270.4375 -131.88671875 267.87109375 C-132.41910156 266.95199219 -132.95148438 266.03289062 -133.5 265.0859375 C-134.01949219 264.16941406 -134.53898437 263.25289063 -135.07421875 262.30859375 C-135.50089844 261.56738281 -135.92757813 260.82617188 -136.3671875 260.0625 C-137.63458022 257.82713096 -138.86015558 255.5733599 -140.07421875 253.30859375 C-140.78384766 252.00535156 -140.78384766 252.00535156 -141.5078125 250.67578125 C-145.96124001 242.18535062 -149.11584529 233.40197252 -152.07421875 224.30859375 C-152.45707031 223.14328125 -152.83992188 221.97796875 -153.234375 220.77734375 C-162.92179867 189.24717393 -162.15055347 152.60226723 -152.07421875 121.30859375 C-151.74292969 120.23738281 -151.41164063 119.16617188 -151.0703125 118.0625 C-149.40759105 112.83959849 -147.57012501 107.93239588 -145 103.08984375 C-144.14080156 101.43670244 -143.41348522 99.71682661 -142.69921875 97.99609375 C-137.71581975 86.18061546 -130.47594233 75.30753967 -122.76171875 65.12109375 C-122.32891602 64.54375488 -121.89611328 63.96641602 -121.45019531 63.37158203 C-120.37446176 61.97753646 -119.22969831 60.63728962 -118.07421875 59.30859375 C-117.41421875 59.30859375 -116.75421875 59.30859375 -116.07421875 59.30859375 C-115.74421875 58.31859375 -115.41421875 57.32859375 -115.07421875 56.30859375 C-114.41421875 56.30859375 -113.75421875 56.30859375 -113.07421875 56.30859375 C-112.78546875 55.71046875 -112.49671875 55.11234375 -112.19921875 54.49609375 C-111.07421875 52.30859375 -111.07421875 52.30859375 -109.07421875 49.30859375 C-108.41421875 49.30859375 -107.75421875 49.30859375 -107.07421875 49.30859375 C-106.74421875 48.31859375 -106.41421875 47.32859375 -106.07421875 46.30859375 C-102.62977431 43.30859375 -102.62977431 43.30859375 -100.07421875 43.30859375 C-99.74421875 42.31859375 -99.41421875 41.32859375 -99.07421875 40.30859375 C-97.69824219 38.9934082 -97.69824219 38.9934082 -95.93359375 37.671875 C-95.28221436 37.18114502 -94.63083496 36.69041504 -93.9597168 36.18481445 C-92.90264526 35.41077271 -92.90264526 35.41077271 -91.82421875 34.62109375 C-91.0969458 34.08508545 -90.36967285 33.54907715 -89.62036133 32.99682617 C-70.68535822 19.1910465 -50.0555812 9.38407194 -27.19921875 4.12109375 C-26.09835937 3.86134766 -24.9975 3.60160156 -23.86328125 3.33398438 C-20.93607109 2.64658733 -18.00864132 1.96450782 -15.07421875 1.30859375 C-14.34211182 1.12377441 -13.61000488 0.93895508 -12.85571289 0.74853516 C-8.58273351 0.07268956 -4.32034045 0.06389929 0 0 Z M-12.07421875 73.30859375 C-12.97269531 73.50195312 -13.87117188 73.6953125 -14.796875 73.89453125 C-26.30314975 76.85273878 -37.51675168 83.40268069 -47.07421875 90.30859375 C-47.70714844 90.72753906 -48.34007812 91.14648438 -48.9921875 91.578125 C-51.98894944 93.59087556 -54.42595128 95.55421885 -56.69921875 98.37109375 C-59.07421875 101.30859375 -59.07421875 101.30859375 -61.88671875 103.49609375 C-62.60859375 104.09421875 -63.33046875 104.69234375 -64.07421875 105.30859375 C-64.07421875 106.29859375 -64.07421875 107.28859375 -64.07421875 108.30859375 C-64.65558594 108.52128906 -65.23695313 108.73398438 -65.8359375 108.953125 C-76.5069982 115.41535547 -83.40188775 137.71049156 -86.36328125 149.0625 C-87.41123227 153.84737524 -87.93525368 158.4146064 -88.07421875 163.30859375 C-88.09468262 164.00114258 -88.11514648 164.69369141 -88.13623047 165.40722656 C-88.79552302 191.24495613 -83.5591643 217.22453467 -66.07421875 237.30859375 C-65.41421875 237.30859375 -64.75421875 237.30859375 -64.07421875 237.30859375 C-64.07421875 238.29859375 -64.07421875 239.28859375 -64.07421875 240.30859375 C-62.43070418 241.67036297 -60.75899219 242.99821441 -59.07421875 244.30859375 C-58.17681535 245.37344268 -57.3016572 246.45741946 -56.44921875 247.55859375 C-55.66546875 248.46609375 -54.88171875 249.37359375 -54.07421875 250.30859375 C-53.08421875 250.30859375 -52.09421875 250.30859375 -51.07421875 250.30859375 C-50.74421875 251.29859375 -50.41421875 252.28859375 -50.07421875 253.30859375 C-29.31018871 270.95374685 -0.75994564 277.09540574 25.84375 275 C48.48849151 272.34833597 69.31073106 261.88520331 85.92578125 246.30859375 C86.25578125 245.31859375 86.58578125 244.32859375 86.92578125 243.30859375 C87.50328125 243.05464844 88.08078125 242.80070313 88.67578125 242.5390625 C92.04108347 240.69866285 93.8010743 237.71479584 95.92578125 234.62109375 C96.35117187 234.02103516 96.7765625 233.42097656 97.21484375 232.80273438 C112.75604936 210.6112276 120.22911389 184.5479776 115.79394531 157.59277344 C113.0467851 142.431713 108.19502021 129.38320159 99.92578125 116.30859375 C99.40371094 115.37402344 98.88164063 114.43945312 98.34375 113.4765625 C97.87582031 112.76113281 97.40789062 112.04570313 96.92578125 111.30859375 C96.26578125 111.30859375 95.60578125 111.30859375 94.92578125 111.30859375 C94.67828125 110.75171875 94.43078125 110.19484375 94.17578125 109.62109375 C92.69653307 106.88448462 90.99110686 104.63208506 88.92578125 102.30859375 C88.26578125 102.30859375 87.60578125 102.30859375 86.92578125 102.30859375 C86.58933594 101.46361328 86.58933594 101.46361328 86.24609375 100.6015625 C78.31231678 86.82308001 55.38978483 77.08711322 40.76171875 72.96875 C23.0824742 68.85333357 5.53444047 69.38741469 -12.07421875 73.30859375 Z " fill="#2D8CFF" transform="translate(506.07421875,-0.30859375)"/>
<path d="M0 0 C3.13983587 0.01385973 6.27667306 -0.02035789 9.41625977 -0.05834961 C23.4821817 -0.11089367 36.30232508 1.80470892 49.84008789 5.57641602 C50.60944168 5.7904306 51.37879547 6.00444519 52.17146301 6.22494507 C56.78787795 7.52766266 61.32460821 8.9641502 65.84008789 10.57641602 C66.51313965 10.81553711 67.18619141 11.0546582 67.87963867 11.30102539 C95.21419957 21.24086572 123.50610167 41.33888808 139.84008789 65.57641602 C140.50008789 65.90641602 141.16008789 66.23641602 141.84008789 66.57641602 C141.84008789 67.56641602 141.84008789 68.55641602 141.84008789 69.57641602 C142.50008789 69.57641602 143.16008789 69.57641602 143.84008789 69.57641602 C145.12915039 71.00219727 145.12915039 71.00219727 146.46508789 72.88891602 C146.91110352 73.50379883 147.35711914 74.11868164 147.81665039 74.75219727 C148.84008789 76.57641602 148.84008789 76.57641602 148.84008789 79.57641602 C149.50008789 79.57641602 150.16008789 79.57641602 150.84008789 79.57641602 C152.42483834 82.57566943 154.00762311 85.5759561 155.59008789 88.57641602 C156.03352539 89.4155957 156.47696289 90.25477539 156.93383789 91.11938477 C158.24236528 93.6017382 159.54154547 96.08882853 160.84008789 98.57641602 C161.20158936 99.25357666 161.56309082 99.9307373 161.93554688 100.62841797 C164.6512584 105.83468051 166.58356055 111.1873952 168.40258789 116.76391602 C168.70704834 117.69300781 169.01150879 118.62209961 169.32519531 119.5793457 C171.5625424 126.51156267 173.58055826 133.39177515 174.84008789 140.57641602 C175.04375977 141.72368164 175.24743164 142.87094727 175.45727539 144.05297852 C178.55202431 165.20749511 178.09622445 187.64400912 173.84008789 208.57641602 C173.53264648 210.27604492 173.53264648 210.27604492 173.21899414 212.01000977 C170.08497103 227.60226141 163.49753395 243.01880209 156.02758789 257.01391602 C155.68719482 257.65353271 155.34680176 258.29314941 154.99609375 258.95214844 C152.37710788 263.78202167 149.44504944 268.29130886 146.18774414 272.72094727 C144.7920059 274.53609558 144.7920059 274.53609558 143.84008789 276.57641602 C143.18008789 276.57641602 142.52008789 276.57641602 141.84008789 276.57641602 C141.84008789 277.56641602 141.84008789 278.55641602 141.84008789 279.57641602 C140.75958296 280.72663095 139.66286201 281.86382738 138.51196289 282.94360352 C136.44796462 284.95937753 134.5633884 287.10240764 132.65258789 289.26391602 C105.80985549 319.05494853 65.72609417 343.46115394 24.65182495 345.69544983 C18.94157531 345.86696786 13.2278624 345.89390114 7.51538086 345.92651367 C5.42704992 345.94289148 3.3387706 345.96993255 1.25073242 346.00854492 C-33.8635851 346.65227942 -70.33303815 335.38557703 -98.15991211 313.57641602 C-99.27461556 312.72590632 -100.39056702 311.87703055 -101.50756836 311.02954102 C-116.50405835 299.61433368 -116.50405835 299.61433368 -120.53491211 294.82641602 C-123.82370591 290.95638126 -127.22132116 287.20023235 -130.65600586 283.45922852 C-132.15991211 281.57641602 -132.15991211 281.57641602 -132.15991211 279.57641602 C-132.81991211 279.57641602 -133.47991211 279.57641602 -134.15991211 279.57641602 C-136.4563986 277.01495031 -137.15991211 276.09674029 -137.15991211 272.57641602 C-137.81991211 272.57641602 -138.47991211 272.57641602 -139.15991211 272.57641602 C-140.59741211 270.49438477 -140.59741211 270.49438477 -142.15991211 267.76391602 C-143.76969483 264.97496746 -145.37263087 262.25733788 -147.15991211 259.57641602 C-147.15991211 258.58641602 -147.15991211 257.59641602 -147.15991211 256.57641602 C-147.81991211 256.57641602 -148.47991211 256.57641602 -149.15991211 256.57641602 C-158.84071976 235.69016647 -158.84071976 235.69016647 -162.15991211 224.57641602 C-162.47694092 223.55781494 -162.79396973 222.53921387 -163.12060547 221.48974609 C-165.70231308 212.92485422 -167.29068305 204.50559538 -168.40991211 195.63891602 C-168.66901367 193.77589844 -168.66901367 193.77589844 -168.93334961 191.87524414 C-170.76779166 177.84758611 -170.35529728 164.50181608 -168.40991211 150.51391602 C-168.25264648 149.26803711 -168.09538086 148.0221582 -167.93334961 146.73852539 C-166.76346914 138.07691038 -164.7852261 129.90754304 -162.15991211 121.57641602 C-161.91080078 120.77357178 -161.66168945 119.97072754 -161.4050293 119.14355469 C-153.3826265 93.99866626 -138.91093772 67.47446694 -119.15991211 49.57641602 C-118.49991211 49.57641602 -117.83991211 49.57641602 -117.15991211 49.57641602 C-116.82991211 48.58641602 -116.49991211 47.59641602 -116.15991211 46.57641602 C-114.44276982 45.03524533 -112.66196038 43.56411751 -110.84741211 42.13891602 C-108.11666933 39.98421778 -105.47840356 37.89724074 -103.02709961 35.42797852 C-99.67029781 32.09926711 -95.63940827 30.0695814 -91.15991211 28.57641602 C-91.15991211 27.91641602 -91.15991211 27.25641602 -91.15991211 26.57641602 C-77.9423272 18.96160129 -64.093494 11.84042177 -49.53491211 7.20141602 C-48.86975586 6.98743164 -48.20459961 6.77344727 -47.51928711 6.55297852 C-45.08080816 5.82234812 -42.62967067 5.19411415 -40.15991211 4.57641602 C-39.54125275 4.41372223 -38.92259338 4.25102844 -38.28518677 4.08340454 C-25.4940291 0.77843423 -13.18498126 -0.08082669 0 0 Z M-65.15991211 96.57641602 C-65.15991211 97.23641602 -65.15991211 97.89641602 -65.15991211 98.57641602 C-66.14991211 98.90641602 -67.13991211 99.23641602 -68.15991211 99.57641602 C-70.36848871 101.45149763 -70.36848871 101.45149763 -72.15991211 103.57641602 C-72.15991211 104.23641602 -72.15991211 104.89641602 -72.15991211 105.57641602 C-73.64491211 106.07141602 -73.64491211 106.07141602 -75.15991211 106.57641602 C-84.81894066 118.89219229 -92.11413096 133.4825402 -96.15991211 148.57641602 C-96.51053711 149.67856445 -96.86116211 150.78071289 -97.22241211 151.91625977 C-98.84226011 158.49333492 -98.55225451 165.3435171 -98.53491211 172.07641602 C-98.53503296 172.79162415 -98.53515381 173.50683228 -98.53527832 174.24371338 C-98.50966847 184.85542315 -97.88318256 194.53642467 -94.15991211 204.57641602 C-93.84795898 205.48133789 -93.53600586 206.38625977 -93.21459961 207.31860352 C-92.29564162 209.7974734 -91.26861419 212.17681255 -90.15991211 214.57641602 C-89.72936523 215.5290332 -89.29881836 216.48165039 -88.85522461 217.46313477 C-85.37609703 224.80691487 -81.07238834 231.12602493 -76.15991211 237.57641602 C-75.49991211 238.56641602 -74.83991211 239.55641602 -74.15991211 240.57641602 C-73.49991211 240.57641602 -72.83991211 240.57641602 -72.15991211 240.57641602 C-71.82991211 241.56641602 -71.49991211 242.55641602 -71.15991211 243.57641602 C-69.28483049 245.78499262 -69.28483049 245.78499262 -67.15991211 247.57641602 C-66.49991211 247.57641602 -65.83991211 247.57641602 -65.15991211 247.57641602 C-64.82991211 248.56641602 -64.49991211 249.55641602 -64.15991211 250.57641602 C-62.06728501 252.2888334 -59.99996087 253.85116991 -57.78491211 255.38891602 C-57.15004883 255.83323975 -56.51518555 256.27756348 -55.86108398 256.73535156 C-46.14885408 263.43752228 -36.3679269 267.87173089 -25.15991211 271.57641602 C-24.1737793 271.92961914 -23.18764648 272.28282227 -22.17163086 272.64672852 C2.34345607 280.21429102 29.98845273 275.25961451 52.18383789 263.57641602 C59.15158167 259.80930251 65.28214714 255.32674108 71.40258789 250.32641602 C71.94044922 249.88958496 72.47831055 249.45275391 73.0324707 249.00268555 C74.34189993 247.90694493 75.59650413 246.74635269 76.84008789 245.57641602 C76.84008789 244.91641602 76.84008789 244.25641602 76.84008789 243.57641602 C77.50008789 243.57641602 78.16008789 243.57641602 78.84008789 243.57641602 C80.79831461 241.3065838 82.61255207 239.0373699 84.40258789 236.63891602 C85.20297485 235.56758423 85.20297485 235.56758423 86.01953125 234.47460938 C89.7185961 229.39634468 92.9618177 224.18912838 95.90258789 218.63891602 C96.25973877 217.96675049 96.61688965 217.29458496 96.98486328 216.60205078 C109.15749038 192.73972119 108.84046699 163.8901244 100.96508789 138.78735352 C96.8432849 127.4891971 90.41490814 114.93686576 81.84008789 106.57641602 C81.28321289 105.81329102 80.72633789 105.05016602 80.15258789 104.26391602 C79.71946289 103.70704102 79.28633789 103.15016602 78.84008789 102.57641602 C78.18008789 102.57641602 77.52008789 102.57641602 76.84008789 102.57641602 C75.85008789 100.59641602 75.85008789 100.59641602 74.84008789 98.57641602 C74.18008789 98.57641602 73.52008789 98.57641602 72.84008789 98.57641602 C72.84008789 97.91641602 72.84008789 97.25641602 72.84008789 96.57641602 C70.70372358 94.52984369 70.70372358 94.52984369 68.02758789 92.45141602 C67.13426758 91.72696289 66.24094727 91.00250977 65.32055664 90.25610352 C62.92535907 88.29606403 62.92535907 88.29606403 59.84008789 88.57641602 C59.84008789 87.91641602 59.84008789 87.25641602 59.84008789 86.57641602 C51.00664928 82.01007134 42.32359286 77.65626811 32.84008789 74.57641602 C31.8771582 74.23610352 30.91422852 73.89579102 29.92211914 73.54516602 C-1.7173915 63.60017408 -41.43503073 73.93521601 -65.15991211 96.57641602 Z " fill="#2D8CFF" transform="translate(878.159912109375,-0.576416015625)"/>
</svg>
